<svg width="268" height="50" viewBox="0 0 268 50" fill="none" xmlns="http://www.w3.org/2000/svg">
<path d="M4 0H0V50H4V0Z" fill="#EEEDED"/>
<path d="M8 0H6V50H8V0Z" fill="#EEEDED"/>
<path d="M18 0H12V50H18V0Z" fill="#EEEDED"/>
<path d="M24 0H22V50H24V0Z" fill="#EEEDED"/>
<path d="M32 0H26V50H32V0Z" fill="#EEEDED"/>
<path d="M40 0H36V50H40V0Z" fill="#EEEDED"/>
<path d="M50 0H44V50H50V0Z" fill="#EEEDED"/>
<path d="M54 0H52V50H54V0Z" fill="#EEEDED"/>
<path d="M64 0H56V50H64V0Z" fill="#EEEDED"/>
<path d="M68 0H66V50H68V0Z" fill="#EEEDED"/>
<path d="M76 0H72V50H76V0Z" fill="#EEEDED"/>
<path d="M86 0H80V50H86V0Z" fill="#EEEDED"/>
<path d="M90 0H88V50H90V0Z" fill="#EEEDED"/>
<path d="M100 0H94V50H100V0Z" fill="#EEEDED"/>
<path d="M106 0H102V50H106V0Z" fill="#EEEDED"/>
<path d="M116 0H110V50H116V0Z" fill="#EEEDED"/>
<path d="M120 0H118V50H120V0Z" fill="#EEEDED"/>
<path d="M128 0H124V50H128V0Z" fill="#EEEDED"/>
<path d="M134 0H132V50H134V0Z" fill="#EEEDED"/>
<path d="M142 0H138V50H142V0Z" fill="#EEEDED"/>
<path d="M152 0H146V50H152V0Z" fill="#EEEDED"/>
<path d="M156 0H154V50H156V0Z" fill="#EEEDED"/>
<path d="M164 0H158V50H164V0Z" fill="#EEEDED"/>
<path d="M174 0H166V50H174V0Z" fill="#EEEDED"/>
<path d="M180 0H176V50H180V0Z" fill="#EEEDED"/>
<path d="M186 0H184V50H186V0Z" fill="#EEEDED"/>
<path d="M196 0H190V50H196V0Z" fill="#EEEDED"/>
<path d="M200 0H198V50H200V0Z" fill="#EEEDED"/>
<path d="M208 0H206V50H208V0Z" fill="#EEEDED"/>
<path d="M216 0H212V50H216V0Z" fill="#EEEDED"/>
<path d="M228 0H220V50H228V0Z" fill="#EEEDED"/>
<path d="M234 0H232V50H234V0Z" fill="#EEEDED"/>
<path d="M240 0H238V50H240V0Z" fill="#EEEDED"/>
<path d="M246 0H242V50H246V0Z" fill="#EEEDED"/>
<path d="M258 0H252V50H258V0Z" fill="#EEEDED"/>
<path d="M262 0H260V50H262V0Z" fill="#EEEDED"/>
<path d="M268 0H264V50H268V0Z" fill="#EEEDED"/>
</svg>
