<svg width="56" height="64" viewBox="0 0 56 64" fill="none" xmlns="http://www.w3.org/2000/svg">
<path d="M27.9136 30.8149L27.9554 31.5798L28.6388 31.2336L31.9151 29.5738L28.8395 31.5813L28.198 32L28.8395 32.4187L31.9151 34.4262L28.6388 32.7664L27.9554 32.4202L27.9136 33.1851L27.7128 36.8524L27.5121 33.1851L27.4702 32.4202L26.7869 32.7664L23.5105 34.4262L26.5861 32.4187L27.2276 32L26.5861 31.5813L23.5106 29.5738L26.7869 31.2336L27.4702 31.5798L27.5121 30.8149L27.7128 27.1476L27.9136 30.8149ZM40.1105 25.4187L39.6112 24.554L28.8702 29.9954L28.2121 17.9727L27.2136 17.9727L26.5554 29.9954L15.8144 24.554L15.3152 25.4187L25.398 32L15.3152 38.5813L15.8144 39.446L26.5554 34.0046L27.2136 46.0273H28.2121L28.8702 34.0046L39.6112 39.446L40.1105 38.5813L30.0276 32L40.1105 25.4187ZM0.5 16.2887L27.7128 0.57735L54.9256 16.2887V47.7113L27.7128 63.4226L0.5 47.7113V16.2887ZM43.8795 32C43.8795 40.9286 36.6414 48.1667 27.7128 48.1667C18.7842 48.1667 11.5461 40.9286 11.5461 32C11.5461 23.0714 18.7842 15.8333 27.7128 15.8333C36.6414 15.8333 43.8795 23.0714 43.8795 32ZM27.7128 49.1667C37.1937 49.1667 44.8795 41.4809 44.8795 32C44.8795 22.5191 37.1937 14.8333 27.7128 14.8333C18.2319 14.8333 10.5461 22.5191 10.5461 32C10.5461 41.4809 18.2319 49.1667 27.7128 49.1667Z" stroke="#EF3939"/>
</svg>
