<svg width="92" height="92" viewBox="0 0 92 92" fill="none" xmlns="http://www.w3.org/2000/svg">
<rect x="2.86644" y="46" width="61" height="61" transform="rotate(-45 2.86644 46)" fill="#0D0D0C" stroke="#EF3939" stroke-width="3"/>
<rect x="46" y="9.23047" width="52" height="52" transform="rotate(45 46 9.23047)" fill="#EF3939"/>
<path fill-rule="evenodd" clip-rule="evenodd" d="M82.7696 46L76.4394 52.3302L76.4394 39.6699L82.7696 46ZM73.4394 36.6699L75.4394 38.6699L75.4394 53.3302L70.4394 58.3302L70.4394 42.8511L69.4394 42.8511L69.4394 59.3302L66.4394 62.3302L66.4394 45.8511L65.4394 45.8511L65.4394 63.3302L63.4394 65.3302L63.4394 46.8511L62.4394 46.8511L62.4394 66.3302L58.4394 70.3302L58.4394 38.8511L57.4394 38.8511L57.4394 71.3302L55.4394 73.3302V44.8511H54.4394L54.4394 74.3302L51.4394 77.3302L51.4394 48.8511L50.4394 48.8511L50.4394 78.3302L46 82.7696L45.4394 82.209L45.4394 54.8511H44.4394L44.4394 81.209L40.4394 77.209L40.4394 45.8511H39.4394L39.4394 76.209L35.4394 72.209L35.4394 49.8511H34.4394L34.4394 71.209L29.4394 66.209L29.4394 36.8511L28.4394 36.8511L28.4394 65.209L27.4394 64.209L27.4394 34.8511L26.4394 34.8511L26.4394 63.209L24.4394 61.209L24.4394 52.8511H23.4394L23.4394 60.209L15.4394 52.209L15.4394 39.7911L18.4394 36.7911L18.4394 47.8511L19.4394 47.8511L19.4394 35.7911L21.4394 33.7911L21.4394 50.8511H22.4394L22.4394 32.7911L24.4394 30.7911V44.8511L25.4394 44.8511L25.4394 29.7911L31.4394 23.7911L31.4394 50.8511L32.4394 50.8511L32.4394 22.7911L35.4394 19.7911L35.4394 47.8511H36.4394L36.4394 18.7911L38.4394 16.7911L38.4394 42.8511L39.4394 42.8511L39.4394 15.7911L44.4394 10.7911L44.4394 39.8511L45.4394 39.8511L45.4394 9.79106L46 9.23047L49.4394 12.6699L49.4394 37.8511L50.4394 37.8511L50.4394 13.6699L54.4394 17.6699L54.4394 32.8511L55.4394 32.8511L55.4394 18.6699L59.4394 22.6699L59.4394 48.8511L60.4394 48.8511L60.4394 23.6699L62.4394 25.6699L62.4394 43.8511L63.4394 43.8511L63.4394 26.6699L66.4394 29.6699L66.4394 44.8511L67.4394 44.8511L67.4394 30.6699L72.4394 35.6699L72.4394 44.8511L73.4394 44.8511L73.4394 36.6699ZM14.4394 40.7911L9.23045 46L14.4394 51.209L14.4394 40.7911ZM52.4394 56.8511L52.4394 17.8511L53.4394 17.8511L53.4394 56.8511H52.4394ZM47.4394 52.8511L47.4394 12.8511L48.4394 12.8511L48.4394 52.8511H47.4394ZM42.4394 24.8511L42.4394 64.8511H43.4394L43.4394 24.8511H42.4394Z" fill="#0D0D0C"/>
</svg>
