<svg width="404" height="513" viewBox="0 0 404 513" fill="none" xmlns="http://www.w3.org/2000/svg">
<path d="M404 513H0.0968455V0.720232H404V513ZM1.31997 511.772H402.777V1.94103H1.31997V511.772Z" fill="#EF3939"/>
<path d="M233.563 296.689H170.534V217.02H233.563V296.689ZM171.757 295.465H232.34V218.248H171.757V295.465Z" fill="#EF3939"/>
<path d="M403.638 512.273H0.0179344L170.85 295.465H232.806L232.989 295.695L403.638 512.273ZM2.54309 511.045H401.113L232.214 296.689H171.452L2.54309 511.045Z" fill="#EF3939"/>
<path d="M360.538 457.945H43.1214V459.173H360.538V457.945Z" fill="#EF3939"/>
<path d="M333.138 423.176H70.5143V424.404H333.138V423.176Z" fill="#EF3939"/>
<path d="M313.808 398.645H89.8439V399.873H313.808V398.645Z" fill="#EF3939"/>
<path d="M299.439 380.409H104.213V381.637H299.439V380.409Z" fill="#EF3939"/>
<path d="M288.338 366.317H115.314V367.545H288.338V366.317Z" fill="#EF3939"/>
<path d="M279.503 355.107H124.149V356.335H279.503V355.107Z" fill="#EF3939"/>
<path d="M272.308 345.974H131.348V347.202H272.308V345.974Z" fill="#EF3939"/>
<path d="M266.332 338.387H137.323V339.615H266.332V338.387Z" fill="#EF3939"/>
<path d="M261.293 331.988H142.366V333.216H261.293V331.988Z" fill="#EF3939"/>
<path d="M256.978 326.517H146.674V327.745H256.978V326.517Z" fill="#EF3939"/>
<path d="M253.251 321.785H150.405V323.013H253.251V321.785Z" fill="#EF3939"/>
<path d="M249.998 317.655H153.662V318.883H249.998V317.655Z" fill="#EF3939"/>
<path d="M247.125 314.014H156.527V315.242H247.125V314.014Z" fill="#EF3939"/>
<path d="M244.582 310.784H159.074V312.012H244.582V310.784Z" fill="#EF3939"/>
<path d="M242.304 307.896H161.348V309.124H242.304V307.896Z" fill="#EF3939"/>
<path d="M240.259 305.299H163.393V306.527H240.259V305.299Z" fill="#EF3939"/>
<path d="M238.412 302.955H165.244V304.183H238.412V302.955Z" fill="#EF3939"/>
<path d="M236.733 300.823H166.922V302.051H236.733V300.823Z" fill="#EF3939"/>
<path d="M235.202 298.878H168.454V300.106H235.202V298.878Z" fill="#EF3939"/>
<path d="M233.799 297.1H169.856V298.327H233.799V297.1Z" fill="#EF3939"/>
<path d="M230.084 295.738L229.089 296.453L382.766 512.041L383.761 511.326L230.084 295.738Z" fill="#EF3939"/>
<path d="M227.185 295.713L226.155 296.375L363.682 511.946L364.712 511.284L227.185 295.713Z" fill="#EF3939"/>
<path d="M224.278 295.767L223.213 296.371L344.551 511.952L345.616 511.348L224.278 295.767Z" fill="#EF3939"/>
<path d="M221.367 295.818L220.269 296.358L325.418 511.945L326.516 511.405L221.367 295.818Z" fill="#EF3939"/>
<path d="M218.47 295.828L217.34 296.298L306.326 511.878L307.456 511.408L218.47 295.828Z" fill="#EF3939"/>
<path d="M215.564 295.87L214.405 296.265L287.211 511.846L288.37 511.452L215.564 295.87Z" fill="#EF3939"/>
<path d="M212.639 295.931L211.456 296.244L268.07 511.829L269.253 511.516L212.639 295.931Z" fill="#EF3939"/>
<path d="M209.745 295.95L208.543 296.178L248.999 511.757L250.201 511.529L209.745 295.95Z" fill="#EF3939"/>
<path d="M206.83 295.999L205.615 296.137L229.89 511.719L231.106 511.581L206.83 295.999Z" fill="#EF3939"/>
<path d="M203.913 296.043L202.691 296.089L210.789 511.671L212.012 511.624L203.913 296.043Z" fill="#EF3939"/>
<path d="M199.732 296.029L191.671 511.611L192.893 511.658L200.955 296.075L199.732 296.029Z" fill="#EF3939"/>
<path d="M196.843 296.019L172.568 511.601L173.783 511.739L198.059 296.157L196.843 296.019Z" fill="#EF3939"/>
<path d="M193.905 295.941L153.486 511.527L154.688 511.754L195.107 296.168L193.905 295.941Z" fill="#EF3939"/>
<path d="M191.007 295.922L134.393 511.506L135.576 511.82L192.189 296.235L191.007 295.922Z" fill="#EF3939"/>
<path d="M188.121 295.923L115.278 511.491L116.436 511.886L189.279 296.317L188.121 295.923Z" fill="#EF3939"/>
<path d="M185.194 295.852L96.2085 511.432L97.3384 511.902L186.324 296.322L185.194 295.852Z" fill="#EF3939"/>
<path d="M182.304 295.795L77.1173 511.363L78.2157 511.903L183.402 296.335L182.304 295.795Z" fill="#EF3939"/>
<path d="M179.38 295.778L58.0429 511.359L59.1077 511.963L180.445 296.382L179.38 295.778Z" fill="#EF3939"/>
<path d="M176.444 295.728L38.9917 511.347L40.0219 512.009L177.475 296.39L176.444 295.728Z" fill="#EF3939"/>
<path d="M173.583 295.731L19.8687 511.293L20.8632 512.007L174.578 296.446L173.583 295.731Z" fill="#EF3939"/>
<path d="M232.942 218.248H170.71L170.527 218.014L0.0215212 0.302498H403.634L232.942 218.248ZM171.305 217.02H232.35L401.116 1.53049H2.5395L171.305 217.02Z" fill="#EF3939"/>
<path d="M360.706 53.5061H42.9456V54.7341H360.706V53.5061Z" fill="#EF3939"/>
<path d="M333.378 88.4013H70.2776V89.6293H333.378V88.4013Z" fill="#EF3939"/>
<path d="M314.07 113.055H89.5857V114.283H314.07V113.055Z" fill="#EF3939"/>
<path d="M299.705 131.399H103.951V132.627H299.705V131.399Z" fill="#EF3939"/>
<path d="M288.596 145.581H115.056V146.809H288.596V145.581Z" fill="#EF3939"/>
<path d="M279.754 156.87H123.898V158.098H279.754V156.87Z" fill="#EF3939"/>
<path d="M272.548 166.071H131.107V167.299H272.548V166.071Z" fill="#EF3939"/>
<path d="M266.562 173.716H137.094V174.944H266.562V173.716Z" fill="#EF3939"/>
<path d="M261.508 180.166H142.144V181.394H261.508V180.166Z" fill="#EF3939"/>
<path d="M257.189 185.683H146.466V186.911H257.189V185.683Z" fill="#EF3939"/>
<path d="M253.452 190.455H150.204V191.683H253.452V190.455Z" fill="#EF3939"/>
<path d="M250.188 194.625H153.468V195.853H250.188V194.625Z" fill="#EF3939"/>
<path d="M247.311 198.298H156.345V199.526H247.311V198.298Z" fill="#EF3939"/>
<path d="M244.757 201.557H158.898V202.785H244.757V201.557Z" fill="#EF3939"/>
<path d="M242.476 204.47H161.18V205.698H242.476V204.47Z" fill="#EF3939"/>
<path d="M240.424 207.092H163.231V208.32H240.424V207.092Z" fill="#EF3939"/>
<path d="M238.57 209.458H165.086V210.686H238.57V209.458Z" fill="#EF3939"/>
<path d="M236.884 211.608H166.768V212.836H236.884V211.608Z" fill="#EF3939"/>
<path d="M235.349 213.571H168.307V214.799H235.349V213.571Z" fill="#EF3939"/>
<path d="M233.939 215.368H169.713V216.596H233.939V215.368Z" fill="#EF3939"/>
<path d="M382.76 0.552716L229.229 217.293L230.225 218.005L383.757 1.26442L382.76 0.552716Z" fill="#EF3939"/>
<path d="M363.665 0.598939L226.258 217.311L227.29 217.971L364.697 1.25838L363.665 0.598939Z" fill="#EF3939"/>
<path d="M344.547 0.625942L223.314 217.345L224.38 217.946L345.614 1.22728L344.547 0.625942Z" fill="#EF3939"/>
<path d="M325.406 0.633826L220.354 217.362L221.454 217.899L326.506 1.17118L325.406 0.633826Z" fill="#EF3939"/>
<path d="M306.294 0.671541L217.408 217.399L218.539 217.867L307.425 1.1391L306.294 0.671541Z" fill="#EF3939"/>
<path d="M287.187 0.716742L214.457 217.438L215.616 217.83L288.346 1.10883L287.187 0.716742Z" fill="#EF3939"/>
<path d="M268.069 0.752298L211.518 217.478L212.701 217.789L269.252 1.0635L268.069 0.752298Z" fill="#EF3939"/>
<path d="M248.993 0.808133L208.558 217.523L209.76 217.749L250.196 1.03424L248.993 0.808133Z" fill="#EF3939"/>
<path d="M229.891 0.851944L205.603 217.567L206.818 217.704L231.106 0.989254L229.891 0.851944Z" fill="#EF3939"/>
<path d="M210.764 0.889083L202.661 217.606L203.883 217.652L211.987 0.935153L210.764 0.889083Z" fill="#EF3939"/>
<path d="M192.889 0.906357L191.667 0.952212L199.733 217.67L200.955 217.624L192.889 0.906357Z" fill="#EF3939"/>
<path d="M173.788 0.842477L172.573 0.979575L196.823 217.699L198.039 217.562L173.788 0.842477Z" fill="#EF3939"/>
<path d="M154.682 0.814242L153.48 1.04013L193.878 217.762L195.08 217.537L154.682 0.814242Z" fill="#EF3939"/>
<path d="M135.567 0.752385L134.384 1.06379L190.972 217.78L192.155 217.468L135.567 0.752385Z" fill="#EF3939"/>
<path d="M116.461 0.729276L115.302 1.12136L188.031 217.843L189.19 217.451L116.461 0.729276Z" fill="#EF3939"/>
<path d="M97.3389 0.672173L96.208 1.13993L185.132 217.852L186.263 217.384L97.3389 0.672173Z" fill="#EF3939"/>
<path d="M78.2363 0.655903L77.1365 1.19326L182.189 217.921L183.289 217.384L78.2363 0.655903Z" fill="#EF3939"/>
<path d="M58.8835 0.607158L57.8194 1.20888L179.13 217.456L180.194 216.854L58.8835 0.607158Z" fill="#EF3939"/>
<path d="M39.9926 0.584898L38.9609 1.24433L176.368 217.956L177.4 217.297L39.9926 0.584898Z" fill="#EF3939"/>
<path d="M20.8759 0.557293L19.8792 1.26917L173.449 217.983L174.445 217.271L20.8759 0.557293Z" fill="#EF3939"/>
<path d="M403.656 512.575L232.562 295.443V217.15L232.695 216.981L403.656 0V512.575ZM233.789 295.014L402.447 509.046V3.52914L233.789 217.561V295.014Z" fill="#EF3939"/>
<path d="M361.815 54.8673H360.592V457.711H361.815V54.8673Z" fill="#EF3939"/>
<path d="M334.418 89.6365H333.195V422.942H334.418V89.6365Z" fill="#EF3939"/>
<path d="M315.089 114.168H313.866V398.411H315.089V114.168Z" fill="#EF3939"/>
<path d="M300.72 132.404H299.497V380.171H300.72V132.404Z" fill="#EF3939"/>
<path d="M289.618 146.492H288.395V366.083H289.618V146.492Z" fill="#EF3939"/>
<path d="M280.784 157.706H279.561V354.873H280.784V157.706Z" fill="#EF3939"/>
<path d="M273.589 166.838H272.365V345.74H273.589V166.838Z" fill="#EF3939"/>
<path d="M267.613 174.422H266.39V338.153H267.613V174.422Z" fill="#EF3939"/>
<path d="M262.57 180.822H261.347V331.753H262.57V180.822Z" fill="#EF3939"/>
<path d="M258.258 186.292H257.035V326.283H258.258V186.292Z" fill="#EF3939"/>
<path d="M254.532 191.024H253.308V321.551H254.532V191.024Z" fill="#EF3939"/>
<path d="M251.275 195.158H250.052V317.421H251.275V195.158Z" fill="#EF3939"/>
<path d="M248.405 198.799H247.182V313.78H248.405V198.799Z" fill="#EF3939"/>
<path d="M245.862 202.029H244.639V310.55H245.862V202.029Z" fill="#EF3939"/>
<path d="M243.584 204.917H242.361V307.662H243.584V204.917Z" fill="#EF3939"/>
<path d="M241.54 207.51H240.317V305.065H241.54V207.51Z" fill="#EF3939"/>
<path d="M239.693 209.858H238.47V302.721H239.693V209.858Z" fill="#EF3939"/>
<path d="M238.014 211.986H236.791V300.589H238.014V211.986Z" fill="#EF3939"/>
<path d="M236.482 213.931H235.259V298.644H236.482V213.931Z" fill="#EF3939"/>
<path d="M235.08 215.713H233.857V296.865H235.08V215.713Z" fill="#EF3939"/>
<path d="M402.577 25.6007L232.728 220.665L233.649 221.473L403.498 26.4089L402.577 25.6007Z" fill="#EF3939"/>
<path d="M402.599 49.8243L232.763 224.372L233.638 225.23L403.474 50.6824L402.599 49.8243Z" fill="#EF3939"/>
<path d="M402.65 74.0488L232.758 228.007L233.577 228.919L403.469 74.9604L402.65 74.0488Z" fill="#EF3939"/>
<path d="M402.669 98.2438L232.793 231.686L233.547 232.653L403.422 99.211L402.669 98.2438Z" fill="#EF3939"/>
<path d="M402.704 122.471L232.839 235.393L233.514 236.417L403.379 123.495L402.704 122.471Z" fill="#EF3939"/>
<path d="M402.748 146.687L232.886 239.089L233.469 240.169L403.33 147.767L402.748 146.687Z" fill="#EF3939"/>
<path d="M402.811 170.847L232.947 242.71L233.422 243.842L403.286 171.978L402.811 170.847Z" fill="#EF3939"/>
<path d="M402.865 195.137L232.991 246.435L233.343 247.611L403.218 196.313L402.865 195.137Z" fill="#EF3939"/>
<path d="M402.934 219.315L233.072 250.123L233.29 251.331L403.151 220.524L402.934 219.315Z" fill="#EF3939"/>
<path d="M402.993 243.585L233.127 253.837L233.201 255.062L403.066 244.811L402.993 243.585Z" fill="#EF3939"/>
<path d="M233.189 257.514L233.115 258.739L402.981 268.991L403.054 267.765L233.189 257.514Z" fill="#EF3939"/>
<path d="M233.302 261.262L233.085 262.47L402.946 293.278L403.164 292.069L233.302 261.262Z" fill="#EF3939"/>
<path d="M233.353 264.97L233 266.146L402.866 317.473L403.219 316.298L233.353 264.97Z" fill="#EF3939"/>
<path d="M233.419 268.709L232.944 269.841L402.808 341.705L403.283 340.573L233.419 268.709Z" fill="#EF3939"/>
<path d="M233.476 272.455L232.894 273.535L402.755 365.936L403.337 364.857L233.476 272.455Z" fill="#EF3939"/>
<path d="M233.516 276.17L232.84 277.194L402.706 390.117L403.381 389.093L233.516 276.17Z" fill="#EF3939"/>
<path d="M233.547 279.88L232.793 280.847L402.669 414.289L403.422 413.322L233.547 279.88Z" fill="#EF3939"/>
<path d="M233.587 283.647L232.768 284.558L402.633 438.547L403.452 437.635L233.587 283.647Z" fill="#EF3939"/>
<path d="M233.615 287.378L232.74 288.236L402.606 462.754L403.481 461.896L233.615 287.378Z" fill="#EF3939"/>
<path d="M233.639 291.15L232.718 291.959L402.567 487.023L403.488 486.215L233.639 291.15Z" fill="#EF3939"/>
<path d="M0 512.568V0L171.983 216.959V295.616L171.851 295.785L0 512.568ZM1.22312 3.52194V509.053L170.76 295.187V217.402L1.22312 3.52194Z" fill="#EF3939"/>
<path d="M43.1429 54.644H41.9198V457.927H43.1429V54.644Z" fill="#EF3939"/>
<path d="M70.6398 89.334H69.4167V423.245H70.6398V89.334Z" fill="#EF3939"/>
<path d="M90.0663 113.836H88.8432V398.739H90.0663V113.836Z" fill="#EF3939"/>
<path d="M104.518 132.069H103.295V380.506H104.518V132.069Z" fill="#EF3939"/>
<path d="M115.691 146.164H114.468V366.411H115.691V146.164Z" fill="#EF3939"/>
<path d="M124.586 157.385H123.363V355.19H124.586V157.385Z" fill="#EF3939"/>
<path d="M131.839 166.532H130.616V346.043H131.839V166.532Z" fill="#EF3939"/>
<path d="M137.861 174.131H136.638V338.444H137.861V174.131Z" fill="#EF3939"/>
<path d="M142.944 180.544H141.721V332.034H142.944V180.544Z" fill="#EF3939"/>
<path d="M147.291 186.025H146.068V326.55H147.291V186.025Z" fill="#EF3939"/>
<path d="M151.05 190.768H149.827V321.807H151.05V190.768Z" fill="#EF3939"/>
<path d="M154.336 194.913H153.113V317.666H154.336V194.913Z" fill="#EF3939"/>
<path d="M157.23 198.564H156.007V314.014H157.23V198.564Z" fill="#EF3939"/>
<path d="M159.799 201.802H158.576V310.77H159.799V201.802Z" fill="#EF3939"/>
<path d="M162.094 204.701H160.871V307.878H162.094V204.701Z" fill="#EF3939"/>
<path d="M164.157 207.305H162.934V305.274H164.157V207.305Z" fill="#EF3939"/>
<path d="M166.025 209.656H164.802V302.919H166.025V209.656Z" fill="#EF3939"/>
<path d="M167.718 211.795H166.495V300.783H167.718V211.795Z" fill="#EF3939"/>
<path d="M169.264 213.747H168.041V298.832H169.264V213.747Z" fill="#EF3939"/>
<path d="M170.681 215.533H169.458V297.045H170.681V215.533Z" fill="#EF3939"/>
<path d="M1.06597 25.5983L0.147648 26.4094L170.919 221.294L171.837 220.483L1.06597 25.5983Z" fill="#EF3939"/>
<path d="M1.0503 49.8193L0.178057 50.6802L170.929 225.069L171.801 224.208L1.0503 49.8193Z" fill="#EF3939"/>
<path d="M1.02269 74.0358L0.205686 74.9497L170.957 228.821L171.774 227.907L1.02269 74.0358Z" fill="#EF3939"/>
<path d="M0.990139 98.249L0.239128 99.2182L170.989 232.577L171.74 231.608L0.990139 98.249Z" fill="#EF3939"/>
<path d="M0.943572 122.452L0.271157 123.477L171.031 236.307L171.704 235.281L0.943572 122.452Z" fill="#EF3939"/>
<path d="M0.899991 146.664L0.320122 147.746L171.082 240.058L171.662 238.976L0.899991 146.664Z" fill="#EF3939"/>
<path d="M0.842073 170.869L0.369668 172.002L171.137 243.79L171.609 242.658L0.842073 170.869Z" fill="#EF3939"/>
<path d="M0.788728 195.114L0.438068 196.29L171.195 247.593L171.546 246.417L0.788728 195.114Z" fill="#EF3939"/>
<path d="M0.721939 219.335L0.505763 220.544L171.264 251.329L171.481 250.12L0.721939 219.335Z" fill="#EF3939"/>
<path d="M0.64379 243.544L0.570825 244.77L171.331 255.015L171.404 253.789L0.64379 243.544Z" fill="#EF3939"/>
<path d="M171.315 257.568L0.553199 267.783L0.62595 269.009L171.388 258.794L171.315 257.568Z" fill="#EF3939"/>
<path d="M171.264 261.265L0.505449 292.05L0.721627 293.258L171.48 262.473L171.264 261.265Z" fill="#EF3939"/>
<path d="M171.209 264.999L0.45217 316.302L0.802833 317.478L171.56 266.175L171.209 264.999Z" fill="#EF3939"/>
<path d="M171.135 268.774L0.367628 340.563L0.840029 341.695L171.607 269.907L171.135 268.774Z" fill="#EF3939"/>
<path d="M171.063 272.536L0.301002 364.848L0.880866 365.929L171.643 273.617L171.063 272.536Z" fill="#EF3939"/>
<path d="M171.043 276.254L0.282983 389.084L0.955392 390.11L171.716 277.28L171.043 276.254Z" fill="#EF3939"/>
<path d="M171.014 280.041L0.217194 413.34L0.967874 414.31L171.764 281.011L171.014 280.041Z" fill="#EF3939"/>
<path d="M170.952 283.776L0.199901 437.647L1.01689 438.561L171.769 284.69L170.952 283.776Z" fill="#EF3939"/>
<path d="M170.961 287.504L0.179942 461.863L1.05204 462.724L171.833 288.366L170.961 287.504Z" fill="#EF3939"/>
<path d="M170.909 291.294L0.138068 486.179L1.0564 486.99L171.828 292.105L170.909 291.294Z" fill="#EF3939"/>
</svg>
