<svg width="512" height="249" viewBox="0 0 512 249" fill="none" xmlns="http://www.w3.org/2000/svg">
<path d="M149.349 248.962L149.213 248.792L0 65.5615L0.496601 65.4505L296.618 0L296.724 0.0628809L512 128.436L511.348 128.646L149.349 248.962ZM1.13789 65.9555L149.563 248.228L510.487 128.273L296.517 0.666441L1.13789 65.9555Z" fill="#EF3939"/>
<path d="M493.835 117.722L136.369 232.354L136.561 232.953L494.027 118.321L493.835 117.722Z" fill="#EF3939"/>
<path d="M477.05 107.709L124.588 217.826L124.776 218.426L477.237 108.309L477.05 107.709Z" fill="#EF3939"/>
<path d="M113.335 204.552L113.033 203.548C113.431 203.429 153.316 191.427 188.105 180.896C214.433 172.932 242.383 166.385 267.029 160.614C274.852 158.782 282.243 157.051 288.905 155.429C306.275 151.2 323.241 144.785 344.722 136.662C356.527 132.196 369.908 127.137 385.284 121.73C427.722 106.807 460.614 98.0177 460.939 97.9317L461.209 98.9439C460.882 99.032 428.026 107.809 385.63 122.717C370.264 128.122 356.89 133.179 345.089 137.641C323.577 145.776 306.583 152.204 289.153 156.448C282.484 158.072 275.091 159.801 267.265 161.634C242.628 167.402 214.701 173.938 188.407 181.898C153.618 192.431 113.733 204.433 113.335 204.552Z" fill="#EF3939"/>
<path d="M102.412 191.209L102.058 190.004C102.578 189.851 154.318 174.718 176.352 168.948C198.925 163.036 211.472 161.345 227.992 161.993C259.958 163.25 277.66 156.466 290.595 151.514C293.153 150.536 295.57 149.609 297.885 148.823C310.076 144.691 321.055 138.504 332.674 131.955C343.507 125.852 355.785 118.935 370.771 112.742C394.755 102.827 445.055 88.8216 445.56 88.6812L445.896 89.8925C445.393 90.033 395.165 104.02 371.251 113.903C356.334 120.068 344.619 126.668 333.29 133.051C321.615 139.63 310.585 145.835 298.292 150.016C295.999 150.793 293.594 151.713 291.047 152.688C279.085 157.267 263.064 163.397 235.591 163.397C233.135 163.397 230.591 163.349 227.944 163.244C211.566 162.605 199.107 164.292 176.673 170.16C154.653 175.929 102.932 191.056 102.412 191.209Z" fill="#EF3939"/>
<path d="M430.738 80.68C427.097 81.6189 423.464 82.5969 419.84 83.614C416.216 84.6311 412.6 85.6726 408.993 86.7387C401.786 88.8951 394.612 91.171 387.539 93.711C386.65 94.0191 385.772 94.3397 384.894 94.6834L382.26 95.6789C381.386 96.0226 380.521 96.3809 379.651 96.7267C378.781 97.0725 377.907 97.4225 377.056 97.8144L374.487 98.9502C373.636 99.3421 372.794 99.7613 371.949 100.166C370.25 100.962 368.596 101.842 366.92 102.695C366.081 103.114 365.266 103.584 364.44 104.028C363.615 104.472 362.789 104.919 361.978 105.39C360.356 106.335 358.721 107.255 357.131 108.251C353.916 110.189 350.783 112.26 347.688 114.385C341.503 118.648 335.543 123.235 329.61 127.867C326.64 130.172 323.685 132.509 320.678 134.795C317.671 137.081 314.498 139.171 311.281 141.162L310.074 141.906L309.468 142.277L306.413 144.056L303.927 145.424C303.508 145.648 303.104 145.885 302.683 146.099L301.425 146.749C298.072 148.513 294.635 150.081 291.156 151.569C284.176 154.48 276.947 156.844 269.525 158.394C268.596 158.583 267.659 158.732 266.727 158.902L264.627 159.273C264.392 159.314 264.157 159.338 263.925 159.369L258.3 160.1C256.414 160.289 254.528 160.448 252.654 160.622L251.948 160.687L251.24 160.725L249.825 160.802L246.994 160.953C239.44 161.256 231.875 161.09 224.341 160.457L221.521 160.201C220.582 160.113 219.635 160.035 218.704 159.926C216.828 159.717 214.951 159.528 213.081 159.298C209.336 158.853 205.606 158.348 201.874 157.904L199.076 157.579L196.278 157.309C195.813 157.259 195.345 157.229 194.88 157.2L193.482 157.11C192.55 157.03 191.621 157.032 190.691 157.013C190.226 157.013 189.763 156.986 189.293 156.995L187.887 157.02C186.948 157.03 186.001 157.06 185.072 157.091C184.144 157.122 183.199 157.16 182.262 157.206C181.325 157.252 180.391 157.309 179.454 157.37C175.715 157.618 171.989 158.015 168.275 158.56C164.566 159.099 160.876 159.784 157.204 160.566C153.532 161.347 149.884 162.242 146.246 163.185C145.338 163.424 144.427 163.655 143.521 163.904L135.348 166.134L91.7409 177.966L91.5313 177.18L135.048 165.055L140.497 163.546L143.221 162.787C144.129 162.533 145.043 162.301 145.946 162.056C149.59 161.09 153.254 160.17 156.944 159.379C160.635 158.589 164.348 157.871 168.089 157.311C171.83 156.751 175.591 156.345 179.364 156.085C180.307 156.022 181.25 155.957 182.193 155.917C183.136 155.878 184.079 155.823 185.024 155.798C185.969 155.773 186.91 155.733 187.858 155.722L189.272 155.695C189.744 155.685 190.224 155.695 190.699 155.71C191.651 155.729 192.606 155.727 193.55 155.804L194.97 155.896C195.444 155.924 195.918 155.953 196.387 156.005L199.212 156.274L202.024 156.596C205.769 157.036 209.502 157.537 213.234 157.973C215.102 158.206 216.969 158.392 218.838 158.602C219.771 158.709 220.705 158.784 221.64 158.87L224.446 159.122C231.925 159.736 239.434 159.9 246.933 159.612L249.741 159.465L251.847 159.352L252.547 159.289C254.415 159.117 256.284 158.962 258.149 158.778L263.726 158.057C263.958 158.026 264.193 158.003 264.424 157.961L265.113 157.839L266.494 157.598C267.414 157.43 268.336 157.286 269.252 157.099C276.587 155.576 283.729 153.247 290.645 150.37C294.086 148.891 297.502 147.342 300.819 145.596L302.077 144.953C302.496 144.743 302.9 144.506 303.313 144.284L305.778 142.93L308.209 141.518L308.815 141.164L310.604 140.074C313.792 138.106 316.914 136.023 319.909 133.787C322.904 131.551 325.869 129.199 328.843 126.894C334.793 122.284 340.788 117.688 347.017 113.421C350.133 111.294 353.291 109.23 356.531 107.276C358.134 106.281 359.784 105.357 361.418 104.412C362.236 103.94 363.074 103.504 363.902 103.047C364.73 102.59 365.553 102.134 366.4 101.714C368.076 100.855 369.753 99.9771 371.467 99.1808C372.32 98.7763 373.167 98.3571 374.026 97.9653L376.625 96.8231C377.486 96.4312 378.366 96.0917 379.242 95.7396C380.118 95.3876 380.996 95.0334 381.874 94.6918L384.53 93.7068C385.412 93.3757 386.296 93.0467 387.189 92.7428C394.314 90.228 401.501 87.9814 408.731 85.8585C412.348 84.8036 415.973 83.7788 419.607 82.7841C423.241 81.7893 426.885 80.8281 430.538 79.9004L430.738 80.68Z" fill="#EF3939"/>
<path d="M81.8891 166.035L81.4322 164.64C81.8073 164.518 119.245 152.321 141.063 149.808C169.713 146.508 185.005 150.705 201.199 155.15C204.095 155.945 207.092 156.768 210.185 157.552L209.823 158.975C206.717 158.185 203.714 157.361 200.811 156.565C184.76 152.164 169.6 147.998 141.233 151.265C119.559 153.761 82.2621 165.912 81.8891 166.035Z" fill="#EF3939"/>
<path d="M282.04 154.662L281.776 154.09C281.973 154 301.568 144.829 320.756 124.602C339.646 104.682 350.049 93.7089 371.446 85.7977C392.263 78.1023 416.277 71.6686 416.518 71.6036L416.68 72.2114C416.439 72.2763 392.451 78.708 371.666 86.3887C350.406 94.2496 340.036 105.183 321.213 125.033C301.934 145.355 282.237 154.572 282.04 154.662Z" fill="#EF3939"/>
<path d="M402.542 63.7656C398.56 64.7988 394.6 65.9514 390.658 67.1439C386.716 68.3363 382.797 69.6126 378.907 70.9622C375.017 72.3118 371.153 73.7537 367.345 75.2919C363.537 76.8302 359.754 78.469 356.079 80.2943C355.161 80.7554 354.239 81.208 353.337 81.6984C352.887 81.9394 352.43 82.1742 351.982 82.4215L349.974 83.5531L348.002 84.7414C347.568 85.0117 347.143 85.2967 346.713 85.5797C346.283 85.8626 345.854 86.1329 345.443 86.4326L344.186 87.3149C343.777 87.6188 343.381 87.9436 342.976 88.2475L342.375 88.7148L341.784 89.2094L340.6 90.1944C339.81 90.8503 339.043 91.5335 338.263 92.202C337.484 92.8706 336.731 93.5705 335.958 94.2537L333.695 96.3494L331.469 98.4807C330.002 99.9142 328.535 101.362 327.102 102.836C324.228 105.77 321.426 108.794 318.662 111.847C313.13 117.95 307.746 124.212 302.058 130.214C299.216 133.217 296.301 136.159 293.246 138.963C290.202 141.786 287 144.434 283.656 146.893C280.306 149.359 276.787 151.586 273.125 153.558C269.449 155.521 265.594 157.128 261.611 158.355C257.63 159.579 253.528 160.368 249.377 160.71C245.244 161.039 241.091 161.043 236.958 160.723L236.987 160.155C241.099 160.283 245.215 160.228 249.282 159.765L250.047 159.683C250.301 159.654 250.552 159.61 250.806 159.574L252.323 159.352C252.832 159.289 253.331 159.18 253.834 159.088L255.339 158.803C255.84 158.698 256.334 158.568 256.831 158.453C257.328 158.338 257.826 158.223 258.319 158.093L260.521 157.464L260.888 157.357C261.01 157.319 261.131 157.275 261.251 157.233C265.131 155.953 268.888 154.324 272.475 152.367C276.074 150.427 279.481 148.142 282.794 145.743C286.086 143.301 289.244 140.683 292.254 137.903C295.285 135.136 298.185 132.223 301.018 129.243C306.677 123.283 312.082 117.042 317.642 110.938C323.201 104.833 328.918 98.837 335.09 93.3148C335.868 92.6317 336.637 91.9401 337.423 91.2653C338.209 90.5904 338.99 89.9136 339.791 89.2576L341.591 87.7801L342.22 87.3023C342.639 86.9859 343.046 86.6736 343.467 86.3551L344.749 85.4602C345.168 85.1563 345.615 84.8797 346.053 84.5989C346.491 84.3181 346.927 84.0331 347.369 83.7606L349.379 82.5682L351.422 81.4365C351.877 81.1892 352.34 80.9545 352.799 80.7135C353.713 80.2252 354.645 79.7746 355.574 79.3156C363.03 75.6964 370.78 72.775 378.607 70.1407C386.435 67.5064 394.369 65.2012 402.393 63.2249L402.542 63.7656Z" fill="#EF3939"/>
<path d="M195.612 155.146C195.377 155.048 171.876 145.296 157.087 142.153C144.081 139.399 125.718 137.821 72.1231 154.063L71.704 152.658C95.3245 145.502 113.737 141.254 127.996 139.665C142.169 138.098 150.812 139.313 157.395 140.713C172.32 143.873 195.955 153.683 196.184 153.784L195.612 155.146Z" fill="#EF3939"/>
<path d="M62.4746 141.671C69.6816 139.255 76.9831 137.153 84.3473 135.283C91.7116 133.414 99.1491 131.811 106.66 130.599C110.416 129.994 114.192 129.524 117.989 129.189C121.79 128.844 125.606 128.708 129.421 128.782L130.855 128.818C131.333 128.843 131.808 128.879 132.286 128.908L133.72 129.002L135.149 129.16C135.625 129.214 136.102 129.258 136.578 129.323L137.999 129.558C138.953 129.694 139.885 129.91 140.82 130.109C144.545 130.954 148.218 132.016 151.82 133.288C159.025 135.803 166 138.833 173.003 141.727C180.007 144.622 187.059 147.386 194.304 149.507C197.918 150.572 201.586 151.448 205.292 152.133C206.22 152.286 207.146 152.455 208.075 152.592L210.872 152.962L213.679 153.229C214.615 153.302 215.554 153.335 216.491 153.392C220.244 153.545 224.004 153.411 227.736 152.994L229.132 152.822L229.832 152.738C230.065 152.711 230.295 152.663 230.526 152.627L233.303 152.156L236.058 151.567C236.52 151.479 236.97 151.342 237.427 151.231L238.789 150.877C246.053 148.884 253.034 145.972 259.562 142.214C266.113 138.485 272.257 134.059 278.06 129.22C283.863 124.381 289.329 119.14 294.602 113.712C297.24 110.988 299.83 108.23 302.427 105.462L310.25 97.1899C312.865 94.4361 315.489 91.6782 318.189 89.0041L319.201 87.9961C319.538 87.6608 319.888 87.338 320.232 87.0069C320.923 86.3531 321.605 85.6866 322.304 85.0412L324.425 83.1236C324.601 82.9643 324.775 82.8008 324.956 82.6458L327.686 80.3342C328.055 80.0324 328.434 79.7432 328.81 79.4477L329.935 78.5634C330.312 78.2721 330.677 77.964 331.071 77.6916L333.395 76.015C333.776 75.7279 334.179 75.4701 334.579 75.2103L336.976 73.6427C337.381 73.3891 337.798 73.1565 338.209 72.9113C339.034 72.4314 339.852 71.9389 340.684 71.4695L343.222 70.145C344.06 69.686 344.934 69.3067 345.801 68.9043C349.251 67.2613 352.857 65.9955 356.47 64.7905C360.094 63.6588 363.719 62.5313 367.358 61.4374C370.996 60.3434 374.64 59.2872 378.301 58.275C380.131 57.7679 381.967 57.2837 383.805 56.808C385.642 56.3323 387.487 55.8775 389.352 55.4772L389.436 55.8775C387.596 56.2967 385.76 56.7912 383.932 57.29C382.105 57.7888 380.28 58.3043 378.461 58.8387C374.818 59.895 371.186 60.9903 367.563 62.1248C363.942 63.2481 360.333 64.4175 356.726 65.5889C353.164 66.8254 349.601 68.1184 346.214 69.7803C344.487 70.5432 342.848 71.4799 341.185 72.3517C340.367 72.8191 339.565 73.3137 338.753 73.7936C338.349 74.0367 337.938 74.2693 337.542 74.5229L335.187 76.0863C334.793 76.3461 334.399 76.6039 334.022 76.8889L331.739 78.5655C331.352 78.8358 330.995 79.1439 330.622 79.4331L329.516 80.3154C329.149 80.6109 328.776 80.9001 328.411 81.1997L327.338 82.1218L326.265 83.0461L325.729 83.5071C325.551 83.6622 325.379 83.8235 325.205 83.9828L323.109 85.8983C322.42 86.5438 321.747 87.2081 321.066 87.864C320.728 88.1931 320.385 88.5179 320.049 88.8532L319.052 89.8612C316.378 92.5374 313.79 95.31 311.199 98.0742L303.435 106.398C300.853 109.177 298.263 111.958 295.624 114.695C290.351 120.173 284.873 125.482 279.026 130.379C273.179 135.277 266.964 139.753 260.322 143.547C257.007 145.452 253.577 147.152 250.053 148.637C246.524 150.127 242.899 151.379 239.202 152.384L237.81 152.742C237.345 152.856 236.884 152.994 236.415 153.084L233.602 153.681L230.767 154.159C230.53 154.195 230.295 154.243 230.056 154.27L229.342 154.356L227.915 154.53C224.102 154.951 220.263 155.083 216.43 154.924C215.475 154.865 214.517 154.83 213.561 154.752L210.701 154.48L207.855 154.098C206.91 153.956 205.969 153.784 205.023 153.627C201.265 152.933 197.546 152.036 193.885 150.94C186.55 148.775 179.469 145.961 172.461 143.031L161.967 138.63C158.47 137.178 154.955 135.771 151.395 134.508C147.848 133.226 144.23 132.152 140.558 131.293L139.181 130.987C138.722 130.876 138.259 130.817 137.798 130.733L136.415 130.495C135.949 130.428 135.482 130.381 135.017 130.325L133.619 130.161L132.213 130.059C131.743 130.027 131.274 129.987 130.804 129.96L129.392 129.916C125.617 129.816 121.839 129.924 118.075 130.239C114.303 130.539 110.55 130.993 106.807 131.557C99.3189 132.678 91.8855 134.2 84.5171 135.973C80.8301 136.861 77.1604 137.813 73.5084 138.829C69.8535 139.837 66.2112 140.9 62.6108 142.056L62.4746 141.671Z" fill="#EF3939"/>
<path d="M53.8194 130.97C60.7771 128.665 67.8207 126.701 74.9271 124.945C78.4814 124.069 82.0504 123.258 85.634 122.512C89.2197 121.768 92.8201 121.095 96.4394 120.523C103.678 119.394 110.988 118.587 118.344 118.524C122.03 118.472 125.715 118.674 129.373 119.13C131.211 119.371 133.02 119.698 134.822 120.062C136.624 120.427 138.418 120.838 140.197 121.286C143.76 122.181 147.283 123.223 150.774 124.331C154.266 125.44 157.728 126.622 161.19 127.781C168.106 130.096 175.055 132.33 182.164 133.781C185.711 134.516 189.299 135.037 192.908 135.342C196.513 135.638 200.134 135.685 203.745 135.48C207.357 135.272 210.95 134.812 214.498 134.101C214.942 134.011 215.389 133.944 215.831 133.837L219.815 132.919C220.697 132.71 221.592 132.534 222.462 132.276L225.09 131.555C232.095 129.639 238.919 127.114 245.485 124.011C252.04 120.879 258.305 117.172 264.206 112.935C270.124 108.712 275.732 104.06 281.267 99.2961C286.801 94.5326 292.259 89.6873 297.756 84.8589C300.502 82.4474 303.28 80.0639 306.09 77.7084L308.217 75.969L309.282 75.1013L310.365 74.2526C311.09 73.6889 311.803 73.1146 312.536 72.5614L314.743 70.9163C315.108 70.6375 315.483 70.3714 315.86 70.1094L318.115 68.5251C318.494 68.2694 318.884 68.0221 319.268 67.7685L320.423 67.0162C320.808 66.7647 321.188 66.5069 321.588 66.2764L323.956 64.8597C324.754 64.4007 325.576 63.9795 326.385 63.5373C327.194 63.0951 328.03 62.6991 328.862 62.3093L330.119 61.7162C330.538 61.5276 330.972 61.3641 331.398 61.186L332.68 60.6641L333.321 60.4064L333.969 60.1716C337.408 58.9142 340.885 57.7595 344.364 56.6278C347.842 55.4962 351.344 54.4357 354.842 53.3816C361.847 51.2859 368.884 49.2999 375.952 47.4236L376.12 48.0355C372.603 49.0205 369.094 50.0348 365.593 51.0784C362.091 52.1263 358.591 53.1741 355.115 54.2513C351.638 55.3285 348.149 56.4413 344.689 57.6044C341.229 58.7675 337.773 59.9495 334.371 61.2446L333.73 61.4835L331.844 62.2631C331.425 62.4392 331.006 62.6005 330.587 62.7892L329.365 63.3802C328.552 63.7783 327.726 64.1493 326.94 64.6019C326.154 65.0546 325.345 65.4612 324.562 65.9159L322.237 67.3284C321.845 67.5569 321.472 67.8146 321.093 68.064L319.957 68.8164C319.58 69.0678 319.199 69.313 318.824 69.5708L316.604 71.151C316.233 71.4129 315.862 71.677 315.504 71.9557L313.327 73.6008C312.604 74.1541 311.899 74.7304 311.185 75.2921L310.116 76.1303L306.972 78.7457C304.192 81.1013 301.439 83.4946 298.713 85.9256L290.54 93.2228C287.816 95.66 285.049 98.0617 282.291 100.459C276.765 105.248 271.128 109.955 265.159 114.243L264.604 114.662L264.036 115.051L262.898 115.829C262.139 116.347 261.385 116.877 260.62 117.382L258.29 118.849C257.512 119.339 256.743 119.842 255.938 120.291L253.553 121.678C253.153 121.904 252.763 122.15 252.354 122.361L248.693 124.291C248.289 124.513 247.874 124.711 247.457 124.903L246.2 125.494C239.55 128.65 232.638 131.22 225.542 133.175C223.769 133.655 222.005 134.173 220.207 134.55L217.52 135.166L216.177 135.472C215.73 135.581 215.273 135.65 214.821 135.74C207.567 137.183 200.146 137.6 192.776 136.981C189.101 136.671 185.449 136.133 181.841 135.371C174.621 133.875 167.626 131.599 160.702 129.252C153.777 126.905 146.889 124.499 139.847 122.682C138.089 122.226 136.32 121.812 134.543 121.439C132.768 121.066 130.981 120.733 129.195 120.486C125.602 120.015 121.98 119.793 118.356 119.821C111.09 119.832 103.827 120.59 96.6197 121.661C93.0151 122.189 89.423 122.822 85.8436 123.524C82.2641 124.226 78.6994 124.991 75.1555 125.83C71.6117 126.668 68.0659 127.565 64.543 128.518C61.0202 129.472 57.5078 130.476 54.0332 131.572L53.8194 130.97Z" fill="#EF3939"/>
<path d="M363.99 40.7237C360.561 41.5116 357.141 42.3646 353.736 43.2552C352.03 43.6891 350.33 44.1543 348.631 44.607L346.084 45.3132L344.812 45.6674L343.555 46.0341C336.79 47.981 330.069 50.0935 323.468 52.514C322.629 52.8032 321.822 53.1427 321.001 53.4424L318.538 54.3854L316.107 55.3956C315.299 55.7372 314.479 56.0536 313.687 56.4287C312.096 57.1643 310.483 57.8601 308.934 58.6711C307.385 59.4822 305.841 60.3141 304.323 61.186C301.289 62.9463 298.323 64.8345 295.389 66.771C292.456 68.7074 289.551 70.7004 286.657 72.7039C275.097 80.7471 263.558 88.9224 251.24 95.9115C248.163 97.6552 245.043 99.3275 241.855 100.874C238.668 102.421 235.444 103.896 232.139 105.183C231.32 105.524 230.484 105.812 229.654 106.13C228.824 106.449 227.992 106.759 227.139 107.023C226.286 107.287 225.463 107.593 224.612 107.861L222.059 108.62C221.64 108.752 221.206 108.861 220.779 108.976L216.937 110.001C216.086 110.238 215.225 110.439 214.366 110.648L211.79 111.277C211.359 111.38 210.931 111.487 210.499 111.585L209.202 111.864L206.61 112.426C205.746 112.62 204.877 112.778 204.005 112.941L201.396 113.429L200.744 113.553L200.088 113.656L196.152 114.284C195.274 114.402 194.394 114.494 193.516 114.616L192.196 114.781C191.758 114.836 191.318 114.892 190.875 114.926C183.816 115.659 176.706 115.768 169.627 115.251C162.556 114.691 155.55 113.526 148.649 111.994C141.748 110.462 134.916 108.888 127.952 108.094C120.988 107.3 113.957 107.308 106.958 107.832C105.212 107.993 103.464 108.176 101.718 108.345L100.409 108.473L93.8806 109.372C93.671 109.404 93.4447 109.429 93.2268 109.464L92.5771 109.575L91.2777 109.8L86.0783 110.69L85.4286 110.803L84.7811 110.931L78.3117 112.224L77.0166 112.484C76.5975 112.57 76.1574 112.675 75.7278 112.769L70.5786 113.934C68.8622 114.326 67.1416 114.697 65.4358 115.139L60.3097 116.416L57.7467 117.044C57.3275 117.153 56.8917 117.254 56.4662 117.367L55.19 117.711L44.9776 120.435L44.8603 120.016L56.3069 116.768C56.7261 116.65 57.1578 116.544 57.5833 116.43L65.2598 114.421C66.9615 113.958 68.6799 113.566 70.3962 113.163L75.5412 111.935C75.9708 111.835 76.3983 111.726 76.83 111.631L83.3015 110.259L84.5967 109.982L85.2442 109.846L85.896 109.726L91.108 108.785L92.4115 108.553L93.0633 108.435C93.2728 108.398 93.4992 108.37 93.7171 108.337L98.9626 107.576L100.275 107.388L101.593 107.247C103.351 107.063 105.109 106.866 106.87 106.692C113.917 106.111 121.041 106.036 128.097 106.803C131.618 107.211 135.13 107.721 138.598 108.417C139.466 108.588 140.338 108.739 141.201 108.928L143.789 109.479C145.518 109.844 147.235 110.229 148.957 110.604C155.821 112.101 162.755 113.226 169.742 113.748C176.732 114.239 183.75 114.119 190.718 113.39C191.156 113.356 191.59 113.302 192.024 113.245L193.327 113.082C194.197 112.97 195.067 112.872 195.934 112.748L199.832 112.12L200.48 112.017L201.127 111.895L203.711 111.407C204.575 111.244 205.438 111.089 206.293 110.892L210.152 110.053C210.571 109.961 211.007 109.844 211.432 109.747L213.993 109.119C214.846 108.909 215.701 108.712 216.548 108.477L219.094 107.802L220.368 107.463C220.787 107.35 221.219 107.241 221.625 107.113L224.14 106.369C224.979 106.107 225.802 105.82 226.632 105.548C227.462 105.275 228.283 104.971 229.105 104.669C229.926 104.368 230.75 104.074 231.559 103.737C234.824 102.479 238.014 101.012 241.17 99.4889C244.326 97.9653 247.421 96.3013 250.483 94.5871C253.545 92.8728 256.561 91.0663 259.547 89.2137C262.533 87.3611 265.488 85.4415 268.42 83.503C271.352 81.5645 274.265 79.5819 277.17 77.591L285.892 71.6183C288.807 69.6316 291.73 67.6575 294.694 65.7315C297.657 63.8056 300.652 61.932 303.728 60.1779C305.269 59.304 306.824 58.4574 308.412 57.6631C310.001 56.8688 311.623 56.1605 313.232 55.4312C314.035 55.0561 314.863 54.7459 315.68 54.4064L318.136 53.4088L320.62 52.4784L321.86 52.0152C322.279 51.8581 322.688 51.7051 323.107 51.5647C329.769 49.2154 336.53 47.1805 343.333 45.3111C350.135 43.4417 356.986 41.7631 363.887 40.2814L363.99 40.7237Z" fill="#EF3939"/>
<path d="M37.1167 110.481C43.707 108.664 50.3189 106.926 56.9524 105.265C63.586 103.603 70.2363 102.014 76.9034 100.497C83.5761 99.0047 90.276 97.609 97.022 96.4354L102.096 95.6202L104.648 95.2828L105.922 95.113C106.342 95.0585 106.773 94.9977 107.201 94.96C110.627 94.5996 114.06 94.455 117.486 94.3858C124.341 94.2622 131.18 94.4298 138.012 94.5954C144.844 94.7609 151.669 94.8888 158.493 94.8531C161.905 94.8427 165.312 94.7672 168.72 94.6436C172.127 94.5199 175.529 94.3292 178.926 94.0798C182.323 93.8305 185.707 93.4679 189.081 93.0152C189.92 92.9104 190.758 92.7721 191.596 92.6527L192.854 92.4661C193.273 92.4012 193.692 92.3236 194.111 92.2566C194.949 92.1099 195.788 91.9737 196.626 91.8186L199.124 91.3219C199.962 91.1668 200.784 90.9594 201.614 90.7749C202.444 90.5905 203.269 90.404 204.089 90.1819L206.553 89.5532L208.995 88.8385C209.812 88.6122 210.617 88.3251 211.426 88.061L213.85 87.2584C215.464 86.7156 217.09 86.2105 218.67 85.5944L223.463 83.8214L224.061 83.5972L230.568 80.9461L235.241 78.8777C236.019 78.5298 236.805 78.1987 237.569 77.8298L242.18 75.6378C242.953 75.2815 243.708 74.8833 244.473 74.5061L246.757 73.3577C247.516 72.97 248.285 72.599 249.037 72.2008L251.302 71.0105C252.811 70.2162 254.324 69.4282 255.821 68.6067C261.831 65.371 267.766 61.9948 273.796 58.757C279.825 55.5191 285.921 52.3735 292.257 49.7246C293.822 49.0225 295.446 48.4671 297.049 47.8384C298.652 47.2097 300.279 46.69 301.899 46.1325C305.143 45.0407 308.408 44.0159 311.681 43.0205C318.235 41.0526 324.834 39.2482 331.463 37.5717C334.774 36.7334 338.098 35.9182 341.423 35.1281C344.749 34.338 348.086 33.594 351.435 32.8878L351.535 33.3614C348.207 34.1159 344.886 34.9185 341.572 35.7442C338.259 36.5699 334.95 37.4208 331.651 38.2989C325.05 40.0529 318.482 41.9244 311.966 43.9572C308.708 44.9715 305.459 46.0152 302.234 47.1259C300.625 47.6896 299 48.2198 297.424 48.8527C295.848 49.4856 294.237 50.0389 292.688 50.7494C286.428 53.4151 280.38 56.5775 274.395 59.8551L269.948 62.3113L265.476 64.8135L260.993 67.3011C259.499 68.1394 257.992 68.9441 256.491 69.7656C254.991 70.5872 253.478 71.3877 251.965 72.1862L249.695 73.3849C248.941 73.7873 248.169 74.1624 247.407 74.5522L245.116 75.7111C244.349 76.0925 243.592 76.4928 242.811 76.8553L238.173 79.0684C237.406 79.4477 236.616 79.7809 235.834 80.133L231.138 82.2287L228.761 83.2053L224.599 84.9112L223.996 85.1396L219.176 86.9356C217.579 87.5643 215.942 88.0715 214.318 88.6122L211.88 89.4253C211.065 89.6935 210.261 89.9827 209.429 90.2133L206.954 90.9468L204.458 91.5965C203.619 91.8249 202.781 92.003 201.943 92.1937C201.104 92.3844 200.266 92.5877 199.428 92.7428L196.898 93.2416C196.06 93.3945 195.207 93.5308 194.36 93.6775C193.941 93.7487 193.522 93.8262 193.09 93.887L191.816 94.0735C190.966 94.193 190.119 94.3313 189.268 94.434C185.865 94.8825 182.449 95.2115 179.031 95.4818C175.612 95.7522 172.19 95.9156 168.762 96.0288C165.333 96.142 161.915 96.2028 158.493 96.207C151.648 96.2279 144.808 96.0728 137.976 95.9052C131.144 95.7375 124.314 95.5196 117.501 95.6034C114.096 95.6495 110.692 95.771 107.318 96.1064C106.899 96.1399 106.48 96.1965 106.061 96.251L102.27 96.7288L97.2169 97.5063C90.4897 98.6275 83.8045 99.9918 77.1192 101.421C63.7634 104.284 50.4852 107.528 37.2551 110.942L37.1167 110.481Z" fill="#EF3939"/>
<path d="M339.925 26.3807C326.884 29.3021 313.876 32.4079 300.966 35.8637C294.511 37.5822 288.071 39.3719 281.703 41.367C280.902 41.6059 280.112 41.87 279.318 42.1277L275.751 43.2929L271.038 44.9695L269.87 45.418L267.538 46.317C266.758 46.6083 265.991 46.9457 265.222 47.2538L262.917 48.2094C256.781 50.8207 250.762 53.7274 244.684 56.5419C238.607 59.3564 232.473 62.0619 226.2 64.4363C219.928 66.8108 213.551 68.8918 207.107 70.7402L202.261 72.0772C201.859 72.1925 201.452 72.2868 201.046 72.3937L199.826 72.6997L194.949 73.9152C194.136 74.1247 193.315 74.2819 192.497 74.4663L187.587 75.5267C181.013 76.8428 174.399 77.9535 167.747 78.7897C161.096 79.6259 154.412 80.154 147.731 80.5606C141.05 80.9672 134.369 81.248 127.709 81.6964L125.213 81.8662L120.23 82.2853L117.744 82.5536L115.261 82.826L112.788 83.1718C111.964 83.2892 111.136 83.3814 110.315 83.5239L107.857 83.9556C107.037 84.1023 106.216 84.2343 105.396 84.3936L100.486 85.3786L98.0343 85.892C94.7629 86.5689 91.4978 87.2836 88.2327 87.9877C81.7026 89.417 75.187 90.907 68.6694 92.3886C55.6364 95.3666 42.6284 98.4662 29.6246 101.574L29.5157 101.134C35.9955 99.4812 42.4817 97.8577 48.9742 96.2636C55.4666 94.6695 61.9632 93.0921 68.4641 91.5315C74.9691 89.9807 81.4832 88.4683 88.0064 86.9943C91.2715 86.265 94.5344 85.5274 97.8058 84.8337L100.258 84.3056L105.174 83.2871C105.996 83.1236 106.824 82.9832 107.649 82.8302C114.253 81.6147 120.938 80.9148 127.619 80.4558C134.3 79.9968 140.981 79.7076 147.646 79.2801C154.31 78.8526 160.959 78.2931 167.58 77.4757C174.2 76.6584 180.772 75.5142 187.309 74.1918L192.189 73.1083C193.003 72.9239 193.82 72.7541 194.629 72.5571L199.487 71.3563L200.702 71.0566C201.107 70.9581 201.511 70.8471 201.911 70.7423L206.731 69.422C213.144 67.5987 219.494 65.5513 225.731 63.1936C231.968 60.836 238.085 58.1786 244.148 55.3746C250.211 52.5705 256.244 49.668 262.437 47.0945L264.767 46.1473C265.545 45.8329 266.316 45.5081 267.104 45.221L270.633 43.886L271.821 43.4669L274.198 42.6454L275.386 42.2262L278.978 41.0799C279.775 40.8263 280.571 40.5664 281.376 40.3338C287.78 38.3702 294.239 36.6224 300.715 34.9416C307.19 33.2609 313.708 31.7059 320.215 30.1991C326.722 28.6923 333.261 27.2504 339.814 25.9008L339.925 26.3807Z" fill="#EF3939"/>
<path d="M21.9607 91.9066C47.4213 85.3555 72.9635 79.1229 98.6462 73.4645C101.861 72.775 105.072 72.073 108.286 71.3982L115.533 69.906L122.801 68.5124C124.419 68.2106 126.043 67.9403 127.663 67.6532L130.094 67.234L132.525 66.8296L137.387 66.0269C143.868 64.9497 150.344 63.8418 156.814 62.7032C163.281 61.5547 169.74 60.3623 176.174 59.0587L180.994 58.0612L185.814 57.0133L190.613 55.9236L195.396 54.773L200.159 53.545L202.529 52.8932C203.32 52.6836 204.112 52.4741 204.898 52.2289C208.041 51.3214 211.164 50.3428 214.288 49.3096C220.539 47.2698 226.804 45.2747 233.083 43.3243C239.37 41.3837 245.657 39.4724 251.982 37.6659C258.306 35.8594 264.646 34.1158 271.025 32.5063C277.404 30.8969 283.825 29.4844 290.23 28.009L309.462 23.6625L328.698 19.337L328.776 19.6807L309.598 24.2535L290.416 28.8033C284.025 30.3226 277.61 31.7603 271.262 33.4264C264.914 35.0924 258.585 36.8612 252.283 38.7075C239.677 42.4001 227.136 46.3121 214.661 50.4434C211.547 51.4765 208.395 52.4783 205.231 53.3962C204.443 53.6372 203.646 53.8468 202.852 54.0689L200.472 54.729L195.691 55.9718L190.894 57.137C189.289 57.5037 187.688 57.8831 186.074 58.2393L181.254 59.2872L176.419 60.2784C169.971 61.5715 163.499 62.7513 157.024 63.8893C150.548 65.0273 144.064 66.1128 137.578 67.1774L130.281 68.3699L127.856 68.789C126.24 69.074 124.622 69.3402 123.009 69.6273L118.17 70.5431L115.751 71.0042L108.506 72.4523C105.289 73.1082 102.077 73.7914 98.8662 74.46C86.0175 77.199 73.2045 80.1183 60.4041 83.1026C47.6036 86.0868 34.822 89.1403 22.0529 92.2524L21.9607 91.9066Z" fill="#EF3939"/>
<path d="M14.5294 83.2807L14.3073 82.258C15.4494 82.0087 129.151 57.2376 181.872 44.8605C241.958 30.7544 316.229 12.2557 316.971 12.0713L317.224 13.0877C316.48 13.2721 242.199 31.7729 182.113 45.8811C129.388 58.254 15.6716 83.0272 14.5294 83.2807Z" fill="#EF3939"/>
<path d="M306.341 5.72671L7.44676 73.8532L7.65633 74.7727L306.55 6.64619L306.341 5.72671Z" fill="#EF3939"/>
<path d="M22.226 60.7882L21.75 61.199L175.976 239.872L176.452 239.461L22.226 60.7882Z" fill="#EF3939"/>
<path d="M43.1201 56.2036L42.6566 56.6284L202.575 231.088L203.038 230.663L43.1201 56.2036Z" fill="#EF3939"/>
<path d="M228.686 222.407L188.124 180.94C178.002 170.587 168.672 162.67 159.648 155.012C150.561 147.302 141.977 140.019 132.846 130.587C122.933 120.347 118.044 113.714 113.316 107.297C109.263 101.796 105.434 96.6093 98.7238 89.5154C83.8653 73.8291 62.5374 52.5055 62.3236 52.2938L62.7701 51.8474C62.9797 52.057 84.3158 73.3911 99.1806 89.0836C105.916 96.1964 109.758 101.408 113.823 106.926C118.538 113.324 123.413 119.941 133.298 130.151C142.408 139.56 150.98 146.832 160.054 154.534C169.089 162.2 178.431 170.126 188.574 180.5L229.134 221.978L228.686 222.407Z" fill="#EF3939"/>
<path d="M83.6704 47.258C87.3714 50.6572 90.9907 54.1403 94.568 57.6631C95.467 58.5391 96.3535 59.4298 97.242 60.3163L98.5749 61.6491L99.8952 62.9924C100.775 63.8894 101.654 64.7864 102.519 65.698C103.385 66.6096 104.261 67.5087 105.116 68.4224L107.685 71.1845L110.21 73.9864C110.629 74.4496 111.049 74.9253 111.455 75.4031L112.692 76.8303C113.53 77.7712 114.316 78.752 115.116 79.7244C115.514 80.2127 115.919 80.6947 116.313 81.1914L117.465 82.6919L118.616 84.1966L119.702 85.7537L120.242 86.5333C120.422 86.7932 120.607 87.0531 120.773 87.3192C121.112 87.8494 121.458 88.3671 121.789 88.9119C122.461 89.9779 123.122 91.0488 123.771 92.1246C126.378 96.4229 128.91 100.753 131.561 105.005C132.886 107.131 134.237 109.239 135.616 111.327C136.995 113.416 138.422 115.469 139.898 117.487C142.815 121.544 145.943 125.447 149.268 129.179C150.929 131.044 152.686 132.823 154.492 134.55C156.3 136.277 158.195 137.912 160.169 139.447L161.659 140.587L163.191 141.667C163.698 142.036 164.227 142.369 164.75 142.715C165.274 143.06 165.798 143.408 166.333 143.727L169.545 145.682C170.618 146.332 171.708 146.95 172.79 147.585C173.871 148.22 174.969 148.824 176.061 149.44C177.153 150.056 178.259 150.649 179.362 151.246C181.568 152.436 183.798 153.589 186.022 154.752C187.13 155.341 188.247 155.913 189.348 156.521C189.899 156.823 190.454 157.118 191.001 157.426L192.638 158.363C193.187 158.669 193.719 159.004 194.256 159.331C194.792 159.658 195.333 159.983 195.859 160.327L197.431 161.375C197.691 161.551 197.957 161.718 198.214 161.898L198.982 162.45C203.085 165.359 206.914 168.626 210.636 171.998L213.408 174.548L216.149 177.13L221.613 182.311C225.245 185.771 228.87 189.245 232.485 192.732C239.724 199.69 246.927 206.685 254.094 213.717L253.773 214.039C239.51 199.914 225.14 185.882 210.439 172.214C206.731 168.839 202.894 165.604 198.793 162.716L198.028 162.171C197.77 161.993 197.506 161.825 197.244 161.651L195.677 160.618C195.151 160.279 194.608 159.962 194.075 159.633C193.543 159.304 193.009 158.977 192.462 158.673L190.827 157.745C190.28 157.441 189.725 157.148 189.176 156.848C188.076 156.246 186.956 155.678 185.848 155.094C183.62 153.939 181.386 152.789 179.171 151.609C178.064 151.014 176.954 150.429 175.86 149.811C174.766 149.192 173.657 148.601 172.576 147.964C171.494 147.327 170.396 146.707 169.319 146.068L166.094 144.121C163.952 142.801 161.844 141.417 159.834 139.896C155.794 136.875 152.016 133.52 148.538 129.866C145.057 126.214 141.83 122.329 138.879 118.237C137.405 116.192 135.975 114.119 134.587 112.019C133.2 109.919 131.849 107.797 130.534 105.652C127.887 101.375 125.364 97.0285 122.78 92.7366C122.135 91.6622 121.481 90.5948 120.819 89.5343C120.492 88.9999 120.15 88.4865 119.815 87.95C119.651 87.6839 119.471 87.4303 119.295 87.1746L118.765 86.4055L117.717 84.8693L116.594 83.3709L115.466 81.8767C115.083 81.3821 114.684 80.9001 114.295 80.4097C113.509 79.4373 112.733 78.4565 111.914 77.5114L110.698 76.08C110.294 75.6022 109.89 75.1244 109.472 74.6571L106.983 71.8426L104.449 69.0658C102.747 67.2257 101.03 65.3997 99.2959 63.5876L98.0007 62.2254L96.6909 60.8758C95.817 59.9746 94.9473 59.0735 94.0629 58.1828C92.3053 56.3945 90.5338 54.6188 88.7483 52.8556C86.9627 51.0952 85.1751 49.3327 83.3644 47.5996L83.6704 47.258Z" fill="#EF3939"/>
<path d="M278.72 205.759L255.119 185.469L243.299 175.348L237.377 170.304L234.407 167.789C234.16 167.58 233.915 167.37 233.663 167.161L232.538 166.274C232.414 166.176 232.278 166.09 232.15 165.997L231.364 165.451C229.229 164.036 226.961 162.832 224.593 161.856C222.215 160.869 219.789 160.002 217.323 159.26C212.388 157.745 207.339 156.561 202.318 155.236C197.297 153.912 192.259 152.522 187.378 150.672C182.497 148.821 177.725 146.547 173.435 143.496C171.285 141.978 169.268 140.28 167.406 138.42C165.551 136.564 163.824 134.583 162.238 132.492C160.659 130.404 159.19 128.235 157.837 125.995C157.502 125.435 157.147 124.884 156.829 124.318L155.854 122.619C155.534 122.051 155.226 121.475 154.918 120.902L154.452 120.041L154.006 119.171L153.115 117.43L152.264 115.672L151.845 114.794L151.426 113.907L150.607 112.134C149.542 109.759 148.494 107.384 147.463 105.009C145.399 100.247 143.377 95.4755 141.199 90.7811C140.652 89.6096 140.109 88.436 139.537 87.2771C139.252 86.6966 138.976 86.1119 138.684 85.5356L137.804 83.8109L137.362 82.9495L136.901 82.0987L135.985 80.3928L135.027 78.7162C134.707 78.1567 134.399 77.595 134.044 77.0523L133.028 75.4092C132.686 74.8622 132.313 74.3383 131.959 73.8018C131.261 72.7205 130.465 71.7061 129.706 70.673C128.112 68.6716 126.391 66.7394 124.608 64.8658C117.47 57.3758 109.85 50.3196 102.079 43.4625L102.387 43.1C106.369 46.43 110.269 49.8607 114.11 53.3542C117.952 56.8477 121.726 60.4229 125.328 64.1784C127.143 66.0436 128.891 67.9695 130.555 70.0065C131.339 71.0544 132.163 72.0771 132.881 73.1668C133.248 73.7075 133.634 74.2377 133.986 74.7889L135.034 76.4424C135.392 76.9915 135.717 77.5552 136.048 78.119L137.035 79.8081L137.978 81.5203L138.448 82.3795L139.791 84.9823C140.086 85.5628 140.365 86.1496 140.654 86.7343C141.235 87.8974 141.786 89.0773 142.331 90.253C144.538 94.9641 146.581 99.7381 148.658 104.489C149.693 106.864 150.744 109.231 151.812 111.589L153.04 114.226L153.459 115.095L154.31 116.835L155.63 119.419L156.089 120.272C156.397 120.837 156.697 121.41 157.011 121.971L157.969 123.648C158.283 124.212 158.631 124.752 158.96 125.306C160.288 127.508 161.729 129.64 163.277 131.693C166.379 135.78 169.983 139.495 174.175 142.442C178.343 145.42 183.01 147.662 187.818 149.494C192.625 151.326 197.613 152.73 202.622 154.048L210.149 156.02C212.664 156.691 215.169 157.382 217.656 158.164C220.154 158.933 222.611 159.828 225.018 160.846C227.443 161.864 229.763 163.115 231.947 164.581L232.756 165.151C232.89 165.247 233.028 165.337 233.158 165.44L233.546 165.748L234.319 166.366C234.581 166.576 234.816 166.785 235.065 166.995L238.022 169.527L243.915 174.611C247.842 178.004 251.754 181.412 255.651 184.834C263.455 191.67 271.246 198.523 279.022 205.392L278.72 205.759Z" fill="#EF3939"/>
<path d="M188.367 148.637C187.363 147.7 186.409 146.728 185.483 145.724C185.012 145.229 184.567 144.712 184.111 144.205C183.654 143.697 183.216 143.171 182.784 142.643C181.037 140.535 179.413 138.326 177.922 136.029C176.417 133.727 175.091 131.313 173.957 128.808L173.146 126.921C172.873 126.293 172.637 125.664 172.379 125.023C171.868 123.765 171.392 122.483 170.912 121.211C168.996 116.114 167.194 110.988 165.35 105.879C163.506 100.769 161.661 95.6621 159.723 90.5968C158.746 88.0673 157.757 85.542 156.705 83.0523L155.915 81.183L155.094 79.3304C154.559 78.0856 153.951 76.8868 153.369 75.6692C153.067 75.0678 152.74 74.4789 152.424 73.8837L151.946 72.993C151.787 72.6954 151.608 72.4083 151.441 72.117L150.418 70.3713C150.066 69.7971 149.697 69.2313 149.337 68.6612L148.794 67.8062C148.612 67.5233 148.415 67.2487 148.226 66.9679L147.082 65.2914C146.692 64.7381 146.287 64.1995 145.889 63.6525C145.491 63.1056 145.095 62.5586 144.674 62.0305C138.062 53.4696 130.266 45.8224 121.728 39.1351L122.011 38.7641C123.092 39.5898 124.193 40.3925 125.251 41.2496C125.783 41.6687 126.324 42.0879 126.848 42.5238L128.418 43.8315C130.49 45.5982 132.529 47.4067 134.495 49.3013C135.488 50.2338 136.444 51.2062 137.406 52.1724C137.892 52.6481 138.349 53.1552 138.823 53.6393C139.296 54.1234 139.768 54.6222 140.22 55.1315C141.128 56.15 142.052 57.1559 142.92 58.2079C143.358 58.7319 143.808 59.2453 144.236 59.7755L145.514 61.3766C145.946 61.9047 146.352 62.4538 146.761 63.0008C147.17 63.5477 147.585 64.0905 147.987 64.6438L149.163 66.3203C149.358 66.6033 149.559 66.8778 149.747 67.1586L150.307 68.0179C150.678 68.5921 151.059 69.1621 151.422 69.7405L152.48 71.4988C152.654 71.7943 152.839 72.0814 153.004 72.3811L153.499 73.2822C153.826 73.8837 154.165 74.4789 154.48 75.0866C156.969 79.9696 159.017 85.0244 161.006 90.0897C164.971 100.229 168.489 110.523 172.285 120.687C173.23 123.227 174.208 125.754 175.25 128.231C176.327 130.689 177.573 133.07 178.978 135.357C180.38 137.662 181.912 139.883 183.536 142.038C183.939 142.58 184.36 143.109 184.773 143.645C185.186 144.182 185.611 144.693 186.049 145.221C186.91 146.269 187.793 147.294 188.708 148.281L188.367 148.637Z" fill="#EF3939"/>
<path d="M141.354 34.5392C143.802 36.5454 146.203 38.6034 148.557 40.7131C150.911 42.8255 153.241 44.9652 155.504 47.1762C156.079 47.721 156.632 48.2869 157.196 48.8527C157.759 49.4186 158.321 49.9676 158.872 50.5419C159.423 51.1161 159.977 51.6777 160.521 52.254L162.129 54.006C164.275 56.3587 166.267 58.8472 168.093 61.4562L168.751 62.46C168.971 62.7975 169.17 63.1432 169.38 63.4848C169.589 63.8264 169.799 64.168 169.986 64.518L170.564 65.5658C171.329 66.9616 172.041 68.3825 172.733 69.8096C174.112 72.6702 175.384 75.5728 176.612 78.4921C179.054 84.3349 181.292 90.251 183.509 96.1692C185.726 102.087 187.866 108.033 190.096 113.934C191.214 116.886 192.353 119.825 193.514 122.751C194.687 125.685 195.909 128.575 197.246 131.406C197.927 132.81 198.613 134.221 199.403 135.547L199.694 136.05L200.002 136.555L200.62 137.563L201.863 139.575C203.521 142.253 205.216 144.909 207.067 147.428C207.54 148.056 207.993 148.685 208.492 149.293L209.227 150.207L209.994 151.091C210.497 151.692 211.042 152.241 211.583 152.814L212.002 153.233L212.421 153.639C212.706 153.905 212.976 154.186 213.274 154.442L214.161 155.207C214.309 155.333 214.452 155.467 214.607 155.584L215.07 155.942L215.996 156.663L216.963 157.33C217.591 157.791 218.283 158.168 218.947 158.587C219.276 158.797 219.63 158.971 219.974 159.161L221.011 159.723L220.873 160.016C217.944 158.751 215.207 157.079 212.744 155.05C210.277 153.013 208.133 150.619 206.161 148.119C205.665 147.491 205.201 146.849 204.722 146.212C204.242 145.575 203.799 144.919 203.349 144.265C202.449 142.958 201.569 141.639 200.708 140.309L199.432 138.309L198.803 137.306L198.487 136.805L198.177 136.287C197.338 134.91 196.616 133.485 195.899 132.058C194.511 129.191 193.277 126.268 192.08 123.336C190.884 120.404 189.76 117.443 188.65 114.483C186.432 108.559 184.284 102.62 182.111 96.691C179.938 90.7623 177.74 84.8483 175.359 79.0139C174.171 76.0967 172.94 73.1963 171.608 70.3503C170.307 67.5017 168.822 64.7414 167.161 62.087C165.404 59.4915 163.482 57.012 161.406 54.6641C159.342 52.2917 157.175 50.0033 154.97 47.7483C152.765 45.4933 150.487 43.3138 148.186 41.1553C145.885 38.9967 143.553 36.8675 141.17 34.799L141.354 34.5392Z" fill="#EF3939"/>
<path d="M302.431 197.888L299.742 195.633L297.041 193.395C295.236 191.905 293.441 190.408 291.624 188.933L280.736 180.074C277.104 177.132 273.458 174.202 269.799 171.283C267.965 169.831 266.132 168.38 264.285 166.949C262.439 165.518 260.593 164.086 258.686 162.77C256.778 161.454 254.792 160.255 252.759 159.126C250.726 157.996 248.647 156.94 246.568 155.848C245.52 155.303 244.489 154.746 243.467 154.142C242.428 153.546 241.428 152.884 240.472 152.162C239.977 151.801 239.544 151.405 239.091 151.022L237.741 149.861L235.815 148.019L235.497 147.711L235.191 147.388C233.548 145.688 231.972 143.922 230.503 142.073L229.4 140.69C229.027 140.231 228.692 139.747 228.336 139.275L227.288 137.855C226.942 137.379 226.613 136.891 226.274 136.409C223.581 132.542 221.137 128.516 218.826 124.428C214.215 116.235 210.187 107.756 206.379 99.2017C204.472 94.9237 202.586 90.6401 200.721 86.351C198.835 82.0653 196.963 77.7859 194.991 73.5463C194.501 72.4985 193.992 71.4359 193.493 70.3797L191.948 67.2362C190.888 65.1551 189.811 63.0825 188.648 61.0602C188.354 60.5572 188.078 60.0438 187.774 59.545L186.862 58.0508C186.569 57.5478 186.233 57.0721 185.913 56.5838L185.427 55.8566L185.183 55.494L184.928 55.1377L183.643 53.3711L183.373 53.0253L182.834 52.3379C182.128 51.4095 181.367 50.521 180.623 49.624C177.581 46.0784 174.319 42.7271 170.857 39.5898C169.141 38.0055 167.368 36.4798 165.57 34.9919C163.772 33.5039 161.934 32.0579 160.052 30.6748L160.35 30.2766C164.082 33.1141 167.661 36.1445 171.123 39.3006C172.846 40.8871 174.542 42.5049 176.174 44.1857C177.002 45.0239 177.803 45.8622 178.605 46.7256C179.012 47.1448 179.391 47.5933 179.785 48.0271C180.179 48.4609 180.577 48.8926 180.95 49.3453C181.707 50.2401 182.474 51.1287 183.19 52.0571L184.01 53.0902L185.32 54.8632C186.674 56.7808 187.954 58.7507 189.128 60.7814C191.502 64.8282 193.644 69.0007 195.708 73.2047C199.839 81.6147 203.686 90.1525 207.668 98.6107L209.169 101.779L210.684 104.94L212.212 108.083L213.765 111.227C215.843 115.406 218.004 119.54 220.282 123.604C222.56 127.667 224.985 131.647 227.617 135.478C230.218 139.318 233.116 142.949 236.285 146.336L236.578 146.654L236.888 146.958L237.504 147.566L238.741 148.779L240.038 149.924C240.472 150.301 240.897 150.701 241.348 151.034C242.251 151.734 243.196 152.377 244.179 152.958C245.162 153.556 246.179 154.117 247.203 154.673C249.253 155.783 251.336 156.867 253.375 158.044C255.414 159.222 257.418 160.475 259.339 161.844C261.261 163.212 263.091 164.69 264.92 166.151C266.75 167.611 268.558 169.097 270.369 170.581C273.986 173.551 277.594 176.532 281.191 179.523L300.048 195.268L302.756 197.502L302.431 197.888Z" fill="#EF3939"/>
<path d="M325.796 190.161C323.53 188.275 321.255 186.322 318.847 184.255C305.005 172.381 289.316 158.921 273.946 157.011L274.024 156.383C289.582 158.309 305.346 171.832 319.255 183.765C321.663 185.831 323.937 187.782 326.198 189.666L325.796 190.161Z" fill="#EF3939"/>
<path d="M349.056 182.44L346.96 180.8C335.191 171.566 325.029 163.592 315.837 158.275C305.83 152.487 298.055 150.565 291.37 152.225L291.219 151.615C298.072 149.913 305.994 151.856 316.158 157.732C325.379 163.07 335.568 171.057 347.354 180.305L349.45 181.944L349.056 182.44Z" fill="#EF3939"/>
<path d="M369.768 175.491C365.539 172.184 361.293 168.895 357.032 165.625C352.772 162.357 348.496 159.107 344.167 155.936C343.083 155.148 342 154.358 340.904 153.587L340.084 153.004L338.433 151.869C338.158 151.676 337.875 151.508 337.595 151.326C333.149 148.41 328.123 146.494 322.864 145.711C320.236 145.34 317.581 145.183 314.928 145.242L312.937 145.305L310.946 145.458C310.281 145.496 309.621 145.581 308.961 145.667C308.301 145.753 307.637 145.81 306.979 145.913C305.663 146.122 304.342 146.302 303.035 146.577L301.071 146.956C300.404 147.082 299.738 147.227 299.068 147.333C296.375 147.81 293.642 148.011 290.909 147.935C290.224 147.935 289.54 147.857 288.857 147.811C288.176 147.732 287.493 147.669 286.816 147.551C286.139 147.434 285.464 147.308 284.792 147.174C284.119 147.04 283.455 146.858 282.799 146.657C281.48 146.277 280.186 145.815 278.926 145.271C277.667 144.735 276.439 144.131 275.246 143.461C274.053 142.794 272.886 142.086 271.761 141.323C270.635 140.56 269.527 139.772 268.452 138.944C266.295 137.301 264.237 135.543 262.223 133.747C261.217 132.85 260.222 131.942 259.237 131.023L256.303 128.225C252.457 124.43 248.841 120.408 245.474 116.181C242.119 111.947 238.989 107.54 236.096 102.978C233.189 98.4347 230.482 93.7802 227.82 89.111C225.159 84.4418 222.543 79.7538 219.806 75.1453C217.069 70.5369 214.234 65.9934 211.17 61.6051C208.106 57.2167 204.852 52.9625 201.371 48.8968C197.89 44.8312 194.208 40.9332 190.345 37.2175C188.382 35.3943 186.437 33.5459 184.396 31.8065C182.4 30.0147 180.305 28.3402 178.245 26.6175L178.479 26.3199L181.652 28.8096L182.447 29.4383L182.843 29.7485L183.23 30.0712L184.777 31.3664C186.86 33.0702 188.849 34.8829 190.854 36.6747C194.817 40.3258 198.589 44.1779 202.156 48.2157C205.722 52.2608 209.073 56.4901 212.195 60.8863C215.319 65.2872 218.241 69.8139 221.013 74.4286C223.786 79.0433 226.446 83.7167 229.126 88.3649C231.806 93.0132 234.503 97.6488 237.4 102.148C240.296 106.648 243.37 111.024 246.692 115.207C250.013 119.39 253.582 123.37 257.38 127.127L260.272 129.899C261.247 130.815 262.238 131.716 263.233 132.607C265.226 134.388 267.253 136.128 269.359 137.75C270.41 138.566 271.484 139.345 272.582 140.089C273.676 140.837 274.804 141.528 275.952 142.184C277.099 142.834 278.279 143.421 279.489 143.943C280.694 144.468 281.931 144.917 283.193 145.286C283.821 145.483 284.45 145.63 285.095 145.789C285.741 145.948 286.38 146.066 287.03 146.158C287.679 146.25 288.331 146.336 288.983 146.418C289.637 146.464 290.293 146.533 290.951 146.543C293.591 146.631 296.233 146.455 298.839 146.019C299.495 145.921 300.143 145.785 300.796 145.669L302.792 145.301C304.116 145.034 305.461 144.869 306.798 144.661C307.467 144.565 308.144 144.508 308.815 144.429C309.485 144.349 310.16 144.274 310.839 144.24L312.868 144.104L314.9 144.056C317.62 144.019 320.338 144.204 323.027 144.607C328.428 145.458 333.58 147.472 338.127 150.508C338.408 150.697 338.701 150.875 338.965 151.07L340.619 152.237L341.432 152.835C342.524 153.625 343.599 154.432 344.674 155.238C348.968 158.476 353.197 161.79 357.416 165.117C361.634 168.445 365.819 171.824 369.99 175.206L369.768 175.491Z" fill="#EF3939"/>
<path d="M195.97 22.466C200.384 25.3183 204.621 28.4241 208.754 31.6682C212.886 34.9123 216.893 38.322 220.699 41.9518C222.605 43.768 224.458 45.6367 226.259 47.5577C228.06 49.4788 229.783 51.4739 231.429 53.543C233.072 55.6052 234.619 57.7595 236.058 59.9726L238.23 63.2335C238.965 64.3107 239.726 65.3753 240.474 66.4462C241.222 67.5171 242.008 68.5628 242.779 69.617L243.945 71.195C244.332 71.721 244.739 72.2429 245.135 72.7542C245.938 73.7874 246.728 74.8289 247.537 75.8558L250.605 79.6846L251.233 80.4391L252.491 81.9522C253.329 82.9581 254.153 83.9724 255.006 84.9595L257.556 87.9417L260.157 90.8756C263.64 94.7799 267.194 98.6297 270.855 102.362C274.516 106.095 278.243 109.775 282.126 113.272C283.079 114.165 284.079 115.005 285.06 115.869C285.552 116.288 286.039 116.732 286.539 117.151L289.557 119.641L291.1 120.836C291.609 121.24 292.147 121.609 292.665 121.997L293.453 122.569L294.258 123.118C298.535 126.052 303.158 128.504 308.089 130.076C308.701 130.285 309.328 130.446 309.946 130.627C310.256 130.721 310.575 130.786 310.885 130.868C311.195 130.949 311.514 131.029 311.828 131.094C312.457 131.226 313.086 131.373 313.727 131.475C314.045 131.53 314.355 131.593 314.682 131.641L315.642 131.781C318.219 132.117 320.813 132.3 323.411 132.33C326.02 132.385 328.65 132.349 331.293 132.475C332.622 132.533 333.947 132.657 335.264 132.848L335.759 132.921L336.251 133.02L337.236 133.23C337.569 133.286 337.886 133.387 338.209 133.475L339.173 133.741C341.703 134.53 344.172 135.503 346.56 136.652C347.153 136.941 347.757 137.209 348.339 137.515L350.1 138.414C351.259 139.043 352.424 139.659 353.56 140.321C358.137 142.922 362.548 145.787 366.869 148.773C371.191 151.76 375.418 154.876 379.58 158.074C383.742 161.272 387.832 164.56 391.835 167.957L391.649 168.179C389.622 166.517 387.564 164.893 385.494 163.286C383.423 161.678 381.342 160.086 379.24 158.522C375.04 155.387 370.769 152.354 366.427 149.423C364.25 147.969 362.058 146.537 359.834 145.158L358.996 144.636L356.481 143.111C355.351 142.453 354.228 141.784 353.082 141.157C351.935 140.531 350.787 139.9 349.634 139.297L347.884 138.421C347.304 138.123 346.707 137.865 346.118 137.582C343.769 136.477 341.343 135.544 338.858 134.791L337.926 134.541C337.613 134.46 337.297 134.365 336.989 134.315L335.574 134.038L335.097 133.971C333.82 133.795 332.531 133.693 331.234 133.644C328.64 133.542 326.02 133.6 323.386 133.569C320.738 133.564 318.092 133.397 315.464 133.068L314.477 132.928C314.148 132.88 313.821 132.817 313.494 132.762C312.836 132.659 312.189 132.511 311.537 132.379C311.21 132.312 310.889 132.226 310.564 132.15C310.24 132.075 309.917 132.001 309.598 131.905C308.957 131.723 308.314 131.559 307.683 131.345C305.15 130.542 302.686 129.537 300.314 128.338C297.95 127.135 295.665 125.782 293.474 124.287L292.653 123.732L291.846 123.151C291.313 122.759 290.764 122.386 290.247 121.976L288.677 120.764L285.624 118.25C285.116 117.83 284.626 117.388 284.129 116.959C283.14 116.089 282.13 115.242 281.168 114.343C277.251 110.829 273.498 107.14 269.818 103.389C268.904 102.444 267.974 101.515 267.075 100.558L264.371 97.6866C263.47 96.731 262.598 95.7481 261.71 94.7778L260.385 93.3213C259.943 92.833 259.513 92.3363 259.077 91.8438L256.475 88.8847L253.918 85.8858C253.059 84.8903 252.229 83.8718 251.393 82.8575L250.135 81.336L249.506 80.5732L248.895 79.802L246.449 76.7088C245.642 75.6609 244.854 74.6131 244.056 73.5652C243.66 73.0413 243.253 72.5174 242.867 71.9914L241.706 70.3965C240.935 69.3319 240.145 68.282 239.401 67.1922C238.657 66.1025 237.894 65.0337 237.161 63.9418L235.006 60.6306C233.609 58.4316 232.112 56.3044 230.513 54.2492C230.109 53.74 229.717 53.2182 229.3 52.7173L228.053 51.2105L226.772 49.731C226.353 49.2364 225.903 48.7586 225.469 48.264C223.714 46.3317 221.902 44.4505 220.033 42.6203C216.291 38.9696 212.39 35.4844 208.33 32.1649C206.306 30.5051 204.249 28.8851 202.161 27.305C200.065 25.7269 197.969 24.1614 195.8 22.6945L195.97 22.466Z" fill="#EF3939"/>
<path d="M412.958 161.14C404.516 155.159 396.043 149.221 387.539 143.326L381.135 138.951L377.924 136.777C376.854 136.052 375.78 135.333 374.701 134.619C373.626 133.904 372.551 133.187 371.465 132.488C370.38 131.788 369.302 131.075 368.206 130.392L366.572 129.359L364.914 128.382C364.635 128.223 364.365 128.049 364.076 127.902L363.227 127.452L362.376 127.003L361.957 126.779L361.523 126.569C356.913 124.304 352.021 122.688 347.05 121.33C344.565 120.636 342.061 119.991 339.56 119.306C337.06 118.62 334.564 117.906 332.095 117.09L331.167 116.791L330.245 116.47L328.405 115.827L326.58 115.133L325.668 114.785L324.765 114.412L322.969 113.668L321.187 112.866C319.993 112.346 318.838 111.744 317.669 111.176C313.027 108.819 308.559 106.134 304.3 103.139C300.038 100.159 295.966 96.9215 292.028 93.5391L290.561 92.2628C290.073 91.8437 289.576 91.4246 289.094 90.9761L286.223 88.346L285.506 87.688L284.804 87.0132L281.311 83.6307L280.627 82.937C278.811 81.0886 276.97 79.2591 275.21 77.3562L272.544 74.5249L269.923 71.658C266.444 67.8229 263.02 63.9396 259.574 60.0856C252.688 52.3777 245.652 44.8039 237.938 37.9363C230.268 31.0205 222.045 24.7334 213.561 18.8257L213.783 18.4988L217.002 20.6699C218.071 21.4013 219.159 22.1033 220.202 22.8704C222.309 24.3793 224.432 25.863 226.49 27.4452L228.04 28.6126C228.558 29.0024 229.078 29.3901 229.581 29.7987L232.626 32.215L233.386 32.8207L234.133 33.4494L237.106 35.9642C237.603 36.3834 238.079 36.8214 238.573 37.2489C242.486 40.6523 246.227 44.2485 249.871 47.9369C253.516 51.6253 257.045 55.4227 260.509 59.2683C267.433 66.9343 274.269 74.6884 281.579 81.9772C285.253 85.5965 288.977 89.1696 292.896 92.5206C296.815 95.8716 300.826 99.1074 305.038 102.066C309.243 105.036 313.655 107.702 318.241 110.043C319.396 110.606 320.534 111.204 321.711 111.719L323.465 112.518L326.135 113.63L327.034 113.976L328.837 114.666L330.656 115.294L331.565 115.615L332.483 115.913C337.372 117.526 342.383 118.78 347.363 120.207C352.342 121.634 357.315 123.29 361.986 125.628L362.426 125.838L362.858 126.068L363.72 126.534L364.581 126.997C364.87 127.15 365.142 127.328 365.419 127.491L367.096 128.495L368.732 129.543C369.828 130.239 370.906 130.956 371.987 131.67C373.068 132.385 374.141 133.106 375.214 133.831C379.506 136.727 383.763 139.672 387.986 142.664C396.437 148.64 404.835 154.686 413.18 160.804L412.958 161.14Z" fill="#EF3939"/>
<path d="M231.492 14.6113L237.779 19.0793L244.03 23.5872C248.19 26.6028 252.348 29.6206 256.468 32.6929C260.589 35.7652 264.696 38.8522 268.741 42.0334C269.745 42.8403 270.763 43.624 271.752 44.4539C272.247 44.8731 272.75 45.2691 273.24 45.6883L274.707 46.9646C275.198 47.3837 275.665 47.8259 276.143 48.2597L277.566 49.5653L280.376 52.208C284.098 55.756 287.782 59.3333 291.529 62.8373C295.276 66.3413 299.057 69.8097 302.934 73.1649C306.811 76.5201 310.78 79.76 314.879 82.8344C318.966 85.9066 323.224 88.7445 327.632 91.3345C332.066 93.8996 336.603 96.2845 341.206 98.5395C345.808 100.794 350.483 102.909 355.156 105.049C359.83 107.188 364.489 109.389 369.045 111.793L370.748 112.704C371.316 113.006 371.884 113.31 372.444 113.631C373.563 114.259 374.695 114.888 375.797 115.533L379.121 117.501L382.398 119.545C391.07 125.071 399.621 130.771 408.121 136.549C416.621 142.327 425.069 148.174 433.454 154.113L433.275 154.369C424.784 148.589 416.261 142.851 407.708 137.155C399.137 131.482 390.563 125.823 381.858 120.374L378.582 118.367L375.26 116.435C374.152 115.806 373.022 115.19 371.907 114.567C371.35 114.253 370.782 113.953 370.214 113.658L368.514 112.765C363.971 110.399 359.333 108.213 354.66 106.088C349.986 103.963 345.292 101.857 340.665 99.602C336.038 97.347 331.467 94.96 327.001 92.3928C322.542 89.7897 318.237 86.9328 314.106 83.8361C309.992 80.7261 306.021 77.4422 302.129 74.0723C298.238 70.7024 294.463 67.2047 290.72 63.6777C286.977 60.1506 283.297 56.5523 279.596 53.0064L276.82 50.3428L275.415 49.0309C274.946 48.5971 274.483 48.1507 274.003 47.7316L272.574 46.4574C272.092 46.0383 271.597 45.6317 271.107 45.2189C270.136 44.3806 269.126 43.5947 268.135 42.7837C264.134 39.5731 260.058 36.4484 255.98 33.3405C251.902 30.2326 247.796 27.1331 243.681 24.0608L231.316 14.8649L231.492 14.6113Z" fill="#EF3939"/>
<path d="M248.14 10.9082L273.561 28.4387L298.942 46.0425C301.06 47.5095 303.156 49.0141 305.229 50.5545C307.301 52.0948 309.334 53.6729 311.363 55.2572C315.424 58.4238 319.456 61.6176 323.556 64.7172C327.655 67.8167 331.813 70.8366 336.071 73.7097C340.329 76.5829 344.663 79.3199 349.117 81.8829C358.011 87.0216 367.209 91.6572 376.231 96.6324C385.253 101.608 394.149 106.841 402.636 112.685L405.03 114.324L408.957 117.139L415.204 121.67C419.379 124.675 423.587 127.633 427.829 130.543C432.07 133.453 436.343 136.317 440.648 139.135C442.802 140.542 444.968 141.931 447.145 143.301C449.318 144.676 451.504 146.026 453.71 147.352L453.52 147.677C449.066 145.085 444.695 142.365 440.355 139.594C436.014 136.824 431.712 133.996 427.443 131.117C423.174 128.238 418.947 125.295 414.75 122.315L408.473 117.807L404.544 115.022L403.747 114.481L399.755 111.786L398.946 111.265L395.708 109.169C395.169 108.815 394.62 108.484 394.076 108.144L390.798 106.117C390.251 105.78 389.696 105.457 389.144 105.126C384.743 102.465 380.265 99.9499 375.757 97.4791C366.746 92.529 357.537 87.9123 348.595 82.7673C339.653 77.6224 331.148 71.7356 322.948 65.4947C318.844 62.3784 314.814 59.1719 310.763 56.0012C308.742 54.4126 306.706 52.8444 304.657 51.2964C302.597 49.7602 300.532 48.2429 298.42 46.7718L273.154 29.0213L247.931 11.2079L248.14 10.9082Z" fill="#EF3939"/>
<path d="M473.395 141.141L415.179 103.944C407.125 98.7994 398.636 93.6524 386.887 86.527C379.383 81.9752 370.876 76.8177 360.184 70.2708C340.294 58.0906 328.904 49.9824 320.588 44.0621C317.162 41.6227 314.205 39.5186 311.281 37.5654C300.291 30.2305 264.828 7.8821 264.472 7.65786L264.807 7.12555C265.163 7.35188 300.643 29.6961 311.631 37.0436C314.565 39.001 317.522 41.1093 320.953 43.5403C329.26 49.4564 340.64 57.5562 360.513 69.7259C371.201 76.2728 379.71 81.4303 387.212 85.9801C398.965 93.1054 407.456 98.2566 415.517 103.408L473.735 140.602L473.395 141.141Z" fill="#EF3939"/>
<path d="M282.067 3.30532L281.735 3.83896L492.139 134.906L492.472 134.373L282.067 3.30532Z" fill="#EF3939"/>
</svg>
