<svg width="1280" height="256" viewBox="0 0 1280 256" fill="none" xmlns="http://www.w3.org/2000/svg">
  <path
    d="M1.54955 256C1.13858 256 0.744448 255.945 0.453852 255.847C0.163255 255.749 0 255.616 0 255.477V0.522936C0 0.384244 0.163255 0.251234 0.453852 0.153164C0.744448 0.0550948 1.13858 0 1.54955 0C1.96051 0 2.35465 0.0550948 2.64524 0.153164C2.93584 0.251234 3.09909 0.384244 3.09909 0.522936V255.477C3.09909 255.616 2.93584 255.749 2.64524 255.847C2.35465 255.945 1.96051 256 1.54955 256Z"
    fill="#EF3939" />
  <path
    d="M30.7244 5.41343L30.7926 250.566C30.8051 250.628 30.7796 250.691 30.7175 250.749C30.6554 250.808 30.5582 250.862 30.4317 250.908C30.3053 250.954 30.1525 250.99 29.9826 251.015C29.8128 251.04 29.6296 251.053 29.4445 251.053C29.2593 251.053 29.0762 251.04 28.9063 251.015C28.7365 250.99 28.5836 250.954 28.4572 250.908C28.3308 250.862 28.2336 250.808 28.1715 250.749C28.1094 250.691 28.0838 250.628 28.0964 250.566L28.022 5.41343C28.022 5.29249 28.1644 5.17651 28.4178 5.09099C28.6712 5.00547 29.0148 4.95743 29.3732 4.95743C29.7316 4.95743 30.0753 5.00547 30.3287 5.09099C30.5821 5.17651 30.7244 5.29249 30.7244 5.41343Z"
    fill="#EF3939" />
  <path
    d="M58.3559 10.3039L58.641 127.987L58.4985 245.671C58.4985 245.775 58.3764 245.874 58.159 245.948C57.9416 246.021 57.6468 246.062 57.3394 246.062C57.032 246.062 56.7372 246.021 56.5198 245.948C56.3025 245.874 56.1804 245.775 56.1804 245.671L55.8952 127.987L56.0378 10.3039C56.0378 10.2002 56.1599 10.1007 56.3773 10.0273C56.5947 9.95398 56.8895 9.91277 57.1969 9.91277C57.5043 9.91277 57.7991 9.95398 58.0164 10.0273C58.2338 10.1007 58.3559 10.2002 58.3559 10.3039Z"
    fill="#EF3939" />
  <path
    d="M86.006 15.1944L86.4089 127.981L86.2168 240.76C86.2168 240.848 86.1129 240.932 85.9281 240.995C85.7433 241.057 85.4926 241.092 85.2313 241.092C84.9699 241.092 84.7192 241.057 84.5344 240.995C84.3496 240.932 84.2458 240.848 84.2458 240.76L83.8429 127.973L84.035 15.1861C84.035 15.0978 84.1388 15.0132 84.3237 14.9509C84.5085 14.8885 84.7592 14.8535 85.0205 14.8535C85.2819 14.8535 85.5326 14.8885 85.7174 14.9509C85.9022 15.0132 86.006 15.0978 86.006 15.1861V15.1944Z"
    fill="#EF3939" />
  <path
    d="M113.669 20.0807L113.885 47.0642L114.177 127.992L114.127 208.911L113.985 235.882C113.995 235.92 113.981 235.959 113.944 235.996C113.906 236.033 113.847 236.067 113.769 236.095C113.692 236.124 113.597 236.147 113.492 236.162C113.386 236.178 113.272 236.186 113.157 236.186C113.042 236.186 112.928 236.178 112.823 236.162C112.717 236.147 112.623 236.124 112.545 236.095C112.467 236.067 112.408 236.033 112.371 235.996C112.334 235.959 112.32 235.92 112.33 235.882L112.119 208.911L111.821 127.992L111.877 47.0642L112.02 20.0807C112.02 20.0069 112.107 19.9362 112.261 19.884C112.416 19.8318 112.626 19.8025 112.844 19.8025C113.063 19.8025 113.273 19.8318 113.427 19.884C113.582 19.9362 113.669 20.0069 113.669 20.0807Z"
    fill="#EF3939" />
  <path
    d="M141.35 24.9754L141.598 50.7248L141.938 127.969L141.864 205.221L141.703 230.968C141.703 231.029 141.631 231.088 141.503 231.131C141.375 231.174 141.202 231.198 141.021 231.198C140.84 231.198 140.667 231.174 140.539 231.131C140.411 231.088 140.339 231.029 140.339 230.968L140.091 205.219L139.738 127.975L139.825 50.731L139.986 24.9817C139.986 24.9207 140.058 24.8621 140.186 24.819C140.314 24.7758 140.487 24.7516 140.668 24.7516C140.849 24.7516 141.022 24.7758 141.15 24.819C141.278 24.8621 141.35 24.9207 141.35 24.9817V24.9754Z"
    fill="#EF3939" />
  <path
    d="M169.037 29.8659L169.322 54.3853L169.719 127.958L169.638 201.531L169.465 226.055C169.45 226.1 169.386 226.143 169.285 226.173C169.184 226.204 169.052 226.221 168.916 226.221C168.78 226.221 168.649 226.204 168.547 226.173C168.446 226.143 168.382 226.1 168.368 226.055L168.089 201.529L167.704 127.962L167.76 54.3916L167.971 29.8659C167.971 29.8171 168.028 29.7703 168.131 29.7357C168.233 29.7012 168.372 29.6818 168.516 29.6818C168.661 29.6818 168.8 29.7012 168.902 29.7357C169.004 29.7703 169.062 29.8171 169.062 29.8659H169.037Z"
    fill="#EF3939" />
  <path
    d="M196.743 34.7564L197.047 58.0563L197.493 127.956L197.418 197.856L197.239 221.156C197.239 221.194 197.194 221.231 197.113 221.258C197.033 221.285 196.924 221.3 196.811 221.3C196.698 221.3 196.589 221.285 196.509 221.258C196.428 221.231 196.383 221.194 196.383 221.156L196.08 197.856L195.633 127.954L195.708 58.0542L195.863 34.7564C195.863 34.7181 195.908 34.6814 195.988 34.6543C196.068 34.6273 196.177 34.6121 196.29 34.6121C196.404 34.6121 196.513 34.6273 196.593 34.6543C196.673 34.6814 196.718 34.7181 196.718 34.7564H196.743Z"
    fill="#EF3939" />
  <path
    d="M224.461 39.6469L224.783 61.7231L225.261 127.95L225.23 194.179L225.044 216.255C225.044 216.269 225.035 216.283 225.019 216.296C225.003 216.309 224.979 216.321 224.949 216.331C224.919 216.341 224.883 216.349 224.844 216.354C224.805 216.359 224.763 216.362 224.721 216.361C224.637 216.361 224.556 216.35 224.496 216.33C224.435 216.31 224.401 216.283 224.399 216.255L224.077 194.179L223.6 127.952L223.637 61.7231L223.817 39.6469C223.817 39.618 223.85 39.5904 223.911 39.57C223.971 39.5496 224.053 39.5381 224.139 39.5381C224.224 39.5381 224.306 39.5496 224.367 39.57C224.427 39.5904 224.461 39.618 224.461 39.6469Z"
    fill="#EF3939" />
  <path
    d="M252.192 44.5374L252.527 65.39L253.029 127.944V190.499L252.855 211.352C252.853 211.372 252.829 211.392 252.786 211.406C252.743 211.42 252.686 211.429 252.626 211.429C252.565 211.429 252.507 211.421 252.464 211.406C252.421 211.392 252.396 211.372 252.396 211.352L252.062 190.499L251.529 127.937V65.3816L251.702 44.529C251.704 44.5087 251.728 44.4893 251.771 44.4749C251.814 44.4605 251.871 44.4522 251.931 44.4516C251.966 44.4499 252.002 44.451 252.035 44.4547C252.069 44.4583 252.099 44.4646 252.124 44.4728C252.149 44.4811 252.169 44.4913 252.18 44.5025C252.192 44.5136 252.196 44.5256 252.192 44.5374Z"
    fill="#EF3939" />
  <path
    d="M279.941 49.4279L280.276 69.0547L280.778 127.937V186.82L280.648 206.455C280.641 206.467 280.622 206.477 280.594 206.485C280.566 206.493 280.532 206.497 280.496 206.497C280.46 206.497 280.425 206.493 280.398 206.485C280.37 206.477 280.351 206.467 280.344 206.455L280.003 186.826L279.476 127.946V69.0568L279.631 49.4279C279.631 49.414 279.648 49.4007 279.677 49.3909C279.706 49.3811 279.745 49.3756 279.786 49.3756C279.827 49.3756 279.867 49.3811 279.896 49.3909C279.925 49.4007 279.941 49.414 279.941 49.4279Z"
    fill="#EF3939" />
  <path
    d="M307.697 54.3184L308.031 72.7257L308.571 127.948L308.602 183.17L308.465 201.577C308.464 201.585 308.454 201.592 308.438 201.597C308.422 201.603 308.401 201.606 308.378 201.606C308.355 201.606 308.332 201.603 308.315 201.598C308.297 201.592 308.287 201.585 308.285 201.577L307.957 183.17L307.411 127.948L307.38 72.7257L307.523 54.3184C307.523 54.3145 307.525 54.3107 307.53 54.3072C307.534 54.3036 307.54 54.3004 307.548 54.2977C307.557 54.2949 307.566 54.2928 307.577 54.2913C307.587 54.2898 307.598 54.2891 307.61 54.2891C307.621 54.2891 307.632 54.2898 307.643 54.2913C307.654 54.2928 307.663 54.2949 307.671 54.2977C307.679 54.3004 307.686 54.3036 307.69 54.3072C307.694 54.3107 307.697 54.3145 307.697 54.3184Z"
    fill="#EF3939" />
  <path
    d="M335.471 59.2089L335.793 76.3883L336.338 127.925L336.407 179.463L336.295 196.643C336.295 196.646 336.291 196.649 336.284 196.652C336.277 196.654 336.268 196.655 336.258 196.655C336.248 196.655 336.239 196.654 336.232 196.652C336.225 196.649 336.221 196.646 336.221 196.643L335.942 179.472L335.396 127.935L335.322 76.3883L335.433 59.2089C335.433 59.2055 335.437 59.2023 335.444 59.2C335.451 59.1976 335.461 59.1963 335.471 59.1963C335.481 59.1963 335.49 59.1976 335.497 59.2C335.504 59.2023 335.508 59.2055 335.508 59.2089H335.471Z"
    fill="#EF3939" />
  <path
    d="M363.257 64.0994L363.567 80.0552L364.112 127.918L364.255 175.784L364.174 191.74L363.871 175.784L363.325 127.921L363.183 80.0552L363.257 64.0994Z"
    fill="#EF3939" />
  <path d="M2.26234 0.0585688L363.257 64.0994L0.830557 0.987302L2.26234 0.0585688Z" fill="#EF3939" />
  <path d="M2.13218 28.3661L363.363 78.2814L0.966917 29.3367L2.13218 28.3661Z" fill="#EF3939" />
  <path d="M1.97722 56.6779L363.462 92.4634L1.12187 57.6819L1.97722 56.6779Z" fill="#EF3939" />
  <path d="M1.81607 84.9917L363.567 106.645L1.28302 86.0229L1.81607 84.9917Z" fill="#EF3939" />
  <path d="M1.63632 113.314L363.666 120.827L1.46277 114.358L1.63632 113.314Z" fill="#EF3939" />
  <path d="M1.45657 141.642L363.765 135.012L1.64252 142.686L1.45657 141.642Z" fill="#EF3939" />
  <path d="M1.28302 169.977L363.871 149.194L1.81607 171.008L1.28302 169.977Z" fill="#EF3939" />
  <path d="M1.11567 198.318L363.97 163.376L1.98342 199.324L1.11567 198.318Z" fill="#EF3939" />
  <path d="M0.966917 226.665L364.075 177.558L2.13218 227.634L0.966917 226.665Z" fill="#EF3939" />
  <path d="M0.830557 255.015L364.174 191.74L2.26234 255.941L0.830557 255.015Z" fill="#EF3939" />
  <path
    d="M257.597 256C257.186 256 256.792 255.945 256.501 255.847C256.21 255.749 256.047 255.616 256.047 255.477V0.522936C256.047 0.384244 256.21 0.251234 256.501 0.153164C256.792 0.0550948 257.186 0 257.597 0C258.008 0 258.402 0.0550948 258.692 0.153164C258.983 0.251234 259.146 0.384244 259.146 0.522936V255.477C259.146 255.616 258.983 255.749 258.692 255.847C258.402 255.945 258.008 256 257.597 256Z"
    fill="#EF3939" />
  <path
    d="M275.497 5.41343L275.54 250.566C275.553 250.628 275.527 250.691 275.465 250.749C275.403 250.808 275.306 250.862 275.18 250.908C275.053 250.954 274.9 250.99 274.73 251.015C274.561 251.04 274.377 251.053 274.192 251.053C274.007 251.053 273.824 251.04 273.654 251.015C273.484 250.99 273.331 250.954 273.205 250.908C273.079 250.862 272.981 250.808 272.919 250.749C272.857 250.691 272.832 250.628 272.844 250.566L272.801 5.41343C272.824 5.2981 272.976 5.19004 273.226 5.11112C273.477 5.0322 273.806 4.9883 274.149 4.9883C274.491 4.9883 274.821 5.0322 275.071 5.11112C275.322 5.19004 275.474 5.2981 275.497 5.41343Z"
    fill="#EF3939" />
  <path
    d="M291.866 10.3039L292.121 127.987L291.935 245.671C291.946 245.725 291.925 245.779 291.872 245.83C291.819 245.881 291.735 245.928 291.626 245.967C291.517 246.007 291.385 246.039 291.238 246.06C291.091 246.082 290.933 246.093 290.772 246.093C290.612 246.093 290.454 246.082 290.307 246.06C290.16 246.039 290.028 246.007 289.919 245.967C289.81 245.928 289.726 245.881 289.673 245.83C289.62 245.779 289.599 245.725 289.61 245.671L289.356 127.987L289.523 10.3039C289.545 10.2049 289.677 10.1122 289.892 10.0446C290.108 9.97693 290.391 9.93934 290.686 9.93934C290.98 9.93934 291.263 9.97693 291.479 10.0446C291.695 10.1122 291.826 10.2049 291.848 10.3039H291.866Z"
    fill="#EF3939" />
  <path
    d="M308.248 15.1944L308.608 127.981L308.372 240.768C308.372 240.856 308.268 240.941 308.084 241.003C307.899 241.065 307.648 241.101 307.387 241.101C307.125 241.101 306.875 241.065 306.69 241.003C306.505 240.941 306.401 240.856 306.401 240.768L306.06 127.981L306.29 15.1944C306.309 15.1105 306.422 15.0322 306.605 14.975C306.788 14.9179 307.029 14.8862 307.278 14.8862C307.528 14.8862 307.768 14.9179 307.951 14.975C308.134 15.0322 308.247 15.1105 308.267 15.1944H308.248Z"
    fill="#EF3939" />
  <path
    d="M324.642 20.0807L324.841 47.0642L325.095 127.992L324.971 208.911L324.785 235.865C324.795 235.904 324.781 235.943 324.744 235.979C324.707 236.016 324.647 236.05 324.57 236.079C324.492 236.107 324.397 236.13 324.292 236.146C324.186 236.161 324.073 236.169 323.958 236.169C323.842 236.169 323.729 236.161 323.623 236.146C323.518 236.13 323.423 236.107 323.345 236.079C323.268 236.05 323.208 236.016 323.171 235.979C323.134 235.943 323.12 235.904 323.13 235.865L322.932 208.894L322.678 127.975L322.808 47.0475L322.988 20.0807C323.005 20.0108 323.1 19.9458 323.254 19.8983C323.407 19.8509 323.607 19.8246 323.815 19.8246C324.023 19.8246 324.223 19.8509 324.376 19.8983C324.53 19.9458 324.625 20.0108 324.642 20.0807Z"
    fill="#EF3939" />
  <path
    d="M341.049 24.9754L341.285 50.7248L341.582 127.969L341.471 205.221L341.291 230.968C341.3 231 341.289 231.032 341.259 231.063C341.229 231.093 341.18 231.121 341.117 231.145C341.053 231.169 340.975 231.187 340.888 231.2C340.801 231.213 340.707 231.22 340.612 231.22C340.517 231.22 340.423 231.213 340.336 231.2C340.249 231.187 340.171 231.169 340.108 231.145C340.044 231.121 339.995 231.093 339.965 231.063C339.935 231.032 339.924 231 339.933 230.968L339.661 205.215L339.369 127.975L339.506 50.731L339.692 24.9817C339.708 24.9247 339.786 24.8718 339.912 24.8333C340.037 24.7948 340.201 24.7735 340.37 24.7735C340.54 24.7735 340.703 24.7948 340.829 24.8333C340.954 24.8718 341.033 24.9247 341.049 24.9817V24.9754Z"
    fill="#EF3939" />
  <path
    d="M357.474 29.8659L357.735 54.3853L358.069 127.958L357.921 201.531L357.722 226.055C357.722 226.103 357.665 226.15 357.562 226.185C357.46 226.219 357.321 226.239 357.177 226.239C357.032 226.239 356.893 226.219 356.791 226.185C356.689 226.15 356.631 226.103 356.631 226.055L356.396 201.535L356.061 127.962L356.179 54.3853L356.396 29.8659C356.396 29.8416 356.41 29.8174 356.438 29.795C356.466 29.7725 356.506 29.7521 356.558 29.735C356.609 29.7179 356.67 29.7044 356.737 29.6952C356.804 29.6861 356.875 29.6815 356.947 29.6818C357.088 29.684 357.221 29.7042 357.319 29.7385C357.417 29.7727 357.473 29.8183 357.474 29.8659Z"
    fill="#EF3939" />
  <path
    d="M373.906 34.7564L374.191 58.0563L374.556 127.956L374.408 197.856L374.203 221.156C374.203 221.194 374.158 221.231 374.078 221.258C373.998 221.285 373.889 221.3 373.775 221.3C373.662 221.3 373.553 221.285 373.473 221.258C373.393 221.231 373.348 221.194 373.348 221.156L373.069 197.858L372.697 127.956L372.846 58.0563L373.05 34.7564C373.05 34.7181 373.095 34.6814 373.176 34.6543C373.256 34.6273 373.365 34.6121 373.478 34.6121C373.591 34.6121 373.7 34.6273 373.78 34.6543C373.861 34.6814 373.906 34.7181 373.906 34.7564Z"
    fill="#EF3939" />
  <path
    d="M390.356 39.6469L390.653 61.7231L391.044 127.95L390.901 194.179L390.697 216.255C390.677 216.278 390.637 216.298 390.581 216.312C390.525 216.326 390.457 216.334 390.387 216.334C390.317 216.334 390.248 216.326 390.193 216.312C390.137 216.298 390.096 216.278 390.077 216.255L389.779 194.179L389.389 127.95L389.525 61.7231L389.736 39.6469C389.722 39.6307 389.72 39.6137 389.729 39.5971C389.738 39.5806 389.758 39.5649 389.788 39.5515C389.818 39.5381 389.857 39.5272 389.902 39.5197C389.947 39.5122 389.996 39.5082 390.046 39.5082C390.096 39.5082 390.145 39.5122 390.189 39.5197C390.234 39.5272 390.273 39.5381 390.303 39.5515C390.333 39.5649 390.353 39.5806 390.363 39.5971C390.372 39.6137 390.369 39.6307 390.356 39.6469Z"
    fill="#EF3939" />
  <path
    d="M406.818 44.5374L407.122 65.39L407.531 127.944L407.407 190.493L407.202 211.345C407.201 211.366 407.175 211.386 407.131 211.4C407.087 211.415 407.028 211.423 406.967 211.423C406.906 211.422 406.849 211.414 406.806 211.4C406.764 211.385 406.739 211.366 406.737 211.345L406.44 190.493L406.031 127.935L406.155 65.3816L406.359 44.529C406.361 44.5087 406.386 44.4893 406.428 44.4749C406.471 44.4605 406.528 44.4522 406.589 44.4516C406.621 44.4516 406.653 44.4538 406.683 44.4582C406.712 44.4626 406.739 44.4691 406.76 44.4772C406.782 44.4853 406.798 44.4948 406.808 44.5052C406.818 44.5156 406.821 44.5265 406.818 44.5374Z"
    fill="#EF3939" />
  <path
    d="M423.299 49.4279L423.596 69.0547L424.018 127.937L423.919 186.82L423.72 206.455C423.72 206.469 423.704 206.482 423.675 206.492C423.646 206.502 423.607 206.507 423.565 206.507C423.524 206.507 423.485 206.502 423.456 206.492C423.427 206.482 423.411 206.469 423.411 206.455L423.113 186.826L422.716 127.939L422.797 69.0631L422.989 49.4342C422.992 49.4208 423.01 49.4083 423.038 49.3991C423.067 49.3898 423.104 49.3844 423.144 49.384C423.181 49.3838 423.217 49.3881 423.246 49.3962C423.274 49.4043 423.293 49.4155 423.299 49.4279Z"
    fill="#EF3939" />
  <path
    d="M439.786 54.3184L440.084 72.7257L440.505 127.948L440.456 183.17L440.276 201.577C440.276 201.585 440.267 201.592 440.25 201.598C440.234 201.603 440.212 201.606 440.189 201.606C440.166 201.606 440.144 201.603 440.128 201.598C440.111 201.592 440.102 201.585 440.102 201.577L439.805 183.17L439.383 127.948L439.433 72.7257L439.613 54.3184C439.613 54.3106 439.622 54.3032 439.638 54.2977C439.654 54.2922 439.676 54.2891 439.699 54.2891C439.722 54.2891 439.744 54.2922 439.761 54.2977C439.777 54.3032 439.786 54.3106 439.786 54.3184Z"
    fill="#EF3939" />
  <path
    d="M456.292 59.2089L456.571 76.3883L456.992 127.925V179.463L456.806 196.643C456.806 196.646 456.802 196.649 456.795 196.652C456.789 196.654 456.779 196.655 456.769 196.655C456.759 196.655 456.75 196.654 456.743 196.652C456.736 196.649 456.732 196.646 456.732 196.643L456.441 179.472L456.025 127.935V76.3967L456.18 59.2172C456.18 59.2139 456.184 59.2107 456.191 59.2084C456.198 59.206 456.208 59.2047 456.218 59.2047C456.227 59.2047 456.237 59.206 456.244 59.2084C456.251 59.2107 456.255 59.2139 456.255 59.2172L456.292 59.2089Z"
    fill="#EF3939" />
  <path
    d="M472.81 64.0994L473.07 80.0552L473.48 127.918V175.784L473.356 191.74L473.095 175.784L472.686 127.921V80.0552L472.81 64.0994Z"
    fill="#EF3939" />
  <path d="M258.613 0.129688L472.81 64.0994L256.574 0.916183L258.613 0.129688Z" fill="#EF3939" />
  <path d="M258.464 28.4184L472.872 78.2814L256.723 29.2844L258.464 28.4184Z" fill="#EF3939" />
  <path d="M258.272 56.7092L472.928 92.4634L256.921 57.6505L258.272 56.7092Z" fill="#EF3939" />
  <path d="M258.031 85.0063L472.99 106.645L257.163 86.0104L258.031 85.0063Z" fill="#EF3939" />
  <path d="M257.745 113.316L473.052 120.827L257.448 114.358L257.745 113.316Z" fill="#EF3939" />
  <path d="M257.442 141.644L473.114 135.012L257.745 142.684L257.442 141.644Z" fill="#EF3939" />
  <path d="M257.157 169.992L473.176 149.194L258.031 170.996L257.157 169.992Z" fill="#EF3939" />
  <path d="M256.915 198.352L473.238 163.376L258.272 199.291L256.915 198.352Z" fill="#EF3939" />
  <path d="M256.723 226.718L473.294 177.558L258.464 227.582L256.723 226.718Z" fill="#EF3939" />
  <path d="M256.574 255.084L473.356 191.74L258.613 255.87L256.574 255.084Z" fill="#EF3939" />
  <path
    d="M513.644 256C513.233 256 512.839 255.945 512.548 255.847C512.257 255.749 512.094 255.616 512.094 255.477V0.522936C512.094 0.384244 512.257 0.251234 512.548 0.153164C512.839 0.0550948 513.233 0 513.644 0C514.055 0 514.449 0.0550948 514.739 0.153164C515.03 0.251234 515.193 0.384244 515.193 0.522936V255.477C515.193 255.616 515.03 255.749 514.739 255.847C514.449 255.945 514.055 256 513.644 256Z"
    fill="#EF3939" />
  <path
    d="M520.276 5.41343L520.288 250.566C520.301 250.628 520.275 250.691 520.213 250.749C520.151 250.808 520.054 250.862 519.927 250.908C519.801 250.954 519.648 250.99 519.478 251.015C519.308 251.04 519.125 251.053 518.94 251.053C518.755 251.053 518.572 251.04 518.402 251.015C518.232 250.99 518.079 250.954 517.953 250.908C517.826 250.862 517.729 250.808 517.667 250.749C517.605 250.691 517.579 250.628 517.592 250.566L517.58 5.41343C517.603 5.2981 517.755 5.19004 518.005 5.11112C518.255 5.0322 518.585 4.9883 518.928 4.9883C519.27 4.9883 519.6 5.0322 519.85 5.11112C520.1 5.19004 520.253 5.2981 520.276 5.41343Z"
    fill="#EF3939" />
  <path
    d="M525.377 10.3039L525.606 127.987L525.408 245.671C525.42 245.725 525.398 245.779 525.345 245.83C525.292 245.881 525.208 245.928 525.099 245.967C524.99 246.007 524.858 246.039 524.711 246.06C524.564 246.082 524.406 246.093 524.246 246.093C524.086 246.093 523.927 246.082 523.78 246.06C523.633 246.039 523.501 246.007 523.392 245.967C523.283 245.928 523.2 245.881 523.146 245.83C523.093 245.779 523.072 245.725 523.084 245.671L522.86 127.987L523.059 10.3039C523.08 10.2049 523.212 10.1122 523.428 10.0446C523.643 9.97693 523.927 9.93934 524.221 9.93934C524.515 9.93934 524.799 9.97693 525.014 10.0446C525.23 10.1122 525.362 10.2049 525.383 10.3039H525.377Z"
    fill="#EF3939" />
  <path
    d="M530.484 15.1944L530.8 127.981L530.528 240.768C530.508 240.852 530.395 240.93 530.212 240.987C530.029 241.044 529.788 241.076 529.539 241.076C529.29 241.076 529.049 241.044 528.866 240.987C528.683 240.93 528.57 240.852 528.55 240.768L528.234 127.981L528.513 15.1944C528.513 15.1062 528.617 15.0216 528.802 14.9592C528.987 14.8969 529.237 14.8618 529.499 14.8618C529.76 14.8618 530.011 14.8969 530.196 14.9592C530.38 15.0216 530.484 15.1062 530.484 15.1944Z"
    fill="#EF3939" />
  <path
    d="M535.61 20.0807L535.796 47.0642L536.007 127.992L535.839 208.911L535.666 235.882C535.676 235.92 535.662 235.959 535.625 235.996C535.588 236.033 535.528 236.067 535.451 236.095C535.373 236.124 535.278 236.147 535.173 236.162C535.067 236.178 534.954 236.186 534.838 236.186C534.723 236.186 534.609 236.178 534.504 236.162C534.399 236.147 534.304 236.124 534.226 236.095C534.149 236.067 534.089 236.033 534.052 235.996C534.015 235.959 534.001 235.92 534.011 235.882L533.825 208.911L533.62 127.992L533.788 47.0642L533.961 20.0807C533.961 20.0069 534.048 19.9362 534.203 19.884C534.357 19.8318 534.567 19.8025 534.786 19.8025C535.004 19.8025 535.214 19.8318 535.369 19.884C535.523 19.9362 535.61 20.0069 535.61 20.0807Z"
    fill="#EF3939" />
  <path
    d="M540.755 24.9754L540.965 50.7248L541.213 127.969L541.04 205.221L540.835 230.968C540.844 231 540.833 231.032 540.803 231.063C540.773 231.093 540.725 231.121 540.661 231.145C540.597 231.169 540.519 231.187 540.432 231.2C540.345 231.213 540.251 231.22 540.156 231.22C540.061 231.22 539.968 231.213 539.881 231.2C539.794 231.187 539.716 231.169 539.652 231.145C539.588 231.121 539.54 231.093 539.51 231.063C539.48 231.032 539.469 231 539.478 230.968L539.242 205.215L539.001 127.975L539.193 50.731L539.391 24.9817C539.391 24.9207 539.463 24.8621 539.591 24.819C539.719 24.7758 539.892 24.7516 540.073 24.7516C540.254 24.7516 540.427 24.7758 540.555 24.819C540.683 24.8621 540.755 24.9207 540.755 24.9817V24.9754Z"
    fill="#EF3939" />
  <path
    d="M545.905 29.8659L546.147 54.3853L546.414 127.958L546.203 201.531L545.986 226.055C545.986 226.104 545.928 226.151 545.824 226.186C545.721 226.221 545.581 226.241 545.434 226.241C545.291 226.24 545.154 226.22 545.052 226.186C544.95 226.151 544.892 226.105 544.889 226.057L544.653 201.531L544.381 127.958L544.591 54.3853L544.821 29.8659C544.835 29.8202 544.899 29.7779 545 29.7472C545.102 29.7164 545.233 29.6994 545.369 29.6994C545.505 29.6994 545.637 29.7164 545.738 29.7472C545.839 29.7779 545.903 29.8202 545.918 29.8659H545.905Z"
    fill="#EF3939" />
  <path
    d="M551.075 34.7564L551.329 58.0563L551.639 127.956L551.416 197.856L551.186 221.158C551.186 221.196 551.141 221.233 551.061 221.26C550.981 221.287 550.872 221.302 550.758 221.302C550.645 221.302 550.536 221.287 550.456 221.26C550.376 221.233 550.331 221.196 550.331 221.158L550.077 197.858L549.779 127.956L549.996 58.0563L550.232 34.7564C550.232 34.7181 550.277 34.6814 550.357 34.6543C550.437 34.6273 550.546 34.6121 550.659 34.6121C550.773 34.6121 550.882 34.6273 550.962 34.6543C551.042 34.6814 551.087 34.7181 551.087 34.7564H551.075Z"
    fill="#EF3939" />
  <path
    d="M556.25 39.6469L556.517 61.7231L556.796 127.95L556.597 194.179L556.362 216.255C556.342 216.278 556.302 216.298 556.246 216.312C556.19 216.326 556.122 216.334 556.052 216.334C555.982 216.334 555.914 216.326 555.858 216.312C555.802 216.298 555.761 216.278 555.742 216.255L555.475 194.179L555.159 127.95L555.358 61.7231L555.593 39.6469C555.595 39.6178 555.63 39.5902 555.691 39.5698C555.753 39.5495 555.836 39.5381 555.922 39.5381C555.964 39.5378 556.007 39.5404 556.047 39.5458C556.087 39.5511 556.123 39.5591 556.154 39.5692C556.184 39.5794 556.208 39.5914 556.225 39.6048C556.242 39.6181 556.25 39.6324 556.25 39.6469Z"
    fill="#EF3939" />
  <path
    d="M561.45 44.5374L561.717 65.39L562.027 127.944L561.804 190.493L561.568 211.345C561.567 211.366 561.542 211.385 561.499 211.4C561.457 211.414 561.399 211.422 561.339 211.423C561.278 211.423 561.22 211.415 561.177 211.4C561.134 211.386 561.109 211.366 561.109 211.345L560.837 190.493L560.527 127.935L560.75 65.3816L560.986 44.529C560.987 44.5087 561.012 44.4893 561.054 44.4749C561.097 44.4605 561.155 44.4522 561.215 44.4516C561.247 44.4516 561.28 44.4538 561.309 44.4582C561.339 44.4626 561.366 44.469 561.388 44.4771C561.41 44.4851 561.427 44.4947 561.438 44.505C561.449 44.5154 561.453 44.5264 561.45 44.5374Z"
    fill="#EF3939" />
  <path
    d="M566.657 49.4279L566.923 69.0547L567.233 127.937L567.023 186.82L566.787 206.455C566.78 206.467 566.761 206.477 566.733 206.485C566.706 206.493 566.671 206.497 566.635 206.497C566.599 206.497 566.565 206.493 566.537 206.485C566.509 206.477 566.49 206.467 566.483 206.455L566.223 186.826L565.894 127.937L566.118 69.0631L566.353 49.4342C566.36 49.4223 566.379 49.4117 566.407 49.4041C566.435 49.3964 566.469 49.3923 566.505 49.3923C566.541 49.3923 566.575 49.3964 566.603 49.4041C566.631 49.4117 566.65 49.4223 566.657 49.4342V49.4279Z"
    fill="#EF3939" />
  <path
    d="M571.876 54.3184L572.13 72.7257L572.434 127.948L572.241 183.17L572.024 201.577C572.024 201.585 572.015 201.592 571.999 201.598C571.983 201.603 571.961 201.606 571.938 201.606C571.915 201.606 571.893 201.603 571.876 201.598C571.86 201.592 571.851 201.585 571.851 201.577L571.597 183.17L571.293 127.948L571.485 72.7257L571.702 54.3184C571.702 54.3106 571.711 54.3032 571.728 54.2977C571.744 54.2922 571.766 54.2891 571.789 54.2891C571.812 54.2891 571.834 54.2922 571.85 54.2977C571.867 54.3032 571.876 54.3106 571.876 54.3184Z"
    fill="#EF3939" />
  <path
    d="M577.113 59.2089L577.349 76.3883L577.671 127.925L577.473 179.472L577.274 196.651C577.274 196.654 577.27 196.658 577.263 196.66C577.256 196.662 577.247 196.664 577.237 196.664C577.227 196.664 577.218 196.662 577.211 196.66C577.204 196.658 577.2 196.654 577.2 196.651L576.964 179.472L576.673 127.935L576.84 76.3967L577.039 59.2172C577.039 59.2139 577.043 59.2107 577.05 59.2084C577.057 59.206 577.066 59.2047 577.076 59.2047C577.086 59.2047 577.095 59.206 577.102 59.2084C577.109 59.2107 577.113 59.2139 577.113 59.2172V59.2089Z"
    fill="#EF3939" />
  <path
    d="M582.363 64.0994L582.574 80.0552L582.846 127.918L582.71 175.784L582.537 191.74L582.32 175.784L582.053 127.918L582.189 80.0552L582.363 64.0994Z"
    fill="#EF3939" />
  <path d="M515.094 0.343046L582.363 64.0994L512.187 0.702825L515.094 0.343046Z" fill="#EF3939" />
  <path d="M515.045 28.6297L582.382 78.2814L512.237 29.0731L515.045 28.6297Z" fill="#EF3939" />
  <path d="M514.933 56.8933L582.4 92.4634L512.348 57.4664L514.933 56.8933Z" fill="#EF3939" />
  <path d="M514.685 85.1214L582.419 106.645L512.596 85.8953L514.685 85.1214Z" fill="#EF3939" />
  <path d="M514.09 113.335L582.437 120.827L513.197 114.337L514.09 113.335Z" fill="#EF3939" />
  <path d="M513.185 141.665L582.456 135.012L514.096 142.663L513.185 141.665Z" fill="#EF3939" />
  <path d="M512.596 170.107L582.481 149.194L514.685 170.879L512.596 170.107Z" fill="#EF3939" />
  <path d="M512.348 198.534L582.499 163.376L514.939 199.109L512.348 198.534Z" fill="#EF3939" />
  <path d="M512.237 226.927L582.518 177.558L515.045 227.37L512.237 226.927Z" fill="#EF3939" />
  <path d="M512.187 255.299L582.537 191.74L515.094 255.657L512.187 255.299Z" fill="#EF3939" />
  <path
    d="M1278.45 256C1278.04 256 1277.65 255.945 1277.35 255.847C1277.06 255.749 1276.9 255.616 1276.9 255.477V0.522936C1276.9 0.384244 1277.06 0.251234 1277.35 0.153164C1277.65 0.0550948 1278.04 0 1278.45 0C1278.86 0 1279.26 0.0550948 1279.55 0.153164C1279.84 0.251234 1280 0.384244 1280 0.522936V255.477C1280 255.616 1279.84 255.749 1279.55 255.847C1279.26 255.945 1278.86 256 1278.45 256Z"
    fill="#EF3939" />
  <path
    d="M1251.97 5.41343L1251.9 250.566C1251.92 250.628 1251.89 250.691 1251.83 250.749C1251.77 250.808 1251.67 250.862 1251.54 250.908C1251.42 250.954 1251.26 250.99 1251.09 251.015C1250.92 251.04 1250.74 251.053 1250.56 251.053C1250.37 251.053 1250.19 251.04 1250.02 251.015C1249.85 250.99 1249.69 250.954 1249.57 250.908C1249.44 250.862 1249.34 250.808 1249.28 250.749C1249.22 250.691 1249.19 250.628 1249.21 250.566L1249.28 5.41343C1249.3 5.2981 1249.45 5.19004 1249.7 5.11112C1249.95 5.0322 1250.28 4.9883 1250.62 4.9883C1250.97 4.9883 1251.3 5.0322 1251.55 5.11112C1251.8 5.19004 1251.95 5.2981 1251.97 5.41343Z"
    fill="#EF3939" />
  <path
    d="M1223.96 10.3039L1224.1 127.987L1223.82 245.671C1223.82 245.775 1223.7 245.874 1223.48 245.948C1223.26 246.021 1222.97 246.062 1222.66 246.062C1222.35 246.062 1222.06 246.021 1221.84 245.948C1221.62 245.874 1221.5 245.775 1221.5 245.671L1221.36 127.987L1221.66 10.3039C1221.68 10.2049 1221.82 10.1122 1222.03 10.0446C1222.25 9.97693 1222.53 9.93934 1222.82 9.93934C1223.12 9.93934 1223.4 9.97693 1223.62 10.0446C1223.83 10.1122 1223.97 10.2049 1223.99 10.3039H1223.96Z"
    fill="#EF3939" />
  <path
    d="M1195.96 15.1944L1196.16 127.981L1195.75 240.768C1195.73 240.852 1195.62 240.93 1195.44 240.987C1195.26 241.044 1195.02 241.076 1194.77 241.076C1194.52 241.076 1194.28 241.044 1194.09 240.987C1193.91 240.93 1193.8 240.852 1193.78 240.768L1193.59 127.981L1193.99 15.1944C1193.99 15.1062 1194.1 15.0216 1194.28 14.9592C1194.47 14.8969 1194.72 14.8618 1194.98 14.8618C1195.24 14.8618 1195.49 14.8969 1195.68 14.9592C1195.86 15.0216 1195.96 15.1062 1195.96 15.1944Z"
    fill="#EF3939" />
  <path
    d="M1167.98 20.0807L1168.12 47.0642L1168.21 127.992L1167.91 208.911L1167.7 235.882C1167.7 235.955 1167.61 236.026 1167.45 236.078C1167.3 236.131 1167.09 236.16 1166.87 236.16C1166.65 236.16 1166.44 236.131 1166.29 236.078C1166.13 236.026 1166.05 235.955 1166.05 235.882L1165.88 208.894L1165.82 127.975L1166.12 47.0475L1166.33 20.0807C1166.33 20.0068 1166.42 19.936 1166.57 19.8839C1166.73 19.8318 1166.94 19.8025 1167.16 19.8025C1167.26 19.8022 1167.37 19.8093 1167.47 19.8231C1167.57 19.837 1167.66 19.8575 1167.74 19.8834C1167.82 19.9093 1167.88 19.9401 1167.92 19.9739C1167.96 20.0078 1167.98 20.0441 1167.98 20.0807Z"
    fill="#EF3939" />
  <path
    d="M1140.01 24.9754L1140.18 50.7248L1140.23 127.969L1139.91 205.221L1139.65 230.97C1139.66 231.002 1139.65 231.034 1139.62 231.065C1139.59 231.095 1139.54 231.123 1139.48 231.147C1139.42 231.171 1139.34 231.19 1139.25 231.203C1139.16 231.216 1139.07 231.222 1138.98 231.222C1138.88 231.222 1138.79 231.216 1138.7 231.203C1138.61 231.19 1138.54 231.171 1138.47 231.147C1138.41 231.123 1138.36 231.095 1138.33 231.065C1138.3 231.034 1138.29 231.002 1138.3 230.97L1138.14 205.223L1138.08 127.977L1138.43 50.7331L1138.68 24.9838C1138.7 24.9268 1138.78 24.8739 1138.9 24.8354C1139.03 24.7969 1139.19 24.7756 1139.36 24.7756C1139.53 24.7756 1139.69 24.7969 1139.82 24.8354C1139.94 24.8739 1140.02 24.9268 1140.04 24.9838L1140.01 24.9754Z"
    fill="#EF3939" />
  <path
    d="M1112.05 29.8659L1112.23 54.3916L1112.28 127.962L1111.88 201.535L1111.6 226.061C1111.61 226.087 1111.6 226.113 1111.58 226.138C1111.55 226.163 1111.51 226.186 1111.46 226.205C1111.41 226.224 1111.35 226.24 1111.28 226.251C1111.21 226.261 1111.13 226.267 1111.05 226.267C1110.98 226.267 1110.9 226.261 1110.83 226.251C1110.76 226.24 1110.69 226.224 1110.64 226.205C1110.59 226.186 1110.55 226.163 1110.53 226.138C1110.5 226.113 1110.5 226.087 1110.5 226.061L1110.33 201.537L1110.28 127.964L1110.68 54.3916L1110.96 29.868C1110.97 29.8223 1111.04 29.78 1111.14 29.7493C1111.24 29.7185 1111.37 29.7015 1111.51 29.7015C1111.64 29.7015 1111.77 29.7185 1111.87 29.7493C1111.98 29.78 1112.04 29.8223 1112.05 29.868V29.8659Z"
    fill="#EF3939" />
  <path
    d="M1084.11 34.7564L1084.29 58.0563L1084.34 127.956L1083.91 197.858L1083.61 221.158C1083.61 221.177 1083.6 221.196 1083.58 221.213C1083.56 221.231 1083.52 221.247 1083.48 221.26C1083.44 221.273 1083.39 221.284 1083.34 221.29C1083.29 221.297 1083.23 221.301 1083.18 221.3C1083.06 221.3 1082.96 221.284 1082.88 221.257C1082.8 221.23 1082.76 221.194 1082.76 221.156L1082.57 197.856L1082.53 127.956L1082.97 58.0563L1083.28 34.7564C1083.28 34.7181 1083.32 34.6814 1083.4 34.6543C1083.48 34.6273 1083.59 34.6121 1083.7 34.6121C1083.82 34.6121 1083.93 34.6273 1084.01 34.6543C1084.09 34.6814 1084.13 34.7181 1084.13 34.7564H1084.11Z"
    fill="#EF3939" />
  <path
    d="M1056.17 39.6469L1056.35 61.7231L1056.38 127.952L1055.9 194.179L1055.58 216.255C1055.58 216.269 1055.57 216.283 1055.56 216.296C1055.54 216.309 1055.52 216.321 1055.49 216.331C1055.46 216.341 1055.42 216.349 1055.38 216.354C1055.34 216.359 1055.3 216.362 1055.26 216.361C1055.18 216.361 1055.09 216.35 1055.03 216.33C1054.97 216.31 1054.94 216.283 1054.94 216.255L1054.76 194.179V127.95L1055.24 61.7231L1055.56 39.6469C1055.56 39.618 1055.59 39.5904 1055.65 39.57C1055.71 39.5496 1055.79 39.5381 1055.88 39.5381C1055.96 39.5407 1056.03 39.5533 1056.09 39.5734C1056.14 39.5936 1056.17 39.6198 1056.17 39.6469Z"
    fill="#EF3939" />
  <path
    d="M1028.28 44.5374L1028.45 65.39V127.946L1027.96 190.491L1027.63 211.343C1027.63 211.364 1027.6 211.383 1027.56 211.398C1027.52 211.412 1027.46 211.42 1027.4 211.421C1027.34 211.421 1027.28 211.413 1027.24 211.398C1027.19 211.384 1027.17 211.364 1027.17 211.343L1027 190.491V127.935L1027.5 65.3816L1027.84 44.529C1027.84 44.5085 1027.86 44.4888 1027.91 44.4743C1027.95 44.4598 1028.01 44.4516 1028.07 44.4516C1028.13 44.4537 1028.19 44.4639 1028.23 44.48C1028.27 44.496 1028.28 44.5166 1028.28 44.5374Z"
    fill="#EF3939" />
  <path
    d="M1000.39 49.4279L1000.55 69.0568V127.939L1000.02 186.82L999.687 206.449C999.68 206.461 999.661 206.471 999.633 206.479C999.605 206.486 999.571 206.491 999.535 206.491C999.499 206.491 999.465 206.486 999.437 206.479C999.409 206.471 999.39 206.461 999.383 206.449L999.222 186.82V127.937L999.749 69.0547L1000.08 49.4279C1000.09 49.4161 1000.11 49.4054 1000.14 49.3978C1000.17 49.3902 1000.2 49.386 1000.24 49.386C1000.27 49.386 1000.31 49.3902 1000.33 49.3978C1000.36 49.4054 1000.38 49.4161 1000.39 49.4279Z"
    fill="#EF3939" />
  <path
    d="M972.496 54.3184L972.632 72.7257L972.601 127.948L972.062 183.17L971.727 201.577C971.727 201.585 971.718 201.592 971.702 201.598C971.685 201.603 971.663 201.606 971.64 201.606C971.617 201.606 971.595 201.603 971.579 201.598C971.563 201.592 971.553 201.585 971.553 201.577L971.417 183.17L971.454 127.948L971.993 72.7257L972.328 54.3184C972.328 54.3106 972.337 54.3032 972.354 54.2977C972.37 54.2922 972.392 54.2891 972.415 54.2891C972.438 54.2891 972.46 54.2922 972.476 54.2977C972.493 54.3032 972.502 54.3106 972.502 54.3184H972.496Z"
    fill="#EF3939" />
  <path
    d="M944.604 59.2089L944.715 76.3883L944.653 127.927L944.108 179.463L943.786 196.643C943.786 196.646 943.782 196.649 943.775 196.652C943.768 196.654 943.758 196.655 943.748 196.655C943.738 196.655 943.729 196.654 943.722 196.652C943.715 196.649 943.711 196.646 943.711 196.643L943.6 179.463L943.662 127.925L944.213 76.3883L944.536 59.2089C944.536 59.2055 944.539 59.2023 944.546 59.2C944.553 59.1976 944.563 59.1963 944.573 59.1963C944.581 59.1968 944.589 59.1984 944.595 59.2007C944.601 59.203 944.604 59.2059 944.604 59.2089Z"
    fill="#EF3939" />
  <path
    d="M916.743 64.0994L916.817 80.0552L916.675 127.921L916.129 175.784L915.819 191.74L915.745 175.784L915.888 127.918L916.433 80.0552L916.743 64.0994Z"
    fill="#EF3939" />
  <path d="M1279.16 0.987302L916.743 64.0994L1277.73 0.0585688L1279.16 0.987302Z" fill="#EF3939" />
  <path d="M1279.03 29.3367L916.637 78.2814L1277.87 28.3661L1279.03 29.3367Z" fill="#EF3939" />
  <path d="M1278.88 57.6819L916.538 92.4634L1278.02 56.6779L1278.88 57.6819Z" fill="#EF3939" />
  <path d="M1278.71 86.0229L916.433 106.645L1278.18 84.9917L1278.71 86.0229Z" fill="#EF3939" />
  <path d="M1278.54 114.358L916.334 120.827L1278.36 113.314L1278.54 114.358Z" fill="#EF3939" />
  <path d="M1278.36 142.686L916.228 135.012L1278.54 141.642L1278.36 142.686Z" fill="#EF3939" />
  <path d="M1278.18 171.008L916.129 149.194L1278.72 169.977L1278.18 171.008Z" fill="#EF3939" />
  <path d="M1278.02 199.324L916.024 163.376L1278.88 198.318L1278.02 199.324Z" fill="#EF3939" />
  <path d="M1277.87 227.634L915.925 177.558L1279.03 226.665L1277.87 227.634Z" fill="#EF3939" />
  <path d="M1277.73 255.941L915.819 191.74L1279.16 255.015L1277.73 255.941Z" fill="#EF3939" />
  <path
    d="M1022.4 256C1021.99 256 1021.6 255.945 1021.31 255.847C1021.02 255.749 1020.85 255.616 1020.85 255.477V0.522936C1020.85 0.384244 1021.02 0.251234 1021.31 0.153164C1021.6 0.0550948 1021.99 0 1022.4 0C1022.81 0 1023.21 0.0550948 1023.5 0.153164C1023.79 0.251234 1023.95 0.384244 1023.95 0.522936V255.477C1023.95 255.616 1023.79 255.749 1023.5 255.847C1023.21 255.945 1022.81 256 1022.4 256Z"
    fill="#EF3939" />
  <path
    d="M1007.21 5.41343L1007.16 250.566C1007.17 250.628 1007.15 250.691 1007.09 250.749C1007.02 250.808 1006.93 250.862 1006.8 250.908C1006.67 250.954 1006.52 250.99 1006.35 251.015C1006.18 251.04 1006 251.053 1005.81 251.053C1005.63 251.053 1005.45 251.04 1005.28 251.015C1005.11 250.99 1004.95 250.954 1004.83 250.908C1004.7 250.862 1004.6 250.808 1004.54 250.749C1004.48 250.691 1004.45 250.628 1004.47 250.566L1004.5 5.41343C1004.5 5.29249 1004.65 5.17651 1004.9 5.09099C1005.15 5.00547 1005.5 4.95743 1005.85 4.95743C1006.21 4.95743 1006.56 5.00547 1006.81 5.09099C1007.06 5.17651 1007.21 5.29249 1007.21 5.41343Z"
    fill="#EF3939" />
  <path
    d="M990.47 10.3039L990.644 127.987L990.39 245.671C990.401 245.725 990.38 245.779 990.327 245.83C990.274 245.881 990.19 245.928 990.081 245.967C989.972 246.007 989.84 246.039 989.693 246.06C989.546 246.082 989.388 246.093 989.228 246.093C989.067 246.093 988.909 246.082 988.762 246.06C988.615 246.039 988.483 246.007 988.374 245.967C988.265 245.928 988.181 245.881 988.128 245.83C988.075 245.779 988.054 245.725 988.065 245.671L987.898 127.987L988.152 10.3039C988.152 10.2002 988.274 10.1007 988.492 10.0273C988.709 9.95398 989.004 9.91277 989.311 9.91277C989.619 9.91277 989.913 9.95398 990.131 10.0273C990.348 10.1007 990.47 10.2002 990.47 10.3039Z"
    fill="#EF3939" />
  <path
    d="M973.735 15.1944L973.971 127.981L973.611 240.768C973.611 240.856 973.507 240.941 973.323 241.003C973.138 241.065 972.887 241.101 972.626 241.101C972.364 241.101 972.114 241.065 971.929 241.003C971.744 240.941 971.64 240.856 971.64 240.768L971.405 127.981L971.764 15.1944C971.764 15.1062 971.868 15.0216 972.053 14.9592C972.238 14.8969 972.488 14.8618 972.75 14.8618C973.011 14.8618 973.262 14.8969 973.447 14.9592C973.631 15.0216 973.735 15.1062 973.735 15.1944Z"
    fill="#EF3939" />
  <path
    d="M957 20.0807L957.155 47.0642L957.279 127.992L957.031 208.911L956.826 235.882C956.826 235.955 956.74 236.026 956.585 236.078C956.43 236.131 956.221 236.16 956.002 236.16C955.784 236.16 955.574 236.131 955.419 236.078C955.265 236.026 955.178 235.955 955.178 235.882L955.017 208.911L954.893 127.992L955.147 47.0642L955.358 20.0807C955.375 20.0108 955.47 19.9458 955.624 19.8983C955.777 19.8509 955.977 19.8246 956.185 19.8246C956.393 19.8246 956.593 19.8509 956.746 19.8983C956.9 19.9458 956.995 20.0108 957.012 20.0807H957Z"
    fill="#EF3939" />
  <path
    d="M940.308 24.9754L940.488 50.7248L940.631 127.969L940.333 205.221L940.098 230.97C940.107 231.002 940.096 231.034 940.066 231.065C940.036 231.095 939.987 231.123 939.923 231.147C939.86 231.171 939.782 231.19 939.695 231.203C939.608 231.216 939.514 231.222 939.419 231.222C939.324 231.222 939.23 231.216 939.143 231.203C939.056 231.19 938.978 231.171 938.914 231.147C938.85 231.123 938.802 231.095 938.772 231.065C938.742 231.034 938.731 231.002 938.74 230.97L938.554 205.223L938.405 127.969L938.703 50.7248L938.939 24.9754C938.955 24.9184 939.033 24.8655 939.159 24.827C939.284 24.7886 939.448 24.7672 939.617 24.7672C939.787 24.7672 939.95 24.7886 940.076 24.827C940.201 24.8655 940.28 24.9184 940.296 24.9754H940.308Z"
    fill="#EF3939" />
  <path
    d="M923.623 29.8659L923.815 54.3895L923.964 127.962L923.629 201.535L923.369 226.061C923.377 226.087 923.369 226.113 923.345 226.138C923.321 226.163 923.282 226.186 923.23 226.205C923.179 226.224 923.115 226.24 923.045 226.251C922.974 226.261 922.898 226.267 922.82 226.267C922.743 226.267 922.666 226.261 922.596 226.251C922.525 226.24 922.462 226.224 922.41 226.205C922.358 226.186 922.319 226.163 922.295 226.138C922.272 226.113 922.263 226.087 922.272 226.061L922.073 201.537L921.931 127.964L922.29 54.3853L922.551 29.8617C922.565 29.816 922.629 29.7737 922.73 29.743C922.832 29.7123 922.963 29.6953 923.099 29.6953C923.235 29.6953 923.367 29.7123 923.468 29.743C923.569 29.7737 923.633 29.816 923.648 29.8617L923.623 29.8659Z"
    fill="#EF3939" />
  <path
    d="M906.943 34.7564L907.154 58.0563L907.297 127.956L906.931 197.858L906.652 221.158C906.652 221.177 906.641 221.195 906.62 221.213C906.598 221.23 906.566 221.246 906.527 221.259C906.487 221.272 906.44 221.283 906.388 221.29C906.336 221.297 906.28 221.3 906.224 221.3C906.168 221.3 906.113 221.296 906.061 221.289C906.009 221.282 905.962 221.271 905.922 221.258C905.882 221.244 905.851 221.229 905.829 221.211C905.808 221.193 905.797 221.175 905.797 221.156L905.586 197.856L905.462 127.956L905.828 58.0563L906.107 34.7564C906.11 34.7181 906.157 34.6817 906.238 34.6548C906.319 34.6279 906.427 34.6126 906.541 34.6121C906.65 34.6137 906.754 34.6297 906.829 34.6566C906.904 34.6836 906.945 34.7194 906.943 34.7564Z"
    fill="#EF3939" />
  <path
    d="M890.289 39.6469L890.493 61.7231L890.636 127.95L890.246 194.179L889.948 216.255C889.948 216.269 889.94 216.283 889.923 216.296C889.907 216.309 889.883 216.321 889.853 216.331C889.823 216.341 889.788 216.349 889.749 216.354C889.71 216.359 889.668 216.362 889.626 216.361C889.584 216.362 889.542 216.359 889.503 216.354C889.464 216.349 889.428 216.341 889.398 216.331C889.368 216.321 889.344 216.309 889.328 216.296C889.312 216.283 889.303 216.269 889.303 216.255L889.093 194.179L888.956 127.95L889.347 61.7231L889.638 39.6469C889.661 39.6252 889.703 39.6065 889.758 39.5932C889.814 39.5799 889.88 39.5728 889.948 39.5728C890.016 39.5728 890.082 39.5799 890.138 39.5932C890.193 39.6065 890.235 39.6252 890.258 39.6469H890.289Z"
    fill="#EF3939" />
  <path
    d="M873.641 44.5374L873.845 65.39L873.969 127.944L873.56 190.491L873.263 211.343C873.254 211.362 873.225 211.379 873.183 211.391C873.14 211.403 873.086 211.41 873.03 211.41C872.974 211.41 872.92 211.403 872.878 211.391C872.835 211.379 872.807 211.362 872.798 211.343L872.593 190.491L872.469 127.935L872.878 65.3816L873.176 44.529C873.185 44.5104 873.213 44.4935 873.256 44.4813C873.298 44.4691 873.352 44.4624 873.408 44.4624C873.464 44.4624 873.518 44.4691 873.561 44.4813C873.603 44.4935 873.632 44.5104 873.641 44.529V44.5374Z"
    fill="#EF3939" />
  <path
    d="M857.005 49.4279L857.203 69.0568L857.302 127.939L856.887 186.82L856.589 206.455C856.582 206.467 856.563 206.477 856.536 206.485C856.508 206.493 856.473 206.497 856.438 206.497C856.402 206.497 856.367 206.493 856.34 206.485C856.312 206.477 856.293 206.467 856.286 206.455L856.094 186.826L855.97 127.937L856.391 69.0547L856.689 49.4279C856.696 49.4161 856.715 49.4054 856.742 49.3978C856.77 49.3902 856.805 49.386 856.84 49.386C856.876 49.386 856.911 49.3902 856.939 49.3978C856.966 49.4054 856.985 49.4161 856.992 49.4279H857.005Z"
    fill="#EF3939" />
  <path
    d="M840.387 54.3184L840.567 72.7257L840.617 127.948L840.195 183.17L839.898 201.577C839.898 201.585 839.889 201.592 839.872 201.598C839.856 201.603 839.834 201.606 839.811 201.606C839.8 201.606 839.788 201.606 839.778 201.604C839.767 201.603 839.758 201.6 839.75 201.598C839.742 201.595 839.735 201.592 839.731 201.588C839.726 201.585 839.724 201.581 839.724 201.577L839.544 183.17L839.495 127.948L839.916 72.7257L840.214 54.3184C840.214 54.3106 840.223 54.3032 840.239 54.2977C840.255 54.2922 840.278 54.2891 840.301 54.2891C840.324 54.2891 840.346 54.2922 840.362 54.2977C840.378 54.3032 840.387 54.3106 840.387 54.3184Z"
    fill="#EF3939" />
  <path
    d="M823.782 59.2089L823.937 76.3883V127.927L823.522 179.463L823.237 196.643C823.237 196.646 823.233 196.649 823.226 196.652C823.219 196.654 823.21 196.655 823.2 196.655C823.19 196.655 823.18 196.654 823.173 196.652C823.166 196.649 823.163 196.646 823.163 196.643L823.008 179.463V127.925L823.423 76.3883L823.708 59.2089C823.708 59.2055 823.712 59.2023 823.719 59.2C823.726 59.1976 823.735 59.1963 823.745 59.1963C823.755 59.1963 823.765 59.1976 823.771 59.2C823.778 59.2023 823.782 59.2055 823.782 59.2089Z"
    fill="#EF3939" />
  <path
    d="M807.19 64.0994L807.314 80.0552L807.308 127.921L806.905 175.784L806.638 191.74L806.514 175.784L806.52 127.918L806.93 80.0552L807.19 64.0994Z"
    fill="#EF3939" />
  <path d="M1023.43 0.916183L807.19 64.0994L1021.38 0.129688L1023.43 0.916183Z" fill="#EF3939" />
  <path d="M1023.28 29.2844L807.128 78.2814L1021.53 28.4184L1023.28 29.2844Z" fill="#EF3939" />
  <path d="M1023.08 57.6505L807.066 92.4634L1021.73 56.7092L1023.08 57.6505Z" fill="#EF3939" />
  <path d="M1022.84 86.0104L807.004 106.645L1021.97 85.0063L1022.84 86.0104Z" fill="#EF3939" />
  <path d="M1022.55 114.358L806.948 120.827L1022.25 113.316L1022.55 114.358Z" fill="#EF3939" />
  <path d="M1022.25 142.684L806.886 135.012L1022.55 141.644L1022.25 142.684Z" fill="#EF3939" />
  <path d="M1021.97 170.996L806.824 149.194L1022.84 169.992L1021.97 170.996Z" fill="#EF3939" />
  <path d="M1021.72 199.291L806.762 163.376L1023.08 198.352L1021.72 199.291Z" fill="#EF3939" />
  <path d="M1021.53 227.582L806.7 177.558L1023.28 226.718L1021.53 227.582Z" fill="#EF3939" />
  <path d="M1021.38 255.87L806.638 191.74L1023.43 255.084L1021.38 255.87Z" fill="#EF3939" />
  <path
    d="M766.356 256C765.945 256 765.551 255.945 765.261 255.847C764.97 255.749 764.807 255.616 764.807 255.477V0.522936C764.807 0.384244 764.97 0.251234 765.261 0.153164C765.551 0.0550948 765.945 0 766.356 0C766.767 0 767.161 0.0550948 767.452 0.153164C767.742 0.251234 767.906 0.384244 767.906 0.522936V255.477C767.906 255.616 767.742 255.749 767.452 255.847C767.161 255.945 766.767 256 766.356 256Z"
    fill="#EF3939" />
  <path
    d="M762.42 5.41343L762.408 250.566C762.421 250.628 762.395 250.691 762.333 250.749C762.271 250.808 762.174 250.862 762.047 250.908C761.921 250.954 761.768 250.99 761.598 251.015C761.428 251.04 761.245 251.053 761.06 251.053C760.875 251.053 760.692 251.04 760.522 251.015C760.352 250.99 760.199 250.954 760.073 250.908C759.946 250.862 759.849 250.808 759.787 250.749C759.725 250.691 759.699 250.628 759.712 250.566L759.724 5.41343C759.747 5.2981 759.899 5.19004 760.15 5.11112C760.4 5.0322 760.73 4.9883 761.072 4.9883C761.415 4.9883 761.745 5.0322 761.995 5.11112C762.245 5.19004 762.397 5.2981 762.42 5.41343Z"
    fill="#EF3939" />
  <path
    d="M756.947 10.3039L757.146 127.987L756.916 245.671C756.916 245.775 756.794 245.874 756.577 245.948C756.36 246.021 756.065 246.062 755.757 246.062C755.45 246.062 755.155 246.021 754.938 245.948C754.72 245.874 754.598 245.775 754.598 245.671L754.4 127.987L754.623 10.3039C754.645 10.2049 754.776 10.1122 754.992 10.0446C755.207 9.97693 755.491 9.93934 755.785 9.93934C756.08 9.93934 756.363 9.97693 756.579 10.0446C756.794 10.1122 756.926 10.2049 756.947 10.3039Z"
    fill="#EF3939" />
  <path
    d="M751.487 15.1944L751.759 127.981L751.443 240.768C751.443 240.856 751.34 240.941 751.155 241.003C750.97 241.065 750.719 241.101 750.458 241.101C750.197 241.101 749.946 241.065 749.761 241.003C749.576 240.941 749.472 240.856 749.472 240.768L749.193 127.981L749.51 15.1944C749.529 15.1105 749.642 15.0322 749.825 14.975C750.008 14.9179 750.249 14.8862 750.498 14.8862C750.748 14.8862 750.988 14.9179 751.171 14.975C751.354 15.0322 751.467 15.1105 751.487 15.1944Z"
    fill="#EF3939" />
  <path
    d="M746.039 20.0807L746.212 47.0642L746.379 127.992L746.169 208.911L745.983 235.882C745.983 235.955 745.896 236.026 745.741 236.078C745.587 236.131 745.377 236.16 745.158 236.16C744.94 236.16 744.73 236.131 744.576 236.078C744.421 236.026 744.334 235.955 744.334 235.882L744.161 208.911L743.993 127.992L744.198 47.0642L744.402 20.0807C744.404 20.0068 744.492 19.936 744.648 19.8839C744.803 19.8318 745.014 19.8025 745.233 19.8025C745.449 19.8036 745.655 19.8335 745.806 19.8856C745.956 19.9377 746.04 20.0079 746.039 20.0807Z"
    fill="#EF3939" />
  <path
    d="M740.609 24.9754L740.807 50.7248L740.999 127.969L740.758 205.221L740.541 230.968C740.541 231.029 740.469 231.088 740.341 231.131C740.213 231.174 740.04 231.198 739.859 231.198C739.678 231.198 739.505 231.174 739.377 231.131C739.249 231.088 739.177 231.029 739.177 230.968L738.979 205.221L738.787 127.975L739.028 50.731L739.245 24.9817C739.245 24.9207 739.317 24.8621 739.445 24.819C739.573 24.7758 739.746 24.7516 739.927 24.7516C740.108 24.7516 740.281 24.7758 740.409 24.819C740.537 24.8621 740.609 24.9207 740.609 24.9817V24.9754Z"
    fill="#EF3939" />
  <path
    d="M735.186 29.8659L735.409 54.3895L735.613 127.962L735.347 201.535L735.105 226.061C735.105 226.11 735.048 226.157 734.945 226.191C734.843 226.226 734.704 226.245 734.56 226.245C734.415 226.245 734.276 226.226 734.174 226.191C734.072 226.157 734.014 226.11 734.014 226.061L733.791 201.537L733.586 127.964L733.865 54.3853L734.107 29.8617C734.107 29.8129 734.164 29.7661 734.267 29.7316C734.369 29.697 734.508 29.6776 734.653 29.6776C734.797 29.6776 734.936 29.697 735.038 29.7316C735.14 29.7661 735.198 29.8129 735.198 29.8617L735.186 29.8659Z"
    fill="#EF3939" />
  <path
    d="M729.781 34.7564L730.016 58.0563L730.233 127.956L729.942 197.858L729.688 221.158C729.688 221.196 729.643 221.233 729.562 221.26C729.482 221.287 729.373 221.302 729.26 221.302C729.147 221.302 729.038 221.287 728.958 221.26C728.877 221.233 728.832 221.196 728.832 221.158L728.597 197.856L728.38 127.956L728.671 58.0563L728.925 34.7564C728.925 34.7181 728.97 34.6814 729.051 34.6543C729.131 34.6273 729.24 34.6121 729.353 34.6121C729.466 34.6121 729.575 34.6273 729.655 34.6543C729.736 34.6814 729.781 34.7181 729.781 34.7564Z"
    fill="#EF3939" />
  <path
    d="M724.388 39.6469L724.63 61.7231L724.853 127.95L724.568 194.179L724.301 216.255C724.282 216.278 724.242 216.298 724.186 216.312C724.13 216.326 724.062 216.334 723.992 216.334C723.922 216.334 723.853 216.326 723.798 216.312C723.742 216.298 723.701 216.278 723.682 216.255L723.44 194.179L723.18 127.95L723.483 61.7231L723.75 39.6469C723.736 39.6307 723.734 39.6137 723.743 39.5971C723.752 39.5806 723.772 39.5649 723.803 39.5515C723.833 39.5381 723.871 39.5272 723.916 39.5197C723.961 39.5122 724.01 39.5082 724.06 39.5082C724.11 39.5082 724.159 39.5122 724.204 39.5197C724.248 39.5272 724.287 39.5381 724.317 39.5515C724.347 39.5649 724.367 39.5806 724.377 39.5971C724.386 39.6137 724.383 39.6307 724.37 39.6469H724.388Z"
    fill="#EF3939" />
  <path
    d="M718.99 44.5374L719.225 65.39L719.448 127.944L719.157 190.491L718.89 211.343C718.889 211.364 718.864 211.383 718.822 211.398C718.779 211.412 718.721 211.42 718.661 211.421C718.6 211.421 718.542 211.413 718.499 211.398C718.456 211.384 718.432 211.364 718.432 211.343L718.19 190.491L717.973 127.935L718.283 65.3816L718.55 44.529C718.559 44.5104 718.587 44.4935 718.63 44.4813C718.672 44.4691 718.726 44.4624 718.782 44.4624C718.838 44.4624 718.892 44.4691 718.935 44.4813C718.977 44.4935 719.005 44.5104 719.014 44.529L718.99 44.5374Z"
    fill="#EF3939" />
  <path
    d="M713.647 49.4279L713.876 69.0568L714.087 127.937L713.777 186.82L713.511 206.449C713.503 206.461 713.484 206.471 713.457 206.479C713.429 206.486 713.394 206.491 713.359 206.491C713.323 206.491 713.288 206.486 713.261 206.479C713.233 206.471 713.214 206.461 713.207 206.449L712.977 186.82L712.791 127.937L713.101 69.0547L713.368 49.4279C713.375 49.4161 713.394 49.4054 713.422 49.3978C713.449 49.3902 713.484 49.386 713.52 49.386C713.556 49.386 713.59 49.3902 713.618 49.3978C713.646 49.4054 713.665 49.4161 713.672 49.4279H713.647Z"
    fill="#EF3939" />
  <path
    d="M708.298 54.3184L708.515 72.7257L708.707 127.948L708.403 183.17L708.149 201.577C708.149 201.581 708.147 201.585 708.142 201.588C708.138 201.592 708.132 201.595 708.124 201.598C708.116 201.6 708.106 201.603 708.095 201.604C708.085 201.606 708.074 201.606 708.062 201.606C708.039 201.606 708.017 201.603 708.001 201.598C707.985 201.592 707.975 201.585 707.975 201.577L707.759 183.17L707.56 127.948L707.864 72.7257L708.118 54.3184C708.12 54.3104 708.13 54.303 708.147 54.2975C708.165 54.2921 708.187 54.2891 708.211 54.2891C708.234 54.2891 708.256 54.2922 708.272 54.2977C708.289 54.3032 708.298 54.3106 708.298 54.3184Z"
    fill="#EF3939" />
  <path
    d="M702.961 59.2089L703.159 76.3883L703.327 127.927L703.036 179.463L702.8 196.643C702.8 196.646 702.796 196.649 702.789 196.652C702.782 196.654 702.773 196.655 702.763 196.655C702.753 196.655 702.744 196.654 702.737 196.652C702.73 196.649 702.726 196.646 702.726 196.643L702.527 179.463L702.36 127.925L702.645 76.3883L702.887 59.2089C702.887 59.2072 702.888 59.2056 702.89 59.2041C702.891 59.2025 702.894 59.2012 702.898 59.2C702.901 59.1988 702.905 59.1979 702.91 59.1973C702.914 59.1966 702.919 59.1963 702.924 59.1963C702.929 59.1963 702.934 59.1966 702.938 59.1973C702.943 59.1979 702.947 59.1988 702.95 59.2C702.954 59.2012 702.956 59.2025 702.958 59.2041C702.96 59.2056 702.961 59.2072 702.961 59.2089Z"
    fill="#EF3939" />
  <path
    d="M697.637 64.0994L697.81 80.0552L697.947 127.918L697.674 175.784L697.463 191.74L697.29 175.784L697.153 127.918L697.42 80.0552L697.637 64.0994Z"
    fill="#EF3939" />
  <path d="M767.813 0.702825L697.637 64.0994L764.9 0.343046L767.813 0.702825Z" fill="#EF3939" />
  <path d="M767.757 29.0731L697.618 78.2814L764.955 28.6297L767.757 29.0731Z" fill="#EF3939" />
  <path d="M767.652 57.4664L697.6 92.4634L765.061 56.8933L767.652 57.4664Z" fill="#EF3939" />
  <path d="M767.404 85.8953L697.581 106.645L765.315 85.1214L767.404 85.8953Z" fill="#EF3939" />
  <path d="M766.803 114.337L697.556 120.827L765.91 113.335L766.803 114.337Z" fill="#EF3939" />
  <path d="M765.904 142.663L697.538 135.012L766.815 141.665L765.904 142.663Z" fill="#EF3939" />
  <path d="M765.309 170.879L697.519 149.194L767.404 170.107L765.309 170.879Z" fill="#EF3939" />
  <path d="M765.061 199.109L697.501 163.376L767.652 198.534L765.061 199.109Z" fill="#EF3939" />
  <path d="M764.955 227.37L697.482 177.558L767.757 226.927L764.955 227.37Z" fill="#EF3939" />
  <path d="M764.9 255.657L697.463 191.74L767.813 255.299L764.9 255.657Z" fill="#EF3939" />
  <path
    d="M640 0.522936L640.328 8.49038L641.06 32.3927C641.316 43.0146 641.523 53.6379 641.68 64.2625C641.884 74.8844 641.928 85.5083 642.045 96.1302L642.163 128L642.045 159.87C641.928 170.494 641.884 181.116 641.68 191.74C641.475 202.364 641.308 212.985 641.06 223.609L640.328 247.51L640 255.477L639.671 247.51L638.94 223.609C638.688 212.986 638.481 202.363 638.32 191.74C638.122 181.116 638.079 170.494 637.961 159.87L637.843 128L637.961 96.1302C638.079 85.5083 638.122 74.8844 638.32 64.2625C638.519 53.6406 638.698 43.0146 638.94 32.3927L639.671 8.49038L640 0.522936Z"
    fill="#EF3939" />
</svg>