<svg width="1200" height="512" viewBox="0 0 1200 512" fill="none" xmlns="http://www.w3.org/2000/svg">
<path d="M1200 0V511.877L1.68475 511.877L1.68475 0L1200 0ZM1197.13 510.327V1.55005L4.54041 1.55005L4.54041 510.327L1197.13 510.327Z" fill="#EF3939"/>
<path d="M694.009 216V295.877H507.65V216H694.009ZM691.145 294.327V217.55H510.523V294.327H691.145Z" fill="#EF3939"/>
<path d="M1198.3 0.459137V511.977L691.145 295.477V216.959L691.684 216.727L1198.3 0.459137ZM1195.43 508.777V3.65927L694.009 217.709V294.714L1195.43 508.777Z" fill="#EF3939"/>
<path d="M1071.22 55.0807V457.351H1074.09V55.0807H1071.22Z" fill="#EF3939"/>
<path d="M989.886 89.8055V422.635H992.758V89.8055H989.886Z" fill="#EF3939"/>
<path d="M932.503 114.303V398.138H935.376V114.303H932.503Z" fill="#EF3939"/>
<path d="M889.845 132.513V379.928H892.718V132.513H889.845Z" fill="#EF3939"/>
<path d="M856.883 146.582V365.859H859.755V146.582H856.883Z" fill="#EF3939"/>
<path d="M830.66 157.778V354.663H833.532V157.778H830.66Z" fill="#EF3939"/>
<path d="M809.297 166.897V345.54H812.17V166.897H809.297Z" fill="#EF3939"/>
<path d="M791.548 174.47V337.966H794.421V174.47H791.548Z" fill="#EF3939"/>
<path d="M776.579 180.857V331.575H779.452V180.857H776.579Z" fill="#EF3939"/>
<path d="M763.783 186.325V326.116H766.656V186.325H763.783Z" fill="#EF3939"/>
<path d="M752.715 191.048V321.388H755.587V191.048H752.715Z" fill="#EF3939"/>
<path d="M743.052 195.171V317.261H745.925V195.171H743.052Z" fill="#EF3939"/>
<path d="M734.536 198.812V313.629H737.409V198.812H734.536Z" fill="#EF3939"/>
<path d="M726.98 202.035V310.401H729.852V202.035H726.98Z" fill="#EF3939"/>
<path d="M720.224 204.922V307.519H723.097V204.922H720.224Z" fill="#EF3939"/>
<path d="M714.151 207.513V304.928H717.023V207.513H714.151Z" fill="#EF3939"/>
<path d="M708.667 209.854V302.582H711.539V209.854H708.667Z" fill="#EF3939"/>
<path d="M703.68 211.981V300.455H706.552V211.981H703.68Z" fill="#EF3939"/>
<path d="M699.131 213.922V298.514H702.003V213.922H699.131Z" fill="#EF3939"/>
<path d="M694.97 215.7V296.737L697.842 296.737V215.7H694.97Z" fill="#EF3939"/>
<path d="M691.785 220.408L693.457 221.669L1197.76 26.91L1196.08 25.6494L691.785 220.408Z" fill="#EF3939"/>
<path d="M691.725 224.083L693.275 225.388L1197.53 51.0959L1195.99 49.7906L691.725 224.083Z" fill="#EF3939"/>
<path d="M691.853 227.766L693.266 229.116L1197.55 75.3417L1196.14 73.9922L691.853 227.766Z" fill="#EF3939"/>
<path d="M691.972 231.455L693.236 232.848L1197.53 99.5892L1196.27 98.197L691.972 231.455Z" fill="#EF3939"/>
<path d="M691.995 235.127L693.094 236.559L1197.37 123.785L1196.28 122.353L691.995 235.127Z" fill="#EF3939"/>
<path d="M692.095 238.81L693.017 240.279L1197.3 148.009L1196.38 146.541L692.095 238.81Z" fill="#EF3939"/>
<path d="M692.236 242.517L692.968 244.016L1197.26 172.268L1196.53 170.769L692.236 242.517Z" fill="#EF3939"/>
<path d="M692.282 246.185L692.813 247.708L1197.09 196.437L1196.56 194.914L692.282 246.185Z" fill="#EF3939"/>
<path d="M692.395 249.878L692.718 251.418L1197 220.654L1196.68 219.114L692.395 249.878Z" fill="#EF3939"/>
<path d="M692.498 253.576L692.606 255.125L1196.89 244.861L1196.78 243.312L692.498 253.576Z" fill="#EF3939"/>
<path d="M692.464 258.874L1196.75 269.09L1196.86 267.541L692.572 257.325L692.464 258.874Z" fill="#EF3939"/>
<path d="M692.442 262.535L1196.73 293.3L1197.05 291.76L692.765 260.995L692.442 262.535Z" fill="#EF3939"/>
<path d="M692.259 266.259L1196.55 317.483L1197.09 315.96L692.79 264.736L692.259 266.259Z" fill="#EF3939"/>
<path d="M692.215 269.932L1196.51 341.68L1197.24 340.181L692.947 268.433L692.215 269.932Z" fill="#EF3939"/>
<path d="M692.216 273.589L1196.47 365.906L1197.39 364.438L693.139 272.121L692.216 273.589Z" fill="#EF3939"/>
<path d="M692.052 277.298L1196.33 390.072L1197.43 388.64L693.152 275.866L692.052 277.298Z" fill="#EF3939"/>
<path d="M691.918 280.961L1196.17 414.267L1197.43 412.875L693.181 279.569L691.918 280.961Z" fill="#EF3939"/>
<path d="M691.878 284.667L1196.16 438.441L1197.57 437.091L693.291 283.317L691.878 284.667Z" fill="#EF3939"/>
<path d="M691.762 288.387L1196.13 462.585L1197.68 461.279L693.31 287.082L691.762 288.387Z" fill="#EF3939"/>
<path d="M691.769 292.013L1196.01 486.82L1197.68 485.559L693.441 290.753L691.769 292.013Z" fill="#EF3939"/>
<path d="M510.523 216.786V295.655L509.975 295.887L0.707597 511.973L0.707597 0.463623L510.523 216.786ZM507.65 294.9V217.536L3.5801 3.65472L3.5801 508.782L507.65 294.9Z" fill="#EF3939"/>
<path d="M125.16 54.867L125.16 457.574H128.033L128.033 54.867H125.16Z" fill="#EF3939"/>
<path d="M206.787 89.501L206.787 422.935H209.659L209.659 89.501H206.787Z" fill="#EF3939"/>
<path d="M264.456 113.971V398.466H267.328V113.971H264.456Z" fill="#EF3939"/>
<path d="M307.367 132.176V380.26H310.239V132.176H307.367Z" fill="#EF3939"/>
<path d="M340.539 146.255V366.186H343.412V146.255H340.539Z" fill="#EF3939"/>
<path d="M366.948 157.46V354.981H369.82V157.46H366.948Z" fill="#EF3939"/>
<path d="M388.471 166.592V345.844H391.343V166.592H388.471Z" fill="#EF3939"/>
<path d="M406.354 174.179V338.257H409.227V174.179H406.354Z" fill="#EF3939"/>
<path d="M421.441 180.584V331.857H424.314V180.584H421.441Z" fill="#EF3939"/>
<path d="M434.347 186.057V326.379H437.219V186.057H434.347Z" fill="#EF3939"/>
<path d="M445.508 190.794V321.643H448.381V190.794H445.508Z" fill="#EF3939"/>
<path d="M455.263 194.93V317.506H458.135V194.93H455.263Z" fill="#EF3939"/>
<path d="M463.855 198.576V313.86H466.728V198.576L463.855 198.576Z" fill="#EF3939"/>
<path d="M471.479 201.813V310.624H474.351V201.813H471.479Z" fill="#EF3939"/>
<path d="M478.293 204.704V307.733H481.166V204.704H478.293Z" fill="#EF3939"/>
<path d="M484.426 207.304V305.133H487.298V207.304H484.426Z" fill="#EF3939"/>
<path d="M489.96 209.654V302.782H492.833V209.654H489.96Z" fill="#EF3939"/>
<path d="M494.989 211.79V300.65H497.862V211.79H494.989Z" fill="#EF3939"/>
<path d="M499.58 213.736V298.7H502.453V213.736H499.58Z" fill="#EF3939"/>
<path d="M503.784 215.522V296.918H506.656V215.522H503.784Z" fill="#EF3939"/>
<path d="M1.2929 26.9176L508.289 221.493L509.954 220.229L2.95771 25.6544L1.2929 26.9176Z" fill="#EF3939"/>
<path d="M1.40103 51.1171L508.33 225.257L509.873 223.949L2.94358 49.8095L1.40103 51.1171Z" fill="#EF3939"/>
<path d="M1.46419 75.3462L508.408 228.988L509.815 227.637L2.87082 73.9947L1.46419 75.3462Z" fill="#EF3939"/>
<path d="M1.48263 99.6036L508.449 232.74L509.706 231.346L2.73961 98.2098L1.48263 99.6036Z" fill="#EF3939"/>
<path d="M1.57086 123.825L508.536 236.473L509.63 235.039L2.66456 122.392L1.57086 123.825Z" fill="#EF3939"/>
<path d="M1.67659 148.041L508.627 240.212L509.544 238.743L2.59375 146.572L1.67659 148.041Z" fill="#EF3939"/>
<path d="M1.75976 172.269L508.72 243.937L509.448 242.438L2.48771 170.77L1.75976 172.269Z" fill="#EF3939"/>
<path d="M1.89037 196.444L508.827 247.689L509.355 246.165L2.41926 194.921L1.89037 196.444Z" fill="#EF3939"/>
<path d="M1.99285 220.653L508.929 251.434L509.25 249.894L2.31404 219.113L1.99285 220.653Z" fill="#EF3939"/>
<path d="M2.07973 244.893L509.019 255.163L509.127 253.614L2.18749 243.344L2.07973 244.893Z" fill="#EF3939"/>
<path d="M2.12013 267.547L2.2274 269.096L509.17 258.873L509.063 257.324L2.12013 267.547Z" fill="#EF3939"/>
<path d="M1.97071 291.753L2.2914 293.294L509.237 262.56L508.917 261.02L1.97071 291.753Z" fill="#EF3939"/>
<path d="M1.90466 315.967L2.43306 317.49L509.386 266.294L508.857 264.77L1.90466 315.967Z" fill="#EF3939"/>
<path d="M1.75996 340.192L2.4884 341.692L509.426 269.976L508.697 268.476L1.75996 340.192Z" fill="#EF3939"/>
<path d="M1.70591 364.406L2.62307 365.875L509.574 273.703L508.657 272.234L1.70591 364.406Z" fill="#EF3939"/>
<path d="M1.57234 388.64L2.6665 390.073L509.596 277.378L508.501 275.944L1.57234 388.64Z" fill="#EF3939"/>
<path d="M1.53428 412.849L2.79125 414.243L509.757 281.107L508.5 279.713L1.53428 412.849Z" fill="#EF3939"/>
<path d="M1.42025 437.375L2.82778 438.724L508.668 284.984L507.26 283.635L1.42025 437.375Z" fill="#EF3939"/>
<path d="M1.36818 461.316L2.91072 462.624L509.84 288.484L508.297 287.177L1.36818 461.316Z" fill="#EF3939"/>
<path d="M1.30361 485.543L2.96883 486.807L509.902 292.184L508.237 290.921L1.30361 485.543Z" fill="#EF3939"/>
<path d="M1199.01 0.436371L691.095 217.268H507.953L507.558 217.1L0 0.436371L1199.01 0.436371ZM690.092 215.713L1190.75 1.96829L8.2553 1.96829L508.914 215.713H690.092Z" fill="#EF3939"/>
<path d="M128.345 53.4624V55.0125L1070.67 55.0125V53.4624L128.345 53.4624Z" fill="#EF3939"/>
<path d="M209.676 88.1827V89.7328L989.338 89.7328V88.1827L209.676 88.1827Z" fill="#EF3939"/>
<path d="M267.059 112.68V114.23L931.956 114.23V112.68L267.059 112.68Z" fill="#EF3939"/>
<path d="M309.717 130.89V132.44L889.289 132.44V130.89L309.717 130.89Z" fill="#EF3939"/>
<path d="M342.671 144.959V146.509L856.335 146.509V144.959L342.671 144.959Z" fill="#EF3939"/>
<path d="M368.902 156.155V157.705L830.112 157.705V156.155L368.902 156.155Z" fill="#EF3939"/>
<path d="M390.265 165.274V166.824L808.75 166.824V165.274L390.265 165.274Z" fill="#EF3939"/>
<path d="M408.005 172.847V174.397L791.001 174.397V172.847L408.005 172.847Z" fill="#EF3939"/>
<path d="M422.974 179.238V180.788L776.032 180.788V179.238L422.974 179.238Z" fill="#EF3939"/>
<path d="M435.77 184.702V186.252L763.236 186.252V184.702L435.77 184.702Z" fill="#EF3939"/>
<path d="M446.839 189.425V190.975L752.167 190.975V189.425L446.839 189.425Z" fill="#EF3939"/>
<path d="M456.509 193.553V195.103L742.505 195.103V193.553L456.509 193.553Z" fill="#EF3939"/>
<path d="M465.026 197.19V198.74H733.989V197.19H465.026Z" fill="#EF3939"/>
<path d="M472.582 200.412V201.963H726.432V200.412H472.582Z" fill="#EF3939"/>
<path d="M479.338 203.299V204.849H719.677V203.299H479.338Z" fill="#EF3939"/>
<path d="M485.403 205.89V207.44H713.603V205.89H485.403Z" fill="#EF3939"/>
<path d="M490.895 208.231V209.781H708.119V208.231H490.895Z" fill="#EF3939"/>
<path d="M495.874 210.359V211.909H703.132V210.359H495.874Z" fill="#EF3939"/>
<path d="M500.423 212.3V213.85H698.583V212.3H500.423Z" fill="#EF3939"/>
<path d="M504.592 214.077V215.627H694.422V214.077H504.592Z" fill="#EF3939"/>
<path d="M59.8847 1.80347L516.176 217.057L518.066 215.89L61.7753 0.636475L59.8847 1.80347Z" fill="#EF3939"/>
<path d="M116.548 1.77591L524.847 217.013L526.854 215.905L118.555 0.667114L116.548 1.77591Z" fill="#EF3939"/>
<path d="M173.214 1.71143L533.351 217.02L535.483 215.981L175.346 0.672821L173.214 1.71143Z" fill="#EF3939"/>
<path d="M229.81 1.68723L541.955 216.975L544.218 216.02L232.072 0.732025L229.81 1.68723Z" fill="#EF3939"/>
<path d="M286.481 1.64221L550.627 216.917L553.022 216.061L288.876 0.786407L286.481 1.64221Z" fill="#EF3939"/>
<path d="M343.128 1.58728L559.273 216.857L561.799 216.118L345.654 0.848816L343.128 1.58728Z" fill="#EF3939"/>
<path d="M399.641 1.50677L567.744 216.78L570.391 216.178L402.288 0.904877L399.641 1.50677Z" fill="#EF3939"/>
<path d="M456.461 1.43802L576.456 216.725L579.207 216.278L459.212 0.991547L456.461 1.43802Z" fill="#EF3939"/>
<path d="M513.018 1.35123L585.083 216.621L587.91 216.346L515.845 1.07574L513.018 1.35123Z" fill="#EF3939"/>
<path d="M569.79 1.27661L593.77 216.551L596.637 216.458L572.657 1.18359L569.79 1.27661Z" fill="#EF3939"/>
<path d="M602.371 216.474L605.239 216.567L629.219 1.29169L626.351 1.1987L602.371 216.474Z" fill="#EF3939"/>
<path d="M611.139 216.33L613.965 216.605L686.03 1.33514L683.203 1.05957L611.139 216.33Z" fill="#EF3939"/>
<path d="M619.813 216.266L622.564 216.712L742.628 1.43692L739.877 0.990234L619.813 216.266Z" fill="#EF3939"/>
<path d="M628.56 216.182L631.207 216.784L799.31 1.51056L796.663 0.9086L628.56 216.182Z" fill="#EF3939"/>
<path d="M637.321 216.109L639.847 216.848L855.992 1.57813L853.466 0.839661L637.321 216.109Z" fill="#EF3939"/>
<path d="M646.013 216.06L648.408 216.915L912.554 1.64023L910.159 0.784393L646.013 216.06Z" fill="#EF3939"/>
<path d="M654.69 216.02L656.953 216.975L969.098 1.68707L966.835 0.731903L654.69 216.02Z" fill="#EF3939"/>
<path d="M663.502 215.968L665.634 217.007L1025.84 1.73279L1023.71 0.69397L663.502 215.968Z" fill="#EF3939"/>
<path d="M672.229 215.934L674.237 217.042L1082.47 1.76648L1080.46 0.657837L672.229 215.934Z" fill="#EF3939"/>
<path d="M681.054 215.903L682.944 217.07L1139.24 1.81635L1137.34 0.649353L681.054 215.903Z" fill="#EF3939"/>
<path d="M1198.99 512L0 512L507.507 294.041H691.499L691.895 294.209L1198.99 512ZM8.23845 510.45L1190.77 510.45L690.497 295.591H508.543L8.23845 510.45Z" fill="#EF3939"/>
<path d="M127.822 457.324V458.874L1071.18 458.874V457.324L127.822 457.324Z" fill="#EF3939"/>
<path d="M208.969 422.476V424.026L990.046 424.026V422.476L208.969 422.476Z" fill="#EF3939"/>
<path d="M266.284 397.857V399.407L932.722 399.407V397.857L266.284 397.857Z" fill="#EF3939"/>
<path d="M308.933 379.542V381.092L890.073 381.092V379.542L308.933 379.542Z" fill="#EF3939"/>
<path d="M341.904 365.382V366.932L857.102 366.932V365.382L341.904 365.382Z" fill="#EF3939"/>
<path d="M368.153 354.108V355.658L830.854 355.658V354.108L368.153 354.108Z" fill="#EF3939"/>
<path d="M389.549 344.917V346.467L809.457 346.467V344.917L389.549 344.917Z" fill="#EF3939"/>
<path d="M407.323 337.285V338.835L791.683 338.835V337.285L407.323 337.285Z" fill="#EF3939"/>
<path d="M422.326 330.843V332.393L776.689 332.393V330.843L422.326 330.843Z" fill="#EF3939"/>
<path d="M435.147 325.334V326.884L763.859 326.884V325.334L435.147 325.334Z" fill="#EF3939"/>
<path d="M446.241 320.57V322.12L752.765 322.12V320.57L446.241 320.57Z" fill="#EF3939"/>
<path d="M455.937 316.406V317.956L743.078 317.956V316.406L455.937 316.406Z" fill="#EF3939"/>
<path d="M464.478 312.738V314.288L734.536 314.288V312.738L464.478 312.738Z" fill="#EF3939"/>
<path d="M472.051 309.483V311.033L726.946 311.033V309.483L472.051 309.483Z" fill="#EF3939"/>
<path d="M478.832 306.574V308.124L720.182 308.124V306.574L478.832 306.574Z" fill="#EF3939"/>
<path d="M484.923 303.96V305.51L714.092 305.51V303.96L484.923 303.96Z" fill="#EF3939"/>
<path d="M490.424 301.591V303.142L708.582 303.142V301.591L490.424 301.591Z" fill="#EF3939"/>
<path d="M495.427 299.446V300.996L703.587 300.996V299.446L495.427 299.446Z" fill="#EF3939"/>
<path d="M499.993 297.487V299.037L699.021 299.037V297.487L499.993 297.487Z" fill="#EF3939"/>
<path d="M504.171 295.691V297.241H694.843V295.691H504.171Z" fill="#EF3939"/>
<path d="M59.8791 510.649L61.7765 511.813L517.647 295.39L515.75 294.226L59.8791 510.649Z" fill="#EF3939"/>
<path d="M116.536 510.669L118.55 511.774L526.477 295.377L524.463 294.272L116.536 510.669Z" fill="#EF3939"/>
<path d="M173.183 510.704L175.321 511.739L535.254 295.341L533.116 294.306L173.183 510.704Z" fill="#EF3939"/>
<path d="M229.822 510.745L232.089 511.697L544.04 295.301L541.773 294.349L229.822 510.745Z" fill="#EF3939"/>
<path d="M286.436 510.804L288.836 511.656L552.765 295.247L550.366 294.395L286.436 510.804Z" fill="#EF3939"/>
<path d="M343.074 510.859L345.604 511.594L561.538 295.184L559.009 294.449L343.074 510.859Z" fill="#EF3939"/>
<path d="M399.694 510.933L402.344 511.532L570.27 295.114L567.62 294.515L399.694 510.933Z" fill="#EF3939"/>
<path d="M456.406 511L459.158 511.445L579.165 295.04L576.413 294.596L456.406 511Z" fill="#EF3939"/>
<path d="M513.065 511.085L515.892 511.359L587.904 294.952L585.076 294.678L513.065 511.085Z" fill="#EF3939"/>
<path d="M569.693 511.184L572.56 511.277L596.526 294.867L593.659 294.775L569.693 511.184Z" fill="#EF3939"/>
<path d="M602.498 294.887L626.394 511.299L629.261 511.207L605.365 294.795L602.498 294.887Z" fill="#EF3939"/>
<path d="M611.146 294.953L683.157 511.359L685.984 511.085L613.973 294.679L611.146 294.953Z" fill="#EF3939"/>
<path d="M619.88 295.022L739.887 511.427L742.639 510.983L622.632 294.578L619.88 295.022Z" fill="#EF3939"/>
<path d="M628.712 295.116L796.638 511.534L799.287 510.935L631.361 294.518L628.712 295.116Z" fill="#EF3939"/>
<path d="M637.511 295.208L853.445 511.619L855.974 510.884L640.04 294.473L637.511 295.208Z" fill="#EF3939"/>
<path d="M646.209 295.232L910.138 511.641L912.538 510.789L648.608 294.38L646.209 295.232Z" fill="#EF3939"/>
<path d="M655.067 295.27L966.878 511.725L969.146 510.773L657.335 294.319L655.067 295.27Z" fill="#EF3939"/>
<path d="M663.803 295.348L1023.74 511.747L1025.87 510.711L665.941 294.313L663.803 295.348Z" fill="#EF3939"/>
<path d="M672.525 295.336L1080.38 511.772L1082.4 510.667L674.539 294.231L672.525 295.336Z" fill="#EF3939"/>
<path d="M681.39 295.402L1137.26 511.825L1139.16 510.661L683.287 294.238L681.39 295.402Z" fill="#EF3939"/>
</svg>
