<svg width="1280" height="512" viewBox="0 0 1280 512" fill="none" xmlns="http://www.w3.org/2000/svg">
<path d="M1280 1.14758e-06V511.877L1.79707 511.877L1.79707 1.14757e-06L1280 1.14758e-06ZM1276.94 510.327V1.55006L4.84311 1.55006L4.84311 510.327L1276.94 510.327Z" fill="#EF3939"/>
<path d="M740.277 216V295.877L541.494 295.877V216H740.277ZM737.222 294.327V217.55H544.558V294.327L737.222 294.327Z" fill="#EF3939"/>
<path d="M1278.18 0.459125V511.977L737.222 295.477V216.959L737.797 216.727L1278.18 0.459125ZM1275.12 508.777V3.65929L740.277 217.709V294.714L1275.12 508.777Z" fill="#EF3939"/>
<path d="M1142.63 55.0807V457.351H1145.7V55.0807H1142.63Z" fill="#EF3939"/>
<path d="M1055.88 89.8056V422.635H1058.94V89.8056H1055.88Z" fill="#EF3939"/>
<path d="M994.67 114.303V398.138H997.734V114.303H994.67Z" fill="#EF3939"/>
<path d="M949.168 132.513V379.928H952.232V132.513H949.168Z" fill="#EF3939"/>
<path d="M914.008 146.582V365.859H917.072V146.582H914.008Z" fill="#EF3939"/>
<path d="M886.037 157.778V354.663H889.101V157.778H886.037Z" fill="#EF3939"/>
<path d="M863.25 166.897V345.54H866.314V166.897H863.25Z" fill="#EF3939"/>
<path d="M844.318 174.47V337.966H847.382V174.47H844.318Z" fill="#EF3939"/>
<path d="M828.351 180.857V331.575H831.415V180.857H828.351Z" fill="#EF3939"/>
<path d="M814.702 186.325V326.116H817.766V186.325H814.702Z" fill="#EF3939"/>
<path d="M802.896 191.048V321.388H805.96V191.048H802.896Z" fill="#EF3939"/>
<path d="M792.589 195.171V317.261H795.653V195.171H792.589Z" fill="#EF3939"/>
<path d="M783.505 198.812V313.629H786.569V198.812H783.505Z" fill="#EF3939"/>
<path d="M775.445 202.035V310.401H778.509V202.035H775.445Z" fill="#EF3939"/>
<path d="M768.239 204.922V307.519H771.303V204.922H768.239Z" fill="#EF3939"/>
<path d="M761.761 207.513V304.928H764.825V207.513H761.761Z" fill="#EF3939"/>
<path d="M755.911 209.854V302.582H758.975V209.854H755.911Z" fill="#EF3939"/>
<path d="M750.592 211.981V300.455H753.656V211.981H750.592Z" fill="#EF3939"/>
<path d="M745.74 213.922V298.514H748.804V213.922H745.74Z" fill="#EF3939"/>
<path d="M741.301 215.7V296.737H744.365V215.7H741.301Z" fill="#EF3939"/>
<path d="M737.904 220.408L739.687 221.669L1277.61 26.91L1275.82 25.6494L737.904 220.408Z" fill="#EF3939"/>
<path d="M737.84 224.083L739.493 225.388L1277.37 51.0959L1275.72 49.7906L737.84 224.083Z" fill="#EF3939"/>
<path d="M737.976 227.766L739.484 229.116L1277.39 75.3417L1275.88 73.9922L737.976 227.766Z" fill="#EF3939"/>
<path d="M738.104 231.455L739.451 232.848L1277.37 99.5892L1276.02 98.197L738.104 231.455Z" fill="#EF3939"/>
<path d="M738.127 235.127L739.3 236.559L1277.2 123.785L1276.03 122.353L738.127 235.127Z" fill="#EF3939"/>
<path d="M738.234 238.81L739.218 240.279L1277.12 148.009L1276.14 146.541L738.234 238.81Z" fill="#EF3939"/>
<path d="M738.385 242.517L739.166 244.016L1277.08 172.268L1276.3 170.769L738.385 242.517Z" fill="#EF3939"/>
<path d="M738.434 246.185L739.001 247.708L1276.9 196.437L1276.33 194.914L738.434 246.185Z" fill="#EF3939"/>
<path d="M738.555 249.878L738.899 251.419L1276.8 220.654L1276.46 219.114L738.555 249.878Z" fill="#EF3939"/>
<path d="M738.664 253.576L738.78 255.125L1276.68 244.861L1276.57 243.312L738.664 253.576Z" fill="#EF3939"/>
<path d="M738.629 258.874L1276.54 269.09L1276.65 267.541L738.744 257.325L738.629 258.874Z" fill="#EF3939"/>
<path d="M738.605 262.535L1276.51 293.3L1276.85 291.76L738.949 260.995L738.605 262.535Z" fill="#EF3939"/>
<path d="M738.409 266.259L1276.32 317.483L1276.89 315.96L738.976 264.736L738.409 266.259Z" fill="#EF3939"/>
<path d="M738.363 269.932L1276.27 341.68L1277.05 340.181L739.144 268.433L738.363 269.932Z" fill="#EF3939"/>
<path d="M738.364 273.589L1276.24 365.906L1277.22 364.438L739.349 272.121L738.364 273.589Z" fill="#EF3939"/>
<path d="M738.189 277.298L1276.09 390.072L1277.26 388.64L739.362 275.866L738.189 277.298Z" fill="#EF3939"/>
<path d="M738.046 280.961L1275.92 414.267L1277.26 412.875L739.394 279.569L738.046 280.961Z" fill="#EF3939"/>
<path d="M738.003 284.667L1275.9 438.441L1277.41 437.091L739.51 283.317L738.003 284.667Z" fill="#EF3939"/>
<path d="M737.879 288.387L1275.88 462.585L1277.53 461.279L739.531 287.082L737.879 288.387Z" fill="#EF3939"/>
<path d="M737.887 292.013L1275.74 486.82L1277.52 485.559L739.67 290.753L737.887 292.013Z" fill="#EF3939"/>
<path d="M544.558 216.786V295.655L543.974 295.887L0.75477 511.973L0.75477 0.46362L544.558 216.786ZM541.494 294.9V217.536L3.81878 3.65474L3.81878 508.782L541.494 294.9Z" fill="#EF3939"/>
<path d="M133.504 54.867L133.504 457.574H136.568L136.568 54.867H133.504Z" fill="#EF3939"/>
<path d="M220.573 89.501L220.573 422.935H223.637L223.637 89.501H220.573Z" fill="#EF3939"/>
<path d="M282.086 113.971V398.466H285.15V113.971H282.086Z" fill="#EF3939"/>
<path d="M327.858 132.176V380.26H330.922V132.176H327.858Z" fill="#EF3939"/>
<path d="M363.242 146.255V366.186H366.306V146.255H363.242Z" fill="#EF3939"/>
<path d="M391.411 157.46V354.981H394.475V157.46H391.411Z" fill="#EF3939"/>
<path d="M414.369 166.592V345.844H417.433V166.592H414.369Z" fill="#EF3939"/>
<path d="M433.445 174.179V338.257H436.509V174.179H433.445Z" fill="#EF3939"/>
<path d="M449.537 180.584V331.857H452.601V180.584H449.537Z" fill="#EF3939"/>
<path d="M463.303 186.057V326.379H466.367V186.057L463.303 186.057Z" fill="#EF3939"/>
<path d="M475.209 190.794V321.643H478.273V190.794H475.209Z" fill="#EF3939"/>
<path d="M485.614 194.93V317.506H488.678V194.93H485.614Z" fill="#EF3939"/>
<path d="M494.779 198.576V313.86H497.843V198.576H494.779Z" fill="#EF3939"/>
<path d="M502.91 201.813V310.624H505.974V201.813H502.91Z" fill="#EF3939"/>
<path d="M510.18 204.704V307.733H513.244V204.704H510.18Z" fill="#EF3939"/>
<path d="M516.721 207.304V305.133H519.785V207.304H516.721Z" fill="#EF3939"/>
<path d="M522.624 209.654V302.782H525.688V209.654H522.624Z" fill="#EF3939"/>
<path d="M527.989 211.79V300.65H531.053V211.79H527.989Z" fill="#EF3939"/>
<path d="M532.886 213.736V298.7H535.95V213.736H532.886Z" fill="#EF3939"/>
<path d="M537.369 215.522V296.918H540.433V215.522H537.369Z" fill="#EF3939"/>
<path d="M1.3791 26.9176L542.175 221.493L543.951 220.229L3.15489 25.6544L1.3791 26.9176Z" fill="#EF3939"/>
<path d="M1.49443 51.1171L542.219 225.257L543.864 223.949L3.13982 49.8095L1.49443 51.1171Z" fill="#EF3939"/>
<path d="M1.5618 75.3462L542.302 228.988L543.803 227.637L3.06221 73.9947L1.5618 75.3462Z" fill="#EF3939"/>
<path d="M1.58148 99.6036L542.345 232.74L543.686 231.346L2.92225 98.2098L1.58148 99.6036Z" fill="#EF3939"/>
<path d="M1.67558 123.825L542.439 236.473L543.606 235.039L2.84219 122.392L1.67558 123.825Z" fill="#EF3939"/>
<path d="M1.78836 148.041L542.536 240.212L543.514 238.743L2.76667 146.572L1.78836 148.041Z" fill="#EF3939"/>
<path d="M1.87708 172.269L542.635 243.937L543.411 242.438L2.65356 170.77L1.87708 172.269Z" fill="#EF3939"/>
<path d="M2.01639 196.444L542.748 247.689L543.312 246.165L2.58055 194.921L2.01639 196.444Z" fill="#EF3939"/>
<path d="M2.12571 220.653L542.858 251.434L543.2 249.894L2.46831 219.113L2.12571 220.653Z" fill="#EF3939"/>
<path d="M2.21838 244.893L542.954 255.163L543.069 253.614L2.33332 243.344L2.21838 244.893Z" fill="#EF3939"/>
<path d="M2.26148 267.547L2.37589 269.096L543.115 258.873L543 257.324L2.26148 267.547Z" fill="#EF3939"/>
<path d="M2.10209 291.753L2.44416 293.294L543.187 262.56L542.845 261.02L2.10209 291.753Z" fill="#EF3939"/>
<path d="M2.03164 315.967L2.59527 317.49L543.345 266.294L542.781 264.77L2.03164 315.967Z" fill="#EF3939"/>
<path d="M1.8773 340.192L2.6543 341.692L543.388 269.976L542.611 268.476L1.8773 340.192Z" fill="#EF3939"/>
<path d="M1.81964 364.406L2.79794 365.875L543.545 273.703L542.567 272.234L1.81964 364.406Z" fill="#EF3939"/>
<path d="M1.67716 388.64L2.84427 390.073L543.569 277.378L542.402 275.944L1.67716 388.64Z" fill="#EF3939"/>
<path d="M1.63656 412.849L2.97733 414.243L543.741 281.107L542.4 279.713L1.63656 412.849Z" fill="#EF3939"/>
<path d="M1.51494 437.375L3.0163 438.724L542.579 284.984L541.078 283.635L1.51494 437.375Z" fill="#EF3939"/>
<path d="M1.45939 461.316L3.10477 462.624L543.829 288.484L542.184 287.177L1.45939 461.316Z" fill="#EF3939"/>
<path d="M1.39052 485.543L3.16675 486.807L543.895 292.184L542.119 290.921L1.39052 485.543Z" fill="#EF3939"/>
<path d="M1278.94 0.436374L737.168 217.268H541.817L541.395 217.1L0 0.436374L1278.94 0.436374ZM736.098 215.713L1270.13 1.96829L8.80565 1.96829L542.841 215.713H736.098Z" fill="#EF3939"/>
<path d="M136.901 53.4624V55.0125L1142.05 55.0125V53.4624L136.901 53.4624Z" fill="#EF3939"/>
<path d="M223.655 88.1827V89.7328L1055.29 89.7328V88.1827L223.655 88.1827Z" fill="#EF3939"/>
<path d="M284.863 112.68V114.23L994.086 114.23V112.68L284.863 112.68Z" fill="#EF3939"/>
<path d="M330.365 130.89V132.44L948.575 132.44V130.89L330.365 130.89Z" fill="#EF3939"/>
<path d="M365.515 144.959V146.509L913.424 146.509V144.959L365.515 144.959Z" fill="#EF3939"/>
<path d="M393.496 156.155V157.705L885.453 157.705V156.155L393.496 156.155Z" fill="#EF3939"/>
<path d="M416.283 165.274V166.824L862.666 166.824V165.274L416.283 165.274Z" fill="#EF3939"/>
<path d="M435.206 172.847V174.397L843.734 174.397V172.847L435.206 172.847Z" fill="#EF3939"/>
<path d="M451.173 179.238V180.788L827.767 180.788V179.238L451.173 179.238Z" fill="#EF3939"/>
<path d="M464.821 184.702V186.252H814.118V184.702H464.821Z" fill="#EF3939"/>
<path d="M476.628 189.425V190.975H802.311V189.425H476.628Z" fill="#EF3939"/>
<path d="M486.943 193.553V195.103H792.005V193.553H486.943Z" fill="#EF3939"/>
<path d="M496.028 197.19V198.74H782.921V197.19H496.028Z" fill="#EF3939"/>
<path d="M504.088 200.412V201.963H774.861V200.412H504.088Z" fill="#EF3939"/>
<path d="M511.294 203.299V204.849H767.655V203.299H511.294Z" fill="#EF3939"/>
<path d="M517.763 205.89V207.44H761.177V205.89H517.763Z" fill="#EF3939"/>
<path d="M523.622 208.231V209.781H755.327V208.231H523.622Z" fill="#EF3939"/>
<path d="M528.932 210.359V211.909H750.008V210.359H528.932Z" fill="#EF3939"/>
<path d="M533.784 212.3V213.85H745.156V212.3H533.784Z" fill="#EF3939"/>
<path d="M538.232 214.077V215.627H740.717V214.077H538.232Z" fill="#EF3939"/>
<path d="M63.8771 1.80348L550.587 217.057L552.604 215.89L65.8937 0.636471L63.8771 1.80348Z" fill="#EF3939"/>
<path d="M124.318 1.7759L559.837 217.013L561.978 215.905L126.459 0.667101L124.318 1.7759Z" fill="#EF3939"/>
<path d="M184.761 1.71142L568.907 217.02L571.182 215.981L187.036 0.672817L184.761 1.71142Z" fill="#EF3939"/>
<path d="M245.131 1.68723L578.086 216.975L580.499 216.02L247.544 0.732025L245.131 1.68723Z" fill="#EF3939"/>
<path d="M305.58 1.64223L587.336 216.917L589.89 216.061L308.135 0.786405L305.58 1.64223Z" fill="#EF3939"/>
<path d="M366.003 1.58729L596.558 216.857L599.252 216.119L368.697 0.848831L366.003 1.58729Z" fill="#EF3939"/>
<path d="M426.284 1.50678L605.593 216.78L608.417 216.178L429.107 0.904876L426.284 1.50678Z" fill="#EF3939"/>
<path d="M486.892 1.43802L614.886 216.725L617.82 216.278L489.826 0.991551L486.892 1.43802Z" fill="#EF3939"/>
<path d="M547.219 1.35124L624.088 216.621L627.104 216.346L550.235 1.07573L547.219 1.35124Z" fill="#EF3939"/>
<path d="M607.776 1.2766L633.354 216.551L636.413 216.458L610.834 1.1836L607.776 1.2766Z" fill="#EF3939"/>
<path d="M642.529 216.474L645.588 216.567L671.167 1.2917L668.108 1.1987L642.529 216.474Z" fill="#EF3939"/>
<path d="M651.881 216.33L654.896 216.605L731.765 1.33514L728.75 1.05958L651.881 216.33Z" fill="#EF3939"/>
<path d="M661.134 216.266L664.068 216.712L792.137 1.43691L789.203 0.990219L661.134 216.266Z" fill="#EF3939"/>
<path d="M670.464 216.182L673.288 216.784L852.597 1.51055L849.774 0.908594L670.464 216.182Z" fill="#EF3939"/>
<path d="M679.809 216.109L682.503 216.848L913.058 1.57814L910.364 0.839675L679.809 216.109Z" fill="#EF3939"/>
<path d="M689.08 216.059L691.635 216.915L973.39 1.64023L970.836 0.784407L689.08 216.059Z" fill="#EF3939"/>
<path d="M698.336 216.02L700.749 216.975L1033.7 1.68706L1031.29 0.731914L698.336 216.02Z" fill="#EF3939"/>
<path d="M707.735 215.968L710.009 217.007L1094.23 1.73279L1091.96 0.693959L707.735 215.968Z" fill="#EF3939"/>
<path d="M717.044 215.934L719.186 217.042L1154.63 1.76647L1152.49 0.657835L717.044 215.934Z" fill="#EF3939"/>
<path d="M726.457 215.903L728.474 217.07L1215.18 1.81635L1213.17 0.649345L726.457 215.903Z" fill="#EF3939"/>
<path d="M1278.92 512L0 512L541.341 294.041L737.599 294.041L738.021 294.209L1278.92 512ZM8.78768 510.45L1270.15 510.45L736.53 295.591L542.446 295.591L8.78768 510.45Z" fill="#EF3939"/>
<path d="M136.344 457.324V458.874L1142.59 458.874V457.324L136.344 457.324Z" fill="#EF3939"/>
<path d="M222.9 422.476V424.026L1056.05 424.026V422.476L222.9 422.476Z" fill="#EF3939"/>
<path d="M284.036 397.857V399.407L994.904 399.407V397.857L284.036 397.857Z" fill="#EF3939"/>
<path d="M329.529 379.542V381.092L949.411 381.092V379.542L329.529 379.542Z" fill="#EF3939"/>
<path d="M364.698 365.382V366.932L914.242 366.932V365.382L364.698 365.382Z" fill="#EF3939"/>
<path d="M392.696 354.108V355.658L886.244 355.658V354.108L392.696 354.108Z" fill="#EF3939"/>
<path d="M415.519 344.917V346.467L863.421 346.467V344.917L415.519 344.917Z" fill="#EF3939"/>
<path d="M434.478 337.285V338.835L844.462 338.835V337.285L434.478 337.285Z" fill="#EF3939"/>
<path d="M450.481 330.843V332.393L828.468 332.393V330.843L450.481 330.843Z" fill="#EF3939"/>
<path d="M464.157 325.334V326.884L814.783 326.884V325.334L464.157 325.334Z" fill="#EF3939"/>
<path d="M475.99 320.57V322.12L802.949 322.12V320.57L475.99 320.57Z" fill="#EF3939"/>
<path d="M486.332 316.406V317.956L792.616 317.956V316.406L486.332 316.406Z" fill="#EF3939"/>
<path d="M495.444 312.738V314.288L783.505 314.288V312.738L495.444 312.738Z" fill="#EF3939"/>
<path d="M503.521 309.483V311.033L775.409 311.033V309.483L503.521 309.483Z" fill="#EF3939"/>
<path d="M510.755 306.574V308.124L768.194 308.124V306.574L510.755 306.574Z" fill="#EF3939"/>
<path d="M517.251 303.96V305.51L761.698 305.51V303.96L517.251 303.96Z" fill="#EF3939"/>
<path d="M523.118 301.591V303.142L755.821 303.142V301.591L523.118 301.591Z" fill="#EF3939"/>
<path d="M528.456 299.446V300.996L750.493 300.996V299.446L528.456 299.446Z" fill="#EF3939"/>
<path d="M533.326 297.487V299.037L745.623 299.037V297.487L533.326 297.487Z" fill="#EF3939"/>
<path d="M537.783 295.691V297.241L741.166 297.241V295.691L537.783 295.691Z" fill="#EF3939"/>
<path d="M63.871 510.649L65.8949 511.813L552.157 295.39L550.133 294.226L63.871 510.649Z" fill="#EF3939"/>
<path d="M124.305 510.669L126.453 511.774L561.575 295.377L559.427 294.272L124.305 510.669Z" fill="#EF3939"/>
<path d="M184.729 510.704L187.009 511.739L570.937 295.341L568.657 294.306L184.729 510.704Z" fill="#EF3939"/>
<path d="M245.144 510.745L247.562 511.697L580.309 295.301L577.891 294.349L245.144 510.745Z" fill="#EF3939"/>
<path d="M305.532 510.804L308.092 511.656L589.616 295.247L587.057 294.395L305.532 510.804Z" fill="#EF3939"/>
<path d="M365.946 510.859L368.644 511.594L598.974 295.184L596.276 294.449L365.946 510.859Z" fill="#EF3939"/>
<path d="M426.34 510.933L429.167 511.532L608.288 295.114L605.461 294.515L426.34 510.933Z" fill="#EF3939"/>
<path d="M486.833 511L489.768 511.445L617.776 295.04L614.841 294.596L486.833 511Z" fill="#EF3939"/>
<path d="M547.269 511.085L550.285 511.359L627.097 294.952L624.081 294.678L547.269 511.085Z" fill="#EF3939"/>
<path d="M607.672 511.184L610.731 511.277L636.295 294.867L633.236 294.775L607.672 511.184Z" fill="#EF3939"/>
<path d="M642.664 294.887L668.153 511.299L671.212 511.207L645.723 294.795L642.664 294.887Z" fill="#EF3939"/>
<path d="M651.889 294.953L728.701 511.359L731.717 511.085L654.904 294.679L651.889 294.953Z" fill="#EF3939"/>
<path d="M661.205 295.022L789.213 511.427L792.148 510.983L664.14 294.578L661.205 295.022Z" fill="#EF3939"/>
<path d="M670.626 295.116L849.747 511.534L852.573 510.935L673.452 294.518L670.626 295.116Z" fill="#EF3939"/>
<path d="M680.011 295.208L910.342 511.619L913.039 510.884L682.709 294.473L680.011 295.208Z" fill="#EF3939"/>
<path d="M689.29 295.232L970.814 511.641L973.373 510.789L691.849 294.38L689.29 295.232Z" fill="#EF3939"/>
<path d="M698.738 295.27L1031.34 511.725L1033.76 510.773L701.157 294.319L698.738 295.27Z" fill="#EF3939"/>
<path d="M708.057 295.348L1091.99 511.747L1094.27 510.711L710.337 294.313L708.057 295.348Z" fill="#EF3939"/>
<path d="M717.36 295.336L1152.41 511.772L1154.56 510.667L719.508 294.231L717.36 295.336Z" fill="#EF3939"/>
<path d="M726.815 295.402L1213.08 511.825L1215.1 510.661L728.839 294.238L726.815 295.402Z" fill="#EF3939"/>
</svg>
