<svg width="208" height="208" viewBox="0 0 208 208" fill="none" xmlns="http://www.w3.org/2000/svg">
<path d="M128.306 205.96L55.6099 30.4557L64.3378 8.40105L79.6941 2.04025L152.39 177.544L143.662 199.599L128.306 205.96Z" fill="#0D0D0C" stroke="#EF3939"/>
<path d="M128.306 205.96L121.942 190.595L130.67 168.54L146.026 162.179L152.39 177.544L143.662 199.599L128.306 205.96Z" fill="#0D0D0C" stroke="#EF3939"/>
<line x1="64.4128" y1="7.82886" x2="130.745" y2="167.968" stroke="#EF3939"/>
<path d="M165.474 188.897L31.1491 54.572L30.7727 30.8562L42.5259 19.103L176.851 153.428L177.227 177.144L165.474 188.897Z" fill="#0D0D0C" stroke="#EF3939"/>
<path d="M165.474 188.897L153.714 177.137L153.338 153.421L165.091 141.668L176.851 153.428L177.227 177.144L165.474 188.897Z" fill="#0D0D0C" stroke="#EF3939"/>
<line x1="30.6232" y1="30.2989" x2="153.188" y2="152.864" stroke="#EF3939"/>
<path d="M193.283 158.909L17.7794 86.2133L8.35593 64.4468L14.7167 49.0905L190.221 121.787L199.644 143.553L193.283 158.909Z" fill="#0D0D0C" stroke="#EF3939"/>
<path d="M193.283 158.91L177.919 152.545L168.495 130.779L174.856 115.422L190.221 121.787L199.644 143.553L193.283 158.91Z" fill="#0D0D0C" stroke="#EF3939"/>
<line x1="8.00424" y1="63.9892" x2="168.143" y2="130.321" stroke="#EF3939"/>
<path d="M207.5 120.563L17.5358 120.562L0.5 104.059L0.5 87.4375L190.464 87.4375L207.5 103.941V120.563Z" fill="#0D0D0C" stroke="#EF3939"/>
<path d="M207.5 120.563H190.869L173.833 104.059V87.4376H190.464L207.5 103.941V120.563Z" fill="#0D0D0C" stroke="#EF3939"/>
<line y1="103.771" x2="173.333" y2="103.771" stroke="#EF3939"/>
<path d="M2.04029 128.306L177.544 55.6099L199.599 64.3377L205.96 79.694L30.4557 152.39L8.40109 143.662L2.04029 128.306Z" fill="#0D0D0C" stroke="#EF3939"/>
<path d="M2.04024 128.306L17.4051 121.942L39.4598 130.669L45.8206 146.026L30.4557 152.39L8.40103 143.662L2.04024 128.306Z" fill="#0D0D0C" stroke="#EF3939"/>
<line x1="200.171" y1="64.4126" x2="40.0321" y2="130.744" stroke="#EF3939"/>
<path d="M19.103 165.474L153.428 31.1492L177.144 30.7727L188.897 42.526L54.5721 176.851L30.8562 177.227L19.103 165.474Z" fill="#0D0D0C" stroke="#EF3939"/>
<path d="M19.103 165.474L30.8628 153.714L54.5786 153.338L66.3318 165.091L54.572 176.851L30.8562 177.227L19.103 165.474Z" fill="#0D0D0C" stroke="#EF3939"/>
<line x1="177.701" y1="30.6229" x2="55.136" y2="153.188" stroke="#EF3939"/>
<path d="M49.0906 193.283L121.787 17.7793L143.553 8.3559L158.91 14.7167L86.2134 190.221L64.4469 199.644L49.0906 193.283Z" fill="#0D0D0C" stroke="#EF3939"/>
<path d="M49.0906 193.283L55.4549 177.918L77.2214 168.495L92.5778 174.856L86.2134 190.221L64.4469 199.644L49.0906 193.283Z" fill="#0D0D0C" stroke="#EF3939"/>
<line x1="144.011" y1="8.00421" x2="77.6791" y2="168.143" stroke="#EF3939"/>
<path d="M87.4375 207.5L87.4375 17.5358L103.941 0.5H120.562L120.563 190.464L104.059 207.5H87.4375Z" fill="#0D0D0C" stroke="#EF3939"/>
<path d="M87.4375 207.5V190.869L103.941 173.833H120.562V190.464L104.059 207.5H87.4375Z" fill="#0D0D0C" stroke="#EF3939"/>
<line x1="104.229" x2="104.229" y2="173.333" stroke="#EF3939"/>
</svg>
