<svg width="207" height="210" viewBox="0 0 207 210" fill="none" xmlns="http://www.w3.org/2000/svg">
<path d="M196.474 84.8606L188.074 76.0393L187.665 75.604L192.268 86.8835L194.339 92.0048L183.023 89.4442L185.772 101.325L186.169 103.054L174.124 104.795L172.27 105.064L172.002 115.319M172.002 115.319L160.328 118.776L156.709 119.852L153.666 126.842L142.594 131.963L139.103 133.551L142.939 128.289L146.327 126.24L156.761 119.967L158.039 111.901L161.261 110.198L172.27 105.077L170.237 94.0789L171.516 93.5924L183.023 89.457L181.975 86.986L177.218 75.7704L187.665 75.6424L184.404 70.2522L178.101 59.8305L186.808 66.5265L174.124 49.2551L166.056 45.2605L173.843 54.6068L178.126 59.7921L169.035 62.5319L175.428 72.8769L177.206 75.732L166.977 82.2616L166.056 82.8377L170.276 94.0405L160.264 100.954L157.221 103.028L157.911 111.837L148.271 119.314L145.087 121.785L142.849 128.187L139.487 131.963L135.906 135.894M172.002 115.319L174.29 115.46L186.45 115.934V115.204L186.118 103.028L186.629 103.246L197.779 108.137L196.858 103.873L194.301 91.9536L200.131 99.9684L200.949 101.108L202.586 103.54L203.021 106.716L204.683 118.789L204.862 120.069L205.079 121.695L205.182 125.191L205.322 129.825L205.68 142.014V123.129L204.53 115.575L202.676 103.451L200.31 96.3451L196.474 84.8222L192.485 77.23L186.808 66.4497L181.336 58.9855L174.073 49.2167L167.45 42.4822L158.96 33.7633L151.685 28.2579L142.018 20.9345L134.692 16.9527L123.977 11.1529M172.002 115.319L169.444 124.512L157.4 126.253L153.654 126.804L148.897 132.335L161.07 132.219H164.739L158.065 138.019L149.715 141.707L137.863 138.954L135.178 138.327L142.645 136.265L148.897 132.424L147.082 133.026L135.574 136.867H135.331L133.95 137.315H133.81L135.715 134.268V134.089L135.881 133.487L136.878 130.005L137.556 127.61L145.713 114.449M135.906 135.894V133.589L136.098 132.309L137.812 120.249L136.38 112.259L137.39 109.699L141.929 98.3936L137.735 90.3788L139.32 86.986L144.512 75.9625L137.351 68.0501L138.54 64.4524L142.376 52.9296L141.954 52.6351L132.007 45.6062L132.288 43.6089L133.976 31.5355L131.661 30.5113L120.538 25.5436L120.717 14.8786L116.523 13.7775L104.798 10.6408L105.424 6.2877V6.01884L105.591 4.89216L123.977 11.1529M135.906 135.894L136.022 135.804L138.246 134.063L139.052 133.449L142.888 128.187L145.125 121.785M135.906 135.894L135.651 136.086L135.446 136.24L134.947 136.611L133.937 137.366H133.797L131.022 138.378H126.828L128.861 139.095L129.296 139.248L134.41 141.054L140.024 143.013L149.664 141.604L151.646 143.051L161.466 150.259L171.235 145.138L178.906 137.456L176.132 136.432L164.726 132.194L169.432 124.512L172.13 125.075L184.046 127.546L186.501 115.883L187.78 116.715L198.009 123.398V120.274L197.894 108.086L198.226 108.7L204.044 119.404L205.322 121.644L204.811 128.161V128.276L204.005 138.519L202.855 149.581L202.701 151.04L201.883 158.94L203.161 153.818L206 141.963L201.947 158.914L190.823 179.399L179.712 191.524L159.561 203.047L143.463 208.091L125.294 208.949L130.536 207.822L132.198 207.464L132.608 207.374L144.512 204.813L148.181 204.02L157.131 201.83L163.103 200.371L163.767 200.204L165.046 199.884H165.263L164.893 200.025L163.051 200.716L162.297 201.011L155.52 203.571L154.817 203.84L143.437 208.142M123.977 11.1529L120.793 14.8402L131.84 19.9615L136.763 22.2404M123.977 11.1529L117.149 8.88674L105.642 4.94337L96.6914 3.66306L91.871 2.99729L87.9585 2.45956H87.8434L89.5567 9.88539M136.763 22.2404L134.027 31.4971L144.256 38.1547L146.992 39.9216M136.763 22.2404L146.864 29.0261L152.106 32.5214L146.992 39.9216M136.763 22.2404L141.993 20.9601L158.973 33.7633L152.081 32.4829L161.057 40.7026L166.031 45.2221L158.742 50.4202L166.606 59.7281L168.984 62.5319L160.456 71.2253L159.753 71.9423L165.8 82.5049L165.992 82.8377L157.259 91.3262L154.702 93.8869L157.259 103.08L148.616 111.645L145.713 114.449M146.992 39.9216L142.977 51.4444L142.479 52.904L151.301 61.29L151.851 61.815L146.302 72.6592L144.614 75.9753L150.47 84.6942L144.077 95.0648L142.005 98.4192L144.703 106.549L139.269 117.457L137.888 120.223L137.658 127.713L139.41 124.845L145.803 114.462L144.729 106.549L147.286 103.4L154.664 93.8357L150.38 84.6814L152.528 81.7495L159.778 71.9423L159.331 71.3661L151.787 61.8022L152.401 60.8163L158.794 50.4202L156.057 48.0132L146.992 39.9216ZM145.713 114.449L145.125 121.785M145.125 121.785L137.824 131.528L136.201 133.692L135.753 134.294V134.178L135.497 125.997L133.349 116.856L129.424 107.637M129.424 107.637L123.887 98.7905L116.983 90.6733L109.017 83.6315L100.335 77.9982L91.3084 74.0036L82.3581 71.827L76.2847 71.6606M129.424 107.637L123.9 98.8161L123.095 88.7656L116.305 82.2616M129.424 107.637L128.861 96.1146M76.2847 71.6606L78.2026 70.8284L85.235 69.8425M76.2847 71.6606L82.3453 71.8526L85.235 69.8425M76.2847 71.6606L73.2544 72.9409L75.9779 69.1L81.0923 65.259L78.1515 70.7644L76.2336 71.5966L73.2033 72.8769L72.142 74.3621L72.2315 73.3122V72.6208L72.6151 69.228M85.235 69.8425L87.447 63.0953L81.1435 65.387L80.4658 56.6809L75.7093 62.2119L70.352 54.53L67.7947 63.7226L58.0773 58.6014V59.3312L58.4097 71.507L56.8882 71.0973L45.1249 67.9477M85.235 69.8425L92.9067 70.5723L91.3212 74.0292L100.348 78.0238L100.872 72.9025L92.9067 70.5211L94.6584 62.3655L87.4598 62.9801L86.6798 52.7375L80.4274 56.5785L75.0317 46.7841L70.3136 54.466L70.1346 54.3123L60.5066 46.9505L58.0517 58.6142L56.0571 57.7052L44.9715 52.6735V55.7847L45.1249 67.9477M72.6151 69.228L72.4872 70.0602L72.2059 71.9679L72.0525 73.0305L71.9758 73.5042V73.6451L71.8096 74.759L71.5539 76.3081M72.6151 69.228L67.718 63.7739L67.4495 74.0804L58.3586 71.5198L58.7677 73.2482L61.5679 84.9631H60.7496L48.6155 84.0412L50.6869 89.1625L55.2899 100.442L50.7764 99.9556L38.6679 98.6752M72.6151 69.228L75.6582 62.2759L75.9779 69.228L74.3157 71.5326L74.2389 71.635L73.2544 73.0049L72.1932 74.4901L71.5539 76.3081M71.5539 76.3081L71.4004 77.2556M71.4004 77.2556L72.0909 86.0641L74.6481 95.2568L78.9314 104.411L84.7875 113.13L91.9477 121.042L100.105 127.802L108.889 133.103L117.929 136.713L126.879 138.48H133.362L134.116 138.314L135.139 138.083H135.267L142.709 136.419L146.033 136.79L158.129 138.173L160.686 139.543L171.388 145.343L172.756 147.545L179.149 157.903L178.932 162.333L178.369 174.508L174.047 181.281L167.488 191.524L158.96 197.08L148.731 203.725L148.028 204.186H141.136L128.964 204.096L120.691 202.278L108.813 199.641L99.645 195.8L88.406 190.858L79.021 184.981L68.7025 178.516L59.7523 170.834L50.4951 162.921L42.67 153.959L34.6403 144.805L28.4135 135.203L21.7902 124.96L17.4941 115.383L12.5203 104.27L10.2572 95.3976L7.23963 83.734M71.4004 77.2556L71.2598 77.1403L70.8762 76.8331L69.4953 75.7064L69.3546 75.6296L67.5007 74.1316L68.0121 76.9227V76.9995L69.5081 85.1295H61.5679L62.6036 87.6005L67.36 98.8161L55.2771 100.493L58.5248 105.883L64.8411 116.305L60.4811 116.497L48.3215 117.061L53.8067 124.512L61.0181 134.319L53.0012 133.487L40.9055 132.207L48.0018 140.926L55.6735 150.349L46.3908 147.993L34.6019 144.997L29.6793 142.206L18.9773 136.419M7.23963 83.734L6.83047 76.1673L6.1656 63.9915L7.22684 58.0508L9.34934 46.0543M7.23963 83.734L17.5453 90.2252L21.0742 92.4273L18.517 80.4948L16.8164 72.4288L27.7742 77.7549L32.4539 80.021L30.7917 67.9477L29.9989 61.8278L41.2891 66.3857L45.1249 67.9477M7.23963 83.734L2.87956 78.8176L2.71334 78.6383L1 76.7178M9.34934 46.0543V43.1608M9.34934 46.0543L16.7397 53.5825L19.5782 41.7268L20.7929 36.6056L30.3058 44.2106L31.2903 44.9916L35.254 33.4688L36.392 30.1784M9.34934 46.0543L10.4106 43.8265L12.7377 38.8077L16.5735 30.6905L19.4504 27.5537L27.6719 18.5915L31.5077 16.351L42.1458 10.2311M9.34934 43.1608L12.8016 38.8077M9.34934 43.1608L4.86141 54.4916L3.14807 58.7678L1.70324 70.8668L1 76.7178M1 76.7178L2.27861 88.8424L2.36812 89.7002L2.61105 91.9792L2.77727 93.682L3.03299 96.0634V96.217L3.60837 96.7036L12.5587 104.385L23.4652 109.776L29.2062 112.618L24.6416 101.313L21.0486 92.3505L32.5562 96.4091L38.6679 98.6752M1 76.7178L3.14807 58.7934L6.1656 64.0171L15.7168 71.5838L16.8164 72.4544V53.5825L27.1348 60.0481L30.0373 61.8662L30.9963 49.716L31.3671 45.0172L41.9923 50.9707L45.0482 52.6863L47.81 40.805L48.2447 38.9229L58.4736 45.5806L60.6217 46.9761L65.7362 37.0793L74.1111 45.8878L75.0828 46.9121L81.6933 41.0611M38.6679 98.6752L34.8321 87.1524L32.4667 80.0339L44.2555 83.0554L48.6283 84.1693L46.0711 72.2495L45.1249 67.9477M38.6679 98.6752L42.67 106.216L48.3342 117.009L41.0334 115.319L29.1806 112.592L34.6531 121.721L40.8671 132.271L33.1955 129.403L21.7775 125.101L19.1307 123.296L9.06805 116.433L7.06062 109.75L6.53639 107.983L3.02021 96.3195V96.2298L2.26583 91.9536L2.34254 89.713L3.04578 96.3323L5.16828 108.329L5.52629 110.288L9.7585 121.721L12.4436 128.891L18.4403 139.504L22.7492 147.11L30.2419 156.712L35.9828 164.074L44.7669 172.511L51.5563 179.028L61.4656 186.095L68.8048 191.332L86.9611 200.435L93.5844 202.445L105.233 205.966L113.045 207.131L125.089 208.936L123.223 208.616L111.229 206.542L109.183 206.183L105.642 205.569L104.095 205.146L98.6988 203.661L86.9611 200.486L76.0801 195.032L68.8048 191.383L80.1078 195.902L83.4961 197.26L85.7337 198.169L97.1261 202.445L99.2486 203.264L103.57 204.89L105.591 205.646L108.864 205.415L120.998 204.532L128.887 203.956L140.024 199.039L150.252 194.532L138.093 193.815L131.38 193.419L140.957 186.044L147.261 181.192L135.203 179.527L129.462 178.733L136.137 168.491L138.093 165.495L126.33 162.397L122.136 161.295L123.913 149.235V149.081L112.789 144.114L110.488 143.089L107.624 133.615L97.6759 126.586L97.2668 126.292L91.8454 121.081L100.003 127.841L108.787 133.141L117.827 136.752L118.453 137.046L129.475 142.168L139.998 143.102L141.277 144.28L150.022 152.756L161.53 150.349L162.438 152.448L167.258 163.664L168.204 163.203L179.098 157.762L179.635 157.25L188.419 148.812L186.77 146.841L178.957 137.494L184.072 127.598L185.606 129.057L194.671 137.187L195.106 135.305L197.868 123.437L199.147 126.689L203.571 138.045L203.762 138.531L203.443 139.453L199.479 150.976L198.661 153.345L195.746 141.502L194.684 137.187L188.803 147.865L188.291 148.8L189.57 160.924L190.03 165.456L180.3 172.78L178.216 174.355L166.785 178.529L163.742 179.642L166.299 167.723L167.169 163.651L155.201 165.905L153.334 166.263L150.393 154.433L149.984 152.769L137.824 152.333H137.287L129.871 142.68L129.501 142.193L118.543 138.967L108.813 133.103L100.029 127.802L107.7 133.577L118.594 138.967L123.99 149.043L125.524 149.414L137.338 152.333L137.402 153.293L138.144 165.456L141.225 165.623L153.385 166.276L152.03 169.848L147.414 181.128L151.787 180.743L163.908 179.681L158.551 185.545L150.342 194.507L155.456 193.572L167.437 191.408L170.825 189.744L181.758 184.392L182.141 184.213L182.269 183.919L185.35 176.672L190.171 165.469L191.743 163.267L198.674 153.422L197.651 157.455L194.659 169.272V169.374L193.853 172.562L193.661 173.292L193.239 173.843L192.421 174.905L186.424 182.587L185.9 183.278L179.507 191.588L182.384 188.451L190.618 179.489L195.925 169.733L201.742 159.029L199.684 162.665L193.725 173.292L193.431 173.574L192.766 174.214L189.148 177.824L182.397 184.226L176.515 189.642L172.27 193.547L171.119 194.596L169.125 196.44L168.076 197.4L165.519 199.705L165.302 199.897L175.85 193.803L179.686 191.562L164.893 200.038L159.535 203.098L155.047 204.506L143.437 208.142M81.6933 41.0611L86.4497 52.2766L86.6671 52.7759L94.1342 50.7146L94.6456 62.3783L102.407 63.4666L100.86 72.9153L108.774 76.9099M81.6933 41.0611L90.0298 37.4506L93.6099 49.1014L94.1342 50.7915L102.496 50.6506L102.407 62.8264V63.505L110.385 66.2449L108.774 76.9099M81.6933 41.0611L80.4146 39.2174L73.3311 29.3078L65.6595 36.9897L63.7032 35.274L54.5611 27.2209L54.0496 28.1683L48.168 38.8333L46.1734 37.361L36.392 30.1784M108.774 76.9099L109.017 83.6571L116.983 90.6989L116.305 82.2616M108.774 76.9099L116.305 82.2616M116.305 82.2616L118.236 70.5083M36.392 30.1784L28.8482 22.3429L26.8024 25.9789L20.7801 36.6056L17.9928 32.6238L17.8521 32.4189L16.663 30.6905L27.723 18.5659L28.7715 22.3429L30.7789 20.4352L31.5333 19.731L40.3813 11.3577L42.1458 10.2311M36.392 30.1784L43.4244 20.2687L45.0354 18.0154M42.1458 10.2311L43.207 9.97501M45.0354 18.0154L53.7939 26.4911L54.5611 27.2337L63.3452 18.7964L63.8822 18.2843L71.7968 27.5537L73.28 29.295L83.0486 24.1737L88.7256 34.954L90.0042 37.4122L99.6833 36.0038M45.0354 18.0154L54.7657 10.7432L56.8626 9.16841L63.8822 18.3355L74.8399 12.9069L75.7861 12.4332L82.1791 22.7654L83.0614 24.1737L94.5689 21.7667L98.686 33.2255L99.6833 36.0038M45.0354 18.0154L40.6242 11.6138L40.4196 11.3193L41.5576 10.756L42.3631 10.3719L43.2454 9.9366L44.1915 9.47569L55.1237 4.12397L60.3148 3.18934L72.2827 1.0128L79.0082 1.4225L91.155 2.13948L96.6786 3.62465L91.155 2.17789L87.8306 2.43395L75.7093 3.49661H75.2235L71.3876 3.8295L72.3338 1L55.1237 4.16238L56.0571 6.83824V6.94066L56.8242 9.16841L68.255 4.99458L71.3365 3.93192L75.7221 12.4844L87.6899 10.2311L89.5567 9.88539M99.6833 36.0038L102.01 47.9748L102.509 50.6122L111.459 52.379L110.564 64.5292L110.436 66.2449L118.236 70.5083M99.6833 36.0038L110.245 36.9384L111.191 49.0886L111.408 52.3662L120.448 55.9767L118.62 68.0245L118.236 70.5083M118.236 70.5083L125.626 76.1033L123.223 88.0486L123.082 88.7272L128.861 96.1146M128.861 96.1146L129.232 94.7063L132.224 82.889L125.626 76.1673L126.355 73.1586L129.232 61.3156L120.448 56.0151L120.614 52.379L121.151 40.2033L110.206 36.9641L109.644 34.1858L107.227 22.2404H106.69L94.5305 21.8179L94.2492 21.1266L89.5567 9.88539M128.861 96.1146L133.362 104.053V116.856L135.51 125.997L135.612 124.384L136.405 112.221L133.375 104.091L134.04 102.004L137.76 90.3916L132.237 82.8633L133.4 79.5473L137.402 68.0245L129.245 61.2644L129.91 57.5387L132.058 45.5422L121.164 40.152L121.062 37.5914L120.589 25.4156L119.054 25.0315L107.227 22.2148L104.798 10.692L101.716 10.5255L89.5567 9.88539M143.437 208.142L137.415 208.424L125.268 209L143.437 208.142ZM18.9773 136.419L14.4894 127.316L9.09362 116.382L5.52629 110.224L12.4436 128.903L18.9773 136.419ZM18.9773 136.419L25.9457 146.405L32.2237 155.368L43.4244 160.13L50.4695 163.049L62.6036 164.65L72.9859 166.058L64.0356 157.839L55.7758 150.285L67.9482 149.952L76.2464 149.734L67.718 141.054L61.0948 134.319L72.9859 131.759L76.9496 130.901L69.2012 121.516L64.9179 116.395L75.6326 112.093L69.2396 101.748L67.4751 98.9057L73.8681 96.3451M73.8681 96.3451L69.6487 85.1423L72.2059 86.1026L74.7632 95.2952L73.8681 96.3451ZM73.8681 96.3451L74.0599 96.6652L80.1206 107.241L75.6966 112.042L77.9469 114.82L85.8232 124.115L76.8729 130.875L81.8467 135.395L90.797 143.576L87.3447 145.023L76.1185 149.734L83.3938 155.24L93.0985 162.601L84.9665 163.971L72.9603 166.02L81.7828 172.025L91.8582 178.849L80.8494 178.708L68.6898 178.554L59.9057 175.993L48.232 172.537L40.5603 164.33L32.2365 155.457L31.9424 155.201L22.762 147.186L35.9956 164.151L45.9816 171L48.1936 172.511L57.7193 180.116L66.3627 187.017M66.3627 187.017L78.3561 189.142L88.406 190.935L100.489 189.475L111.638 188.195L100.617 183.074L91.871 178.989L103.379 175.148L111.165 172.588L100.502 166.532L93.1752 162.55L103.276 155.764L106.204 153.806L96.0904 147.02L90.8737 143.525L97.6631 134.562M66.3627 187.017L76.8729 193.111L84.5446 197.528L85.7592 198.22H86.4497L98.6093 198.898L108.761 199.474L120.512 196.312L131.355 193.393L119.604 190.231L111.613 188.092L122.379 182.408L129.501 178.644L117.993 174.7L111.191 172.383L119.809 163.728L122.238 161.27L111.191 156.149L106.204 153.857L110.603 143L100.374 136.342L97.6631 134.562M66.3627 187.017L62.2967 184.84L51.5563 179.117M97.6631 134.562L88.5466 126.484L85.8232 124.064L87.9712 117.278M97.6631 134.562L97.3563 126.202L88.521 117.816L87.9712 117.278M87.9712 117.278L80.4274 107.714L79.9927 107.151L78.9187 104.36L84.7747 113.079L87.9712 117.278Z" stroke="#EF3939" stroke-width="0.8" stroke-linejoin="round"/>
</svg>
