<svg width="380" height="276" viewBox="0 0 380 276" fill="none" xmlns="http://www.w3.org/2000/svg">
  <path
    d="M190.005 0C242.485 4.58873e-06 287.658 8.88334 324.258 26.4136C349.687 38.5885 380 59.5921 380 90.5247C380 121.457 349.687 142.47 324.258 154.645C287.649 172.166 242.485 181.013 190.005 181.013C137.524 181.013 92.3509 172.121 55.7422 154.645C30.3129 142.47 -2.70378e-06 121.457 0 90.5247C2.70378e-06 59.5921 30.3129 38.5884 55.7422 26.4136C92.3327 8.88333 137.515 -4.58952e-06 190.005 0ZM190.005 180.149C242.348 180.149 287.385 171.293 323.866 153.826C349.058 141.761 379.089 120.984 379.089 90.5247C379.089 60.0649 349.022 39.2886 323.866 27.232C287.421 9.76531 242.348 0.909252 190.005 0.909247C137.661 0.909243 92.6152 9.76529 56.1431 27.2319C30.9416 39.2886 0.911121 60.0649 0.911118 90.5247C0.911115 120.984 30.978 141.761 56.1431 153.826C92.6151 171.293 137.661 180.149 190.005 180.149Z"
    fill="#EF3939" />
  <path
    d="M190.005 4.29165C239.77 4.29166 282.793 12.7477 317.871 29.4415C361.759 50.3541 370.971 74.1855 370.971 90.5247C370.971 106.864 361.759 130.723 317.871 151.608C282.793 168.302 239.77 176.767 190.005 176.767C139.838 176.767 96.8154 168.302 62.1292 151.608C37.9025 139.951 9.0292 119.893 9.0292 90.5247C9.0292 61.156 37.9025 41.098 62.1292 29.4414C96.8154 12.7476 139.838 4.29165 190.005 4.29165ZM190.005 175.858C239.633 175.858 282.529 167.42 317.479 150.79C360.939 130.113 370.06 106.6 370.06 90.5247C370.06 74.4492 360.949 50.9451 317.479 30.2598C282.529 13.6296 239.633 5.2009 190.005 5.2009C139.975 5.2009 97.0705 13.6296 62.5209 30.2597C38.5312 41.8072 9.94032 61.6288 9.94032 90.5247C9.94032 119.421 38.5312 139.242 62.5209 150.79C97.0887 167.42 139.984 175.858 190.005 175.858Z"
    fill="#EF3939" />
  <path
    d="M190.005 8.57421C237.319 8.57421 278.173 16.6302 311.429 32.5056C334.481 43.5075 361.951 62.5108 361.951 90.5247C361.951 118.539 334.481 137.551 311.429 148.553C278.173 164.428 237.319 172.475 190.005 172.475C142.69 172.475 101.827 164.428 68.5708 148.553C45.5286 137.551 18.0584 118.548 18.0584 90.5247C18.0584 62.5017 45.5286 43.5075 68.5708 32.5056C101.827 16.6301 142.681 8.5742 190.005 8.57421ZM190.005 171.566C237.182 171.566 277.9 163.546 311.038 147.725C333.815 136.814 361.04 118.075 361.04 90.5247C361.04 62.9745 333.852 44.2076 311.001 33.2967C277.864 17.4757 237.146 9.45618 189.968 9.45618C142.79 9.45617 102.063 17.4757 68.9261 33.2966C46.1482 44.2076 18.9331 62.9472 18.9331 90.4974C18.9331 118.048 46.1208 136.814 68.9261 147.698C102.1 163.546 142.827 171.566 190.005 171.566Z"
    fill="#EF3939" />
  <path
    d="M190.005 12.8658C235.16 12.8658 273.882 20.4853 305.106 35.5152C326.918 46.0261 352.912 64.0746 352.912 90.5246C352.912 116.975 326.909 135.078 305.097 145.543C273.873 160.564 235.15 168.183 189.995 168.183C145.141 168.183 106.419 160.564 74.8848 145.543C35.3696 126.704 27.0693 105.227 27.0693 90.5246C27.0693 75.8221 35.3696 54.3456 74.8848 35.5151C106.428 20.4853 145.178 12.8658 190.005 12.8658ZM190.005 167.274C235.023 167.274 273.618 159.691 304.714 144.725C326.29 134.341 352.001 116.502 352.001 90.5246C352.001 64.5474 326.28 46.7171 304.705 36.3335C273.6 21.3673 235.014 13.775 189.995 13.775C145.278 13.775 106.683 21.3672 75.2766 36.3334C36.1896 54.9639 27.9805 76.0857 27.9805 90.5246C27.9805 104.963 36.1805 126.094 75.2766 144.725C106.692 159.682 145.287 167.274 190.005 167.274Z"
    fill="#EF3939" />
  <path
    d="M190.005 17.1574C214.304 17.1575 251.387 20.7035 282.592 30.6689C300.97 36.5335 315.456 44.0348 325.67 52.9545C337.761 63.5291 343.892 76.1676 343.892 90.5246C343.892 104.882 337.761 117.529 325.67 128.095C315.456 137.014 300.97 144.516 282.592 150.38C251.387 160.382 214.304 163.901 190.005 163.901C165.705 163.901 128.504 160.446 97.6993 150.744C56.8265 137.887 36.1077 117.62 36.1077 90.5246C36.1077 63.429 56.8265 43.171 97.6993 30.3052C128.495 20.5671 165.578 17.1574 190.005 17.1574ZM190.005 162.992C214.231 162.992 251.214 159.446 282.319 149.517C322.572 136.66 342.981 116.784 342.981 90.5246C342.981 64.2656 322.572 44.3894 282.319 31.5327C251.214 21.6037 214.231 18.0667 190.005 18.0667C165.641 18.0667 128.677 21.5037 97.9817 31.1689C57.5372 43.8984 37.0279 63.9018 37.0279 90.5246C37.0279 117.147 57.5372 137.151 97.9817 149.88C128.677 159.546 165.641 162.992 190.005 162.992Z"
    fill="#EF3939" />
  <path
    d="M190.005 21.4764C212.919 21.4764 247.87 24.8315 277.253 34.2059C315.52 46.4443 334.872 65.393 334.872 90.5792C334.872 115.765 315.484 134.687 277.253 146.953C247.87 156.354 212.919 159.682 190.005 159.682C167.09 159.682 132.03 156.427 103.048 147.298C64.6166 135.187 45.1277 116.111 45.1277 90.5973C45.1277 65.0839 64.6166 46.0442 103.048 33.8967C132.03 24.6951 166.972 21.4764 190.005 21.4764ZM190.005 158.773C212.846 158.773 247.697 155.436 276.971 146.043C314.782 133.941 333.961 115.283 333.961 90.5792C333.961 65.8749 314.828 47.2081 276.971 35.1151C247.697 25.7498 212.846 22.3856 190.005 22.3856C167.163 22.3856 132.212 25.6316 103.321 34.7332C65.3181 46.708 46.0388 65.493 46.0388 90.561C46.0388 115.629 65.3181 134.423 103.321 146.398C132.212 155.454 167.044 158.7 190.005 158.7V158.773Z"
    fill="#EF3939" />
  <path
    d="M190.005 25.7316C211.452 25.7316 244.198 28.8776 271.777 37.7064C307.657 49.1902 325.843 66.9387 325.843 90.5246C325.843 114.11 307.621 131.868 271.777 143.343C244.198 152.172 211.452 155.318 190.005 155.318C168.557 155.318 135.693 152.272 108.505 143.706C72.443 132.35 54.1569 114.456 54.1569 90.5246C54.1569 66.5932 72.443 48.6992 108.505 37.3427C135.693 28.7504 168.429 25.7316 190.005 25.7316ZM190.005 154.408C211.379 154.408 244.016 151.281 271.504 142.479C306.956 131.132 324.932 113.656 324.932 90.5246C324.932 67.3934 306.956 49.9176 271.504 38.5702C244.016 29.7778 211.37 26.6409 190.005 26.6409C168.639 26.6409 135.875 29.6596 108.733 38.2156C73.099 49.4357 55.0224 67.0387 55.0224 90.5246C55.0224 114.01 73.1446 131.613 108.733 142.843C135.875 151.371 168.502 154.408 190.005 154.408Z"
    fill="#EF3939" />
  <path
    d="M190.005 30.0233C210.049 30.0233 240.663 32.9511 266.365 41.1707C299.849 51.8816 316.823 68.4481 316.823 90.5246C316.823 112.601 299.831 129.049 266.32 139.797C240.481 148.08 209.958 151.026 190.005 151.026C170.051 151.026 139.447 148.08 113.635 139.797C80.1602 129.059 63.1861 112.519 63.1861 90.5246C63.1861 68.5299 80.142 51.8725 113.589 41.1707C139.264 32.9511 169.896 30.0233 190.005 30.0233ZM190.005 150.117C209.885 150.117 240.307 147.18 266.037 138.924C299.129 128.313 315.912 112.028 315.912 90.5246C315.912 43.3892 233.547 30.9325 190.005 30.9325C146.462 30.9325 64.0881 43.3892 64.0881 90.5246C64.0881 112.046 80.8436 128.331 113.908 138.933C139.62 147.18 170.078 150.117 190.005 150.117Z"
    fill="#EF3939" />
  <path
    d="M190.005 34.315C208.819 34.315 237.428 37.0427 261.3 44.7532C292.15 54.7003 307.767 70.103 307.767 90.5247C307.767 136.642 222.741 146.743 189.977 146.743C172.347 146.743 143.182 143.97 119.001 136.151C87.932 126.149 72.1788 110.765 72.1788 90.5247C72.1788 69.912 87.8682 54.4548 118.801 44.5622C142.444 37.0064 171.108 34.315 190.005 34.315ZM190.005 145.834C222.513 145.834 306.883 135.896 306.883 90.5247C306.883 46.7808 230.431 35.2242 190.005 35.2242C171.172 35.2242 142.626 37.9065 119.11 45.4351C88.5972 55.1822 73.1173 70.3576 73.1173 90.5247C73.1173 110.328 88.6609 125.385 119.302 135.287C143.355 143.07 172.438 145.834 190.005 145.834Z"
    fill="#EF3939" />
  <path
    d="M190.005 38.5976C207.243 38.5976 233.419 41.0435 255.195 47.8992C284.105 56.9917 298.765 71.3396 298.765 90.5247C298.765 109.71 284.114 124.094 255.204 133.177C233.474 140.015 207.27 142.452 190.005 142.452C172.739 142.452 146.526 140.015 124.796 133.177C95.8952 124.085 81.2353 109.737 81.2353 90.5247C81.2353 71.3123 95.8952 57.0007 124.814 47.8992C146.581 41.0434 172.757 38.5976 190.005 38.5976ZM190.005 141.543C207.206 141.543 233.301 139.115 254.931 132.314C283.412 123.358 297.854 109.301 297.854 90.4883C297.854 71.676 283.412 57.7009 254.922 48.7266C233.246 41.9072 207.17 39.4705 190.005 39.4705C172.839 39.4705 146.754 41.9072 125.087 48.7266C96.5968 57.7009 82.1464 71.7487 82.1464 90.4883C82.1464 109.228 96.5876 123.321 125.069 132.314C146.699 139.115 172.794 141.497 190.005 141.497V141.543Z"
    fill="#EF3939" />
  <path
    d="M190.005 42.8891C211.999 42.8891 289.745 54.3002 289.745 90.5246C289.745 122.139 256.188 138.16 190.005 138.16C123.821 138.16 90.2645 122.139 90.2645 90.5246C90.2645 54.3001 168.01 42.8891 190.005 42.8891ZM190.005 137.251C255.605 137.251 288.834 121.53 288.834 90.5246C288.834 54.9912 211.799 43.7983 190.005 43.7983C168.211 43.7983 91.1756 54.9912 91.1756 90.5246C91.1756 121.494 124.422 137.251 190.005 137.251Z"
    fill="#EF3939" />
  <path
    d="M190.005 48.6448C208.272 48.6448 227.251 57.7373 245.583 66.5206C248.316 67.8481 251.131 69.1756 253.892 70.4667C255.505 71.2214 257.436 71.9852 259.477 72.7944C268.488 76.3587 280.825 81.2413 280.688 91.8886C280.533 103.827 276.834 113.392 269.691 120.321C253.291 136.251 221.812 135.778 198.842 135.451C195.699 135.451 192.738 135.36 189.977 135.36C187.435 135.36 184.711 135.36 181.841 135.432C158.334 135.705 126.144 136.096 109.708 119.848C102.738 112.956 99.2299 103.554 99.2572 91.8795C99.2572 81.414 111.102 76.6496 120.568 72.7853C122.564 71.9852 124.45 71.2214 126.035 70.4758C128.768 69.1847 131.502 67.8572 134.308 66.5388C152.74 57.7373 171.755 48.6448 190.005 48.6448ZM209.73 134.623C230.804 134.623 255.377 132.941 269.081 119.639C276.041 112.883 279.649 103.536 279.804 91.8522C279.932 81.8505 268.424 77.3043 259.168 73.6673C257.108 72.858 255.168 72.0852 253.537 71.3214C250.803 70.0212 247.988 68.6937 245.218 67.3662C226.95 58.6192 208.063 49.5813 190.005 49.5813C171.946 49.5813 153.041 58.6283 134.745 67.3844C131.982 68.7119 129.224 70.0242 126.472 71.3214C124.841 72.0852 122.946 72.849 120.942 73.6582C111.712 77.3861 100.223 82.0233 100.196 91.8431C100.196 103.263 103.585 112.456 110.373 119.166C126.545 135.151 158.516 134.769 181.859 134.487C184.729 134.487 187.453 134.414 190.005 134.414C192.738 134.414 195.736 134.46 198.879 134.505C202.332 134.569 205.976 134.623 209.73 134.623Z"
    fill="#EF3939" />
  <path
    d="M190.005 62.2562C203.17 62.2562 218.905 70.1575 234.121 77.8043C238.594 80.0501 243.232 82.3505 247.651 84.4236C249.209 85.151 251.159 85.8875 253.227 86.6695C261.254 89.6973 271.249 93.4706 271.686 100.972C272.288 111.201 269.6 119.521 263.696 125.703C249.118 140.942 217.593 140.624 196.71 140.415C194.341 140.415 192.1 140.37 190.005 140.37C187.909 140.37 185.914 140.37 183.691 140.37C162.607 140.551 130.745 140.833 116.158 125.467C110.318 119.302 107.676 111.055 108.314 100.917C108.788 93.3615 118.673 89.6518 126.609 86.6695C128.741 85.8784 130.745 85.1237 132.358 84.3691C136.622 82.3869 141.123 80.1319 145.469 77.9497C160.903 70.2575 176.857 62.2562 190.005 62.2562ZM204.81 139.542C224.9 139.542 250.512 138.169 263.031 125.058C268.752 119.057 271.358 110.974 270.775 101.008C270.374 94.098 260.689 90.4337 252.908 87.4969C250.822 86.7149 248.854 85.9693 247.259 85.2328C242.822 83.1779 238.194 80.8503 233.711 78.5953C218.595 71.0031 202.961 63.1381 189.977 63.1381C176.994 63.1381 161.186 71.094 145.852 78.7863C141.497 80.9776 136.996 83.2325 132.713 85.2237C131.064 85.9875 129.069 86.7422 126.91 87.5514C119.211 90.4337 109.598 94.0343 109.198 100.999C108.569 110.855 111.129 118.875 116.796 124.849C131.101 139.933 162.726 139.651 183.654 139.469C185.877 139.469 187.991 139.469 189.977 139.469C191.963 139.469 194.323 139.469 196.692 139.515C199.28 139.533 201.986 139.56 204.81 139.56V139.542Z"
    fill="#EF3939" />
  <path
    d="M190.005 82.8687C201.758 82.8687 216.591 90.1427 230.932 97.2076C234.522 98.9715 237.911 100.635 241.264 102.199C242.585 102.809 244.134 103.445 245.774 104.109C252.926 107.018 261.828 110.637 262.657 117.175C263.705 125.358 261.846 132.223 257.136 137.551C243.915 152.508 211.78 152.408 192.556 152.408H187.882C168.748 152.408 136.713 152.472 123.311 137.66C118.482 132.332 116.468 125.44 117.325 117.193C117.999 110.628 126.855 107.073 133.971 104.209C135.693 103.509 137.324 102.854 138.718 102.208C142.089 100.635 145.496 98.9624 149.105 97.1894C163.4 90.1427 178.233 82.8687 190.005 82.8687ZM195.672 151.499C214.915 151.499 244.18 150.835 256.452 136.951C261.008 131.823 262.766 125.212 261.755 117.284C260.99 111.283 252.361 107.773 245.437 104.954C243.779 104.282 242.212 103.645 240.881 103.027C237.519 101.463 234.121 99.7898 230.531 98.0259C216.281 91.0156 201.539 83.778 190.005 83.778C178.47 83.778 163.746 91.052 149.533 97.9986C145.888 99.7716 142.508 101.454 139.128 103.027C137.706 103.681 136.066 104.345 134.326 105.036C127.438 107.764 118.837 111.265 118.245 117.275C117.425 125.258 119.357 131.904 124.003 137.042C137.132 151.553 168.867 151.499 187.9 151.499L195.672 151.499Z"
    fill="#EF3939" />
  <path
    d="M190.005 108.591C201.74 108.591 252.644 122.448 253.637 138.597C254.065 145.561 252.07 151.435 247.724 156.054C234.968 169.529 204.61 169.529 190.005 169.529C174.288 169.529 145.032 169.529 132.349 156.118C127.976 151.49 125.971 145.598 126.363 138.597C127.347 121.721 177.477 108.591 190.005 108.591ZM190.005 168.602C204.482 168.602 234.649 168.602 247.059 155.418C251.232 150.99 253.136 145.343 252.726 138.633C251.815 122.921 201.576 109.464 190.005 109.464C178.042 109.464 128.203 122.567 127.274 138.633C126.882 145.371 128.814 151.044 133.005 155.472C145.424 168.638 175.536 168.638 190.005 168.638V168.602Z"
    fill="#EF3939" />
  <path
    d="M190.005 137.56C202.368 137.56 243.569 145.589 244.608 163.319C244.812 165.844 244.476 168.383 243.623 170.768C242.77 173.154 241.42 175.332 239.66 177.158C234.194 182.995 221.065 189.942 190.005 189.942C158.945 189.942 145.852 182.986 140.34 177.158C138.58 175.332 137.23 173.154 136.377 170.768C135.524 168.383 135.188 165.844 135.392 163.319C136.44 145.589 177.632 137.56 190.005 137.56ZM190.005 189.032C203.89 189.032 228.727 187.405 238.995 176.539C240.669 174.802 241.955 172.731 242.767 170.461C243.579 168.191 243.899 165.776 243.706 163.374C242.74 147.007 203.425 138.469 190.005 138.469C176.584 138.469 137.26 147.034 136.303 163.374C136.109 165.775 136.428 168.19 137.238 170.46C138.049 172.73 139.332 174.802 141.005 176.539C151.282 187.405 176.11 189.032 190.005 189.032Z"
    fill="#EF3939" />
  <path
    d="M190.005 167.865C198.314 167.865 221.985 169.993 231.524 179.731C232.835 180.981 233.872 182.489 234.572 184.158C235.271 185.828 235.617 187.623 235.588 189.433C235.187 207.672 202.542 211.664 190.032 211.664C177.522 211.664 144.84 207.672 144.476 189.433C144.449 187.624 144.796 185.829 145.495 184.159C146.194 182.49 147.231 180.983 148.54 179.731C158.015 170.02 181.686 167.865 190.005 167.865ZM190.005 210.755C199.103 210.682 208.143 209.285 216.837 206.608C228.508 202.753 234.513 196.97 234.677 189.414C234.702 187.727 234.378 186.052 233.724 184.495C233.07 182.938 232.101 181.533 230.877 180.367C221.547 170.884 198.205 168.775 190.005 168.775C181.805 168.775 158.453 170.857 149.123 180.367C147.901 181.534 146.933 182.939 146.279 184.496C145.625 186.053 145.3 187.727 145.323 189.414C145.496 196.97 151.501 202.753 163.172 206.608C171.865 209.296 180.905 210.702 190.005 210.782V210.755Z"
    fill="#EF3939" />
  <path
    d="M189.485 197.698H190.005C196.628 197.789 217.138 199.88 224.244 208.027C225.127 208.966 225.791 210.087 226.191 211.311C226.591 212.535 226.717 213.832 226.559 215.11C225.784 221.329 217.958 225.657 211.534 228.194C203.444 231.394 194.706 232.885 190.005 232.922C181.094 233.004 154.735 226.966 153.441 215.101C153.285 213.693 153.443 212.269 153.903 210.93C154.363 209.591 155.114 208.369 156.102 207.354C163.354 199.407 182.533 197.698 189.485 197.698ZM189.822 232.013H189.977C194.597 232.013 203.198 230.503 211.179 227.348C219.944 223.893 225.074 219.501 225.638 214.992C225.773 213.842 225.656 212.678 225.294 211.579C224.932 210.479 224.334 209.472 223.543 208.627C217.165 201.353 198.177 198.734 189.977 198.625C182.014 198.525 163.446 200.662 156.758 207.99C155.86 208.912 155.178 210.019 154.759 211.234C154.34 212.449 154.195 213.741 154.334 215.019C154.845 219.71 160.038 224.184 168.958 227.612C176.547 230.512 185.148 232.013 189.822 232.013Z"
    fill="#EF3939" />
  <path
    d="M190.861 225.093C197.494 225.093 210.906 227.239 215.762 232.731C216.468 233.466 216.995 234.354 217.301 235.325C217.608 236.297 217.686 237.326 217.529 238.332C216.272 246.188 196.136 251.752 190.005 251.752C183.873 251.752 163.719 246.188 162.489 238.332C162.329 237.365 162.384 236.374 162.652 235.431C162.92 234.488 163.393 233.616 164.038 232.876C168.694 227.257 182.552 225.339 190.005 225.102L190.861 225.093ZM190.005 250.843C196.747 250.843 215.516 245.097 216.627 238.186C216.764 237.313 216.695 236.419 216.426 235.577C216.157 234.734 215.696 233.965 215.079 233.331C210.204 227.812 196.136 225.821 190.014 226.057C182.725 226.293 169.167 228.13 164.721 233.495C164.161 234.135 163.751 234.891 163.517 235.708C163.284 236.526 163.235 237.384 163.373 238.223C164.466 245.097 183.253 250.843 190.005 250.843Z"
    fill="#EF3939" />
  <path
    d="M190.005 248.243C194.342 248.243 208.509 248.879 208.509 257.19C208.509 260.654 198.168 266.282 190.005 266.282C181.841 266.282 171.491 260.627 171.491 257.19C171.491 248.879 185.659 248.243 190.005 248.243ZM190.005 265.4C198.396 265.4 207.598 259.636 207.598 257.217C207.598 249.752 194.132 249.179 190.005 249.179C185.877 249.179 172.402 249.752 172.402 257.217C172.402 259.636 181.622 265.4 190.005 265.4Z"
    fill="#EF3939" />
  <path
    d="M190.005 265.209C194.378 265.209 199.48 266.446 199.48 269.928C199.48 272.11 194.341 274.702 190.005 274.702C185.668 274.702 180.52 272.11 180.52 269.928C180.52 266.446 185.631 265.209 190.005 265.209ZM190.005 273.793C194.423 273.793 198.569 271.138 198.569 269.928C198.569 267.301 194.269 266.119 190.005 266.119C185.741 266.119 181.431 267.301 181.431 269.928C181.431 271.138 185.577 273.793 190.005 273.793Z"
    fill="#EF3939" />
  <path d="M189.549 274.602H190.46L190.46 0.454574L189.549 0.454574L189.549 274.602Z" fill="#EF3939" />
  <path
    d="M131.802 4.60081C134.536 8.5924 137.506 12.5749 140.649 16.7847C148.54 27.3411 156.703 38.2611 161.14 49.7722C169.34 70.9395 170.871 96.2711 172.384 120.766C172.912 129.34 173.413 137.442 174.206 145.243C175.326 156.609 175.955 168.556 176.62 181.204C178.306 213.528 180.055 246.952 190.442 274.438L189.595 274.756C179.153 247.143 177.404 213.646 175.709 181.258C175.044 168.62 174.424 156.709 173.295 145.334C172.52 137.515 172.019 129.404 171.472 120.784C169.96 96.3621 168.402 71.0941 160.293 50.0632C155.892 38.6612 147.774 27.7957 139.92 17.3303C136.768 13.1114 133.789 9.14705 131.055 5.11908L131.802 4.60081Z"
    fill="#EF3939" />
  <path
    d="M78.8391 17.2757C83.1578 20.0944 87.9503 22.8858 93.0434 25.8318C108.824 34.997 126.755 45.3806 134.7 60.174C146.708 82.4324 151.719 109.001 156.567 134.687C157.56 139.933 158.489 144.889 159.491 149.844C161.605 160.3 163.664 170.957 165.65 181.259C167.682 191.815 169.787 202.726 171.955 213.437C172.712 217.174 173.395 221.111 174.115 225.257C177.067 242.242 180.383 261.518 190.36 274.32L189.64 274.875C179.527 261.863 176.174 242.505 173.24 225.43C172.52 221.275 171.846 217.337 171.09 213.61C168.921 202.89 166.817 191.979 164.776 181.422C162.79 171.12 160.739 160.509 158.626 150.017C157.623 145.052 156.694 140.097 155.701 134.851C150.854 109.228 145.852 82.7325 133.916 60.5923C126.062 46.0443 108.286 35.7153 92.597 26.6137C87.5038 23.6587 82.6931 20.8582 78.3562 18.0304L78.8391 17.2757Z"
    fill="#EF3939" />
  <path
    d="M36.8092 37.1518C42.4855 39.1158 49.0637 40.9252 56.0247 42.8437C77.2993 48.7084 101.417 55.355 113.68 69.7302C130.308 89.2244 138.28 119.093 145.25 145.452C146.617 150.59 147.911 155.454 149.232 160.082C151.574 168.32 153.87 176.721 156.093 184.85C159.218 196.252 162.471 208.045 165.851 219.574C166.762 222.575 167.591 225.83 168.502 229.276C172.666 245.069 177.85 264.736 190.278 274.238L189.722 274.956C177.048 265.255 171.819 245.433 167.618 229.494C166.707 226.057 165.86 222.811 164.976 219.829C161.569 208.29 158.334 196.488 155.218 185.077C152.995 176.958 150.663 168.556 148.348 160.318C147.036 155.681 145.742 150.826 144.367 145.671C137.387 119.411 129.479 89.6518 112.979 70.3121C100.906 56.146 76.9349 49.5449 55.7878 43.7166C48.8087 41.789 42.2122 39.9705 36.5086 38.0065L36.8092 37.1518Z"
    fill="#EF3939" />
  <path
    d="M9.80372 62.247L59.9152 69.9757C63.0221 70.4576 66.4844 70.794 70.1379 71.1577C80.5976 72.1851 92.4512 73.358 100.15 78.3498C119.092 90.6156 128.395 121.412 135.802 146.152C137.406 151.471 138.918 156.5 140.403 160.9C143.137 168.893 145.761 177.049 148.339 184.932C152.257 196.916 156.302 209.318 160.557 221.42C161.468 223.866 162.298 226.557 163.227 229.403C168.694 246.124 175.436 266.937 190.241 274.193L189.841 275.011C174.689 267.582 167.846 246.57 162.352 229.676C161.441 226.839 160.53 224.157 159.701 221.72C155.437 209.609 151.391 197.17 147.474 185.214C144.895 177.331 142.235 169.175 139.538 161.191C138.044 156.772 136.531 151.744 134.928 146.416C127.529 121.812 118.318 91.1975 99.6582 79.1318C92.1414 74.2673 80.4062 73.1126 70.0468 72.0851C66.4024 71.7305 62.9128 71.385 59.7694 70.9031L9.65793 63.1654L9.80372 62.247Z"
    fill="#EF3939" />
  <path
    d="M82.3105 88.5879C86.6931 88.4838 91.0689 88.9887 95.3121 90.0882C117.124 96.4529 127.994 133.796 135.183 158.527C136.777 164.028 138.162 168.793 139.465 172.548C140.558 175.685 141.633 178.822 142.718 181.959C148.603 199.062 154.699 216.755 161.669 233.786C162.389 235.604 163.127 237.423 163.883 239.423C169.167 253.062 175.727 269.992 190.087 274.165L189.831 275.075C175.053 270.783 168.393 253.589 163.035 239.787C162.279 237.832 161.55 235.941 160.821 234.168C153.842 217.11 147.747 199.407 141.852 182.34C140.777 179.201 139.696 176.064 138.608 172.93C137.296 169.147 135.875 164.383 134.308 158.864C127.174 134.314 116.386 97.2349 95.057 91.052C87.3307 88.8061 77.272 89.5972 67.5503 90.37C62.9948 90.7247 58.7125 91.0611 54.8858 91.0611H0.410064L0.410065 90.1518H54.9314C58.7216 90.1518 62.9948 89.8154 67.523 89.4608C72.4977 88.988 77.5544 88.5879 82.3105 88.5879Z"
    fill="#EF3939" />
  <path
    d="M91.8681 104.573C94.6335 104.506 97.3903 104.906 100.023 105.755C119.53 112.728 130.463 146.071 137.697 168.129C139.228 172.793 140.668 177.221 141.98 180.704C144.285 186.868 146.535 193.179 148.731 199.289C153.715 213.237 158.881 227.657 164.931 241.369C165.568 242.83 166.218 244.345 166.88 245.915C171.618 257.172 177.522 271.183 190.105 274.102L189.895 275.011C176.866 271.965 170.862 257.735 166.042 246.261C165.377 244.697 164.73 243.169 164.092 241.714C158.033 227.966 152.867 213.528 147.865 199.562C145.688 193.461 143.428 187.15 141.132 180.995C139.811 177.467 138.399 173.057 136.832 168.383C129.652 146.498 118.801 113.41 99.7128 106.555C91.9045 103.754 79.0395 106.718 68.7348 109.091C64.899 110.001 61.2727 110.801 58.2843 111.265L9.80367 118.766L9.66698 117.857L58.1111 110.374C61.0632 109.919 64.6712 109.091 68.4888 108.21C75.887 106.573 84.5609 104.573 91.8681 104.573Z"
    fill="#EF3939" />
  <path
    d="M103.193 120.839C106.76 120.723 110.304 121.452 113.534 122.967C131.52 132.195 140.722 161.355 147.437 182.64C148.695 186.632 149.888 190.396 151.009 193.624C152.467 197.816 153.997 203.626 155.783 210.363C162.161 234.449 171.764 270.856 190.087 274.156L189.923 275.065C171.035 271.665 161.323 234.922 154.899 210.609C153.123 203.899 151.592 198.098 150.143 193.942C149.023 190.705 147.829 186.932 146.572 182.941C139.902 161.801 130.773 132.85 113.124 123.794C99.8222 116.984 72.6253 128.768 52.7629 137.378C46.4762 140.106 41.055 142.452 36.8092 143.916L36.5086 143.061C40.7179 141.606 46.13 139.26 52.3985 136.542C68.1881 129.677 88.5698 120.839 103.193 120.839Z"
    fill="#EF3939" />
  <path
    d="M130.099 132.405C131.596 132.382 133.083 132.657 134.472 133.214C148.585 139.124 155.537 170.766 159.692 189.669C160.603 193.833 161.395 197.416 162.106 200.062C163.218 204.235 164.247 209.691 165.432 216.055C169.486 237.732 175.035 267.401 190.187 274.247L189.813 275.075C174.224 268.082 168.63 238.141 164.539 216.274C163.354 209.909 162.334 204.453 161.222 200.353C160.512 197.689 159.719 194.088 158.799 189.924C154.69 171.184 147.792 139.833 134.117 134.114C123.757 129.777 102.865 145.752 89.0436 156.327C84.98 159.437 81.4631 162.128 78.8391 163.837L78.338 163.083C80.9347 161.382 84.4425 158.7 88.4878 155.599C101.499 145.58 118.755 132.405 130.099 132.405Z"
    fill="#EF3939" />
  <path
    d="M160.466 136.414C160.581 136.4 160.697 136.4 160.812 136.414C169.012 138.151 172.83 170.666 175.254 198.798C175.509 201.735 175.691 203.853 175.818 204.753C176.566 210.163 177.021 216.055 177.513 222.284C178.934 240.469 180.538 261.136 190.369 274.293L189.64 274.838C179.618 261.463 178.032 240.687 176.602 222.356C176.119 216.137 175.691 210.263 174.916 204.881C174.789 203.971 174.598 201.826 174.342 198.871C173.076 184.095 169.195 139.124 160.621 137.305C156.412 136.396 141.57 160.591 135.237 170.948C133.597 173.621 132.422 175.494 131.802 176.403L131.055 175.885C131.657 174.976 132.877 172.993 134.454 170.429C145.342 152.744 155.993 136.414 160.466 136.414Z"
    fill="#EF3939" />
  <path d="M189.549 274.602H190.46V135.769H189.549L189.549 274.602Z" fill="#EF3939" />
  <path
    d="M219.543 136.414C224.099 136.414 235.032 153.49 244.963 169.584C246.785 172.502 248.179 174.803 248.954 175.948L248.198 176.467C247.414 175.321 245.993 173.012 244.189 170.102C237.993 160.046 223.488 136.46 219.379 137.369C211.553 139.033 209.293 166.383 208.072 181.077C207.771 184.804 207.525 187.75 207.261 189.596C206.35 196.316 205.794 203.926 205.248 211.991C203.744 234.149 202.031 259.272 190.369 274.902L189.64 274.356C201.138 258.899 202.842 233.967 204.336 211.927C204.883 203.853 205.402 196.225 206.359 189.469C206.614 187.65 206.86 184.714 207.17 181.004C208.491 165.028 210.705 138.269 219.197 136.451C219.31 136.425 219.427 136.412 219.543 136.414Z"
    fill="#EF3939" />
  <path
    d="M249.81 132.405C261.072 132.405 278.438 145.616 291.54 155.581C295.585 158.655 299.075 161.31 301.662 163.01L301.161 163.765C298.546 162.055 295.038 159.391 290.984 156.309C277.089 145.734 256.088 129.75 245.883 134.041C233.638 139.188 227.588 165.065 223.971 180.522C223.215 183.786 222.55 186.596 221.948 188.805C219.798 196.579 217.712 204.499 215.689 212.164C213.457 220.629 211.133 229.376 208.755 237.95C208.236 239.768 207.726 241.942 207.188 244.197C204.51 255.453 200.81 270.865 190.169 275.011L189.831 274.165C200.054 270.192 203.662 255.071 206.304 243.987C206.842 241.723 207.352 239.578 207.881 237.705C210.268 229.13 212.573 220.429 214.805 211.936C216.828 204.271 218.923 196.343 221.065 188.569C221.675 186.378 222.331 183.568 223.087 180.322C226.978 163.674 232.864 138.497 245.528 133.196C246.889 132.652 248.345 132.383 249.81 132.405Z"
    fill="#EF3939" />
  <path
    d="M276.761 120.848C291.339 120.848 311.839 129.704 327.693 136.569C333.934 139.297 339.319 141.597 343.491 143.043L343.2 143.897C338.991 142.443 333.588 140.106 327.328 137.396C307.393 128.777 280.096 116.956 266.885 123.758C250.949 131.941 242.439 157.309 236.226 175.803C235.232 178.785 234.285 181.595 233.392 184.077C231.952 188.087 230.258 194.179 228.29 201.244C220.664 228.639 209.156 270.037 190.114 275.02L189.886 274.111C208.409 269.264 219.844 228.166 227.415 200.971C229.383 193.897 231.06 187.787 232.536 183.75C233.447 181.267 234.358 178.458 235.369 175.485C241.629 156.845 250.202 131.313 266.466 122.921C269.684 121.424 273.213 120.713 276.761 120.848Z"
    fill="#EF3939" />
  <path
    d="M288.478 104.618C295.621 104.618 303.612 106.436 310.91 108.146C314.846 109.055 318.572 109.964 321.843 110.428L370.288 117.911L370.151 118.82L321.707 111.337C318.354 110.819 314.618 109.955 310.655 109.046C300.396 106.673 288.788 103.991 280.223 106.627C261.828 112.319 249.583 149.062 242.266 171.011C240.954 174.966 239.815 178.385 238.831 181.013C237.173 185.486 235.324 191.66 233.182 198.807C224.691 227.13 211.853 269.928 190.059 275.029L189.85 274.12C211.133 269.137 223.871 226.639 232.308 198.516C234.449 191.351 236.308 185.168 237.975 180.676C238.95 178.04 240.089 174.63 241.401 170.675C248.781 148.553 261.117 111.574 279.95 105.709C282.721 104.918 285.597 104.551 288.478 104.618Z"
    fill="#EF3939" />
  <path
    d="M298.719 88.4879C304.186 88.4879 309.953 88.9335 315.374 89.3426C320.212 89.7245 324.795 90.07 328.622 90.07L379.544 90.07V90.9793L328.622 90.9793C324.759 90.9793 320.167 90.6247 315.302 90.2519C304.833 89.4517 292.961 88.5334 284.907 90.9611C265.035 96.953 255.869 127.131 249.182 149.153C247.687 154.081 246.275 158.736 244.899 162.573C242.102 170.411 239.351 178.422 236.699 186.214C232.353 198.871 227.852 211.964 223.033 224.693C222.258 226.721 221.456 228.967 220.609 231.349C214.76 247.715 206.742 270.246 190.159 275.065L189.904 274.156C206.031 269.465 213.967 247.242 219.753 231.012C220.6 228.621 221.411 226.366 222.176 224.339C227.014 211.609 231.506 198.534 235.843 185.886C238.503 178.14 241.255 170.12 244.043 162.246C245.41 158.427 246.822 153.781 248.316 148.853C255.058 126.622 264.306 96.1802 284.642 90.0518C289.237 88.8681 293.976 88.3415 298.719 88.4879Z"
    fill="#EF3939" />
  <path
    d="M370.224 62.247L370.36 63.1563L320.249 70.894C316.969 71.3941 313.425 71.7396 309.662 72.0942C299.521 73.0671 288.023 74.1673 280.36 79.1318C262.028 90.9974 251.997 123.894 244.672 147.907C243.187 152.744 241.793 157.318 240.481 161.21C237.747 169.193 235.123 177.34 232.554 185.223C228.636 197.216 224.581 209.627 220.317 221.738C219.461 224.175 218.586 226.857 217.666 229.694C212.199 246.588 205.339 267.601 190.187 275.029L189.786 274.211C204.592 266.937 211.361 246.142 216.801 229.421C217.712 226.575 218.623 223.884 219.461 221.438C223.716 209.336 227.77 196.888 231.688 184.941C234.258 177.058 236.927 168.911 239.624 160.919C240.927 157.045 242.357 152.481 243.797 147.644C251.168 123.494 261.254 90.4155 279.868 78.368C287.713 73.2853 299.33 72.1669 309.58 71.194C313.324 70.8303 316.869 70.4939 320.112 69.9938L370.224 62.247Z"
    fill="#EF3939" />
  <path
    d="M343.2 37.1518L343.492 38.0156C337.788 39.9796 331.201 41.7981 324.221 43.7257C303.056 49.5722 279.075 56.1915 267.021 70.3212C250.393 89.8154 242.622 119.193 235.77 145.116C234.358 150.453 233.037 155.49 231.652 160.328C229.31 168.511 227.014 176.93 224.8 185.041C221.675 196.47 218.422 208.281 215.024 219.838C214.113 222.82 213.284 226.066 212.382 229.503C208.181 245.433 202.952 265.255 190.278 274.966L189.722 274.247C202.15 264.736 207.334 245.079 211.498 229.285C212.409 225.839 213.265 222.584 214.149 219.583C217.566 208.045 220.8 196.234 223.916 184.814C226.14 176.703 228.472 168.311 230.777 160.091C232.153 155.254 233.51 150.226 234.886 144.889C241.765 118.875 249.564 89.4245 266.329 69.7393C278.556 55.4004 302.692 48.7356 323.984 42.8619C330.945 40.9252 337.524 39.1158 343.2 37.1518Z"
    fill="#EF3939" />
  <path
    d="M301.161 17.2757L301.662 18.0394C297.38 20.8399 292.606 23.6131 287.558 26.55C271.823 35.7243 253.92 46.1261 246.111 60.5741C234.267 82.6051 229.146 109.392 224.244 135.305C223.279 140.406 222.368 145.216 221.402 149.999C219.288 160.455 217.238 171.111 215.252 181.422C213.211 191.969 211.106 202.88 208.938 213.591C208.19 217.31 207.507 221.247 206.787 225.411C203.835 242.487 200.492 261.845 190.387 274.856L189.667 274.302C199.617 261.518 202.952 242.242 205.885 225.275C206.605 221.111 207.279 217.174 208.036 213.455C210.204 202.753 212.309 191.842 214.341 181.295C216.327 170.984 218.386 160.328 220.5 149.862C221.465 145.089 222.377 140.279 223.342 135.187C228.035 110.41 233.365 82.3414 245.309 60.1922C253.236 45.4896 271.222 35.0151 287.093 25.7863C292.141 22.8312 296.897 20.058 301.161 17.2757Z"
    fill="#EF3939" />
  <path
    d="M248.198 4.60081L248.954 5.11909C246.221 9.10159 243.25 13.0841 240.107 17.303C232.235 27.8321 224.099 38.734 219.716 50.0996C211.698 70.8941 209.995 97.7805 208.5 121.494C207.963 129.904 207.462 137.86 206.724 145.334C205.603 156.682 204.974 168.62 204.309 181.258C202.614 213.646 200.865 247.143 190.424 274.756L189.576 274.438C199.963 246.952 201.712 213.519 203.407 181.204C204.063 168.556 204.692 156.654 205.812 145.243C206.56 137.769 207.061 129.841 207.589 121.439C209.092 97.6532 210.796 70.694 218.86 49.7722C223.288 38.2884 231.47 27.3411 239.369 16.7574C242.512 12.5476 245.483 8.57422 248.198 4.60081Z"
    fill="#EF3939" />
</svg>