<svg xmlns="http://www.w3.org/2000/svg" viewBox="0 0 573.36 573.36"><defs><style>.cls-1{fill:#fff;}</style></defs><g id="Layer_2" data-name="Layer 2"><g id="_1" data-name="1"><path class="cls-1" d="M402.08,573.36q-9.07,0-18.35-.76c-54.1-4.42-105.88-27.71-142.06-63.88l-177-177C28.46,295.51,5.18,243.73.76,189.63c-2.22-27.16.44-53,7.91-77,8-25.45,21-47.38,38.81-65.19S87.22,16.62,112.67,8.67c23.91-7.47,49.8-10.13,77-7.91,54.1,4.42,105.88,27.7,142.06,63.88l177,177c36.18,36.18,59.46,88,63.88,142.06,2.22,27.16-.44,53-7.91,77-8,25.45-21,47.38-38.81,65.19s-39.74,30.86-65.19,38.81A196,196,0,0,1,402.08,573.36ZM242.38,508c70.79,70.8,206.77,93.18,282.79,17.16,34.57-34.57,51.06-84.77,46.44-141.36C567.2,329.94,544,278.39,508,242.38l-177-177C260.19-5.44,124.21-27.82,48.19,48.19S-5.45,260.19,65.35,331Z"/><path class="cls-1" d="M69.05,335.4c-18-18-32-39.74-41.87-63.11A224.84,224.84,0,0,1,9.9,198.42a201.6,201.6,0,0,1,9.39-75.22A169.49,169.49,0,0,1,35.17,88.6,156.41,156.41,0,0,1,88.6,35.17a170,170,0,0,1,34.6-15.88A201.6,201.6,0,0,1,198.42,9.9a224.84,224.84,0,0,1,73.87,17.28c23.37,9.89,45.13,23.89,63.11,41.87-18-17.94-39.79-31.9-63.17-41.75A224.48,224.48,0,0,0,198.4,10.16a201.29,201.29,0,0,0-75.08,9.49,169,169,0,0,0-34.49,15.9A157.65,157.65,0,0,0,35.55,88.83a169,169,0,0,0-15.9,34.49,201.29,201.29,0,0,0-9.49,75.08A224.48,224.48,0,0,0,27.3,272.23c9.85,23.38,23.81,45.15,41.76,63.16Z"/><path class="cls-1" d="M515.2,249.86a207.31,207.31,0,0,1,36,64.39A224.16,224.16,0,0,1,563.8,387a195.56,195.56,0,0,1-13.22,72.59,160.62,160.62,0,0,1-41.72,60.65,166.31,166.31,0,0,1-64.49,35.56,204.25,204.25,0,0,1-73.45,7.3,225,225,0,0,1-71.7-17.75c-22.67-9.83-43.77-23.56-61.27-41.07a198.42,198.42,0,0,0,61.33,40.93,225,225,0,0,0,71.66,17.63,204,204,0,0,0,73.33-7.4,165.88,165.88,0,0,0,64.26-35.57,156,156,0,0,0,24.34-27.79,165.75,165.75,0,0,0,17.34-32.64c9.14-23,13.36-47.75,13.31-72.44a223.87,223.87,0,0,0-12.43-72.74,207.07,207.07,0,0,0-35.92-64.42Z"/><path class="cls-1" d="M79.11,345.47C62.26,328.56,50,307.44,42.23,285A200.74,200.74,0,0,1,46.53,145,178.37,178.37,0,0,1,145,46.53,200.74,200.74,0,0,1,285,42.23c22.49,7.77,43.61,20,60.52,36.88-17-16.8-38.08-29-60.56-36.75a200.51,200.51,0,0,0-139.72,4.52,179.33,179.33,0,0,0-98.31,98.31,200.51,200.51,0,0,0-4.52,139.72c7.72,22.48,20,43.61,36.77,60.54Z"/><path class="cls-1" d="M503.77,238.44c14.66,18.06,24.93,39.46,31,61.85a200.47,200.47,0,0,1,6.2,69.1,196.88,196.88,0,0,1-17.7,67.08,178.9,178.9,0,0,1-40.88,56,183.57,183.57,0,0,1-59.05,36.34,199.19,199.19,0,0,1-68.19,12.85,196.83,196.83,0,0,1-68.45-11.12c-21.86-7.78-42.37-19.85-58.84-36.3,16.52,16.39,37,28.42,58.89,36.16a200.62,200.62,0,0,0,136.46-1.94,183.12,183.12,0,0,0,58.85-36.35,179.16,179.16,0,0,0,40.85-55.81,196.64,196.64,0,0,0,17.79-66.95,200.59,200.59,0,0,0-6.08-69c-6.06-22.38-16.28-43.78-30.9-61.87Z"/><path class="cls-1" d="M89.43,355.81A113.25,113.25,0,0,1,69.73,329a135.21,135.21,0,0,1-11.87-31.2c-5.35-21.69-6-44.39-3.1-66.5A200.78,200.78,0,0,1,62,198.59a203.8,203.8,0,0,1,12.43-31.07,205.45,205.45,0,0,1,93.13-93.13A203.8,203.8,0,0,1,198.59,62a200.78,200.78,0,0,1,32.67-7.2c22.11-2.95,44.81-2.25,66.5,3.1A135.21,135.21,0,0,1,329,69.73a113.25,113.25,0,0,1,26.85,19.7,114.77,114.77,0,0,0-27-19.34,135,135,0,0,0-31.19-11.5c-21.61-5.17-44.2-5.75-66.16-2.68a206.34,206.34,0,0,0-63.29,19.71,206.37,206.37,0,0,0-92.51,92.51,206.34,206.34,0,0,0-19.71,63.29c-3.07,22-2.49,44.55,2.68,66.16a135,135,0,0,0,11.5,31.19,112.77,112.77,0,0,0,19.38,27Z"/><path class="cls-1" d="M492.08,226.69a122.59,122.59,0,0,1,16.46,28.1,144,144,0,0,1,9.17,31.31,185.57,185.57,0,0,1-.56,65.09A207.16,207.16,0,0,1,455.62,464.3a212.78,212.78,0,0,1-25.5,20.49A207.64,207.64,0,0,1,401.68,501,204.74,204.74,0,0,1,339.06,519a187.71,187.71,0,0,1-32.67,1.07,163,163,0,0,1-32.28-5,137,137,0,0,1-30.39-11.86A112.43,112.43,0,0,1,217.53,484l.08-.08a112.07,112.07,0,0,0,26.31,19,136.5,136.5,0,0,0,30.38,11.49c21.05,5.32,43.11,6.15,64.62,3.48a208.2,208.2,0,0,0,90.4-34.26,210.72,210.72,0,0,0,25.28-20.39A206.61,206.61,0,0,0,516,351a184.8,184.8,0,0,0,.94-64.74,143.84,143.84,0,0,0-8.8-31.27A122.39,122.39,0,0,0,492,226.76Z"/><path class="cls-1" d="M137.19,403.63a9.19,9.19,0,0,1-2.48-5.63,24.58,24.58,0,0,1,.2-6.24,62.69,62.69,0,0,1,3.33-12,171.06,171.06,0,0,1,10.65-22.43,391.28,391.28,0,0,1,27.26-41.42A716.21,716.21,0,0,1,315.92,176.15a391.28,391.28,0,0,1,41.42-27.26,171.06,171.06,0,0,1,22.43-10.65,62.69,62.69,0,0,1,12-3.33,24.58,24.58,0,0,1,6.24-.2,9.19,9.19,0,0,1,5.63,2.48l-.1.1a8.94,8.94,0,0,0-5.58-2.1,23.37,23.37,0,0,0-6.06.51,63.53,63.53,0,0,0-11.65,3.75,169.45,169.45,0,0,0-21.76,11.41A433.86,433.86,0,0,0,318.06,179q-19.46,15.14-37.86,31.56t-35.83,33.84q-17.46,17.4-33.84,35.83T179,318.06a433.86,433.86,0,0,0-28.11,40.42,169.45,169.45,0,0,0-11.41,21.76,63.28,63.28,0,0,0-3.75,11.65,23.37,23.37,0,0,0-.51,6.06,8.94,8.94,0,0,0,2.1,5.58Z"/><path class="cls-1" d="M438,172.43a15.4,15.4,0,0,1,.8,6.13,36.08,36.08,0,0,1-.88,6.13A78.84,78.84,0,0,1,434,196.42a190.16,190.16,0,0,1-10.93,22.07,407.58,407.58,0,0,1-27.32,40.9c-9.82,13.13-20.28,25.77-31.06,38.11s-22.08,24.24-33.7,35.8a688.9,688.9,0,0,1-74.23,64.39,389.09,389.09,0,0,1-41.11,27,168.37,168.37,0,0,1-22.26,10.55,61.61,61.61,0,0,1-11.91,3.29,24.33,24.33,0,0,1-6.21.19,9.25,9.25,0,0,1-5.63-2.49l.22-.22a8.8,8.8,0,0,0,5.48,2.08,23.25,23.25,0,0,0,6-.48,61.34,61.34,0,0,0,11.55-3.68,167.9,167.9,0,0,0,21.62-11.24,431.31,431.31,0,0,0,40.13-27.82q19.34-15,37.61-31.23t35.59-33.52c11.54-11.5,22.8-23.31,33.63-35.48S382.85,270,392.9,257.18q7.52-9.63,14.6-19.59c4.72-6.64,9.27-13.4,13.53-20.33a191.22,191.22,0,0,0,11.67-21.41,79.19,79.19,0,0,0,4.24-11.39,34.46,34.46,0,0,0,1.16-5.94,14.9,14.9,0,0,0-.45-6Z"/><path class="cls-1" d="M118.3,384.72a35.12,35.12,0,0,1-7.69-11.42,52.69,52.69,0,0,1-3.49-13.41,96.09,96.09,0,0,1,.95-27.66,168.2,168.2,0,0,1,7.05-26.79,242.4,242.4,0,0,1,10.66-25.58,308.87,308.87,0,0,1,28.71-47.31,363.57,363.57,0,0,1,78.06-78.06,308.87,308.87,0,0,1,47.31-28.71,242.4,242.4,0,0,1,25.58-10.66,168.2,168.2,0,0,1,26.79-7.05,96.09,96.09,0,0,1,27.66-.95,52.69,52.69,0,0,1,13.41,3.49,35.12,35.12,0,0,1,11.42,7.69l-.08.08a34.66,34.66,0,0,0-11.58-7.19,49.71,49.71,0,0,0-6.54-2,63.7,63.7,0,0,0-6.75-1.1,94.7,94.7,0,0,0-27.23,1.69c-18,3.46-35.15,10.22-51.47,18.41a323.46,323.46,0,0,0-46.56,28.94,377.71,377.71,0,0,0-77.35,77.35,323.46,323.46,0,0,0-28.94,46.56c-8.19,16.32-15,33.52-18.41,51.47a94.7,94.7,0,0,0-1.69,27.23,63.7,63.7,0,0,0,1.1,6.75,49.71,49.71,0,0,0,2,6.54,34.66,34.66,0,0,0,7.19,11.58Z"/><path class="cls-1" d="M459.35,193.87a42.13,42.13,0,0,1,5.44,12.46,63.09,63.09,0,0,1,1.36,6.7c.22,2.26.55,4.53.57,6.81A109.15,109.15,0,0,1,464.14,247c-3.86,17.82-10.66,34.86-18.85,51.08-4.1,8.12-8.63,16-13.47,23.71s-10.05,15.17-15.49,22.45-11.23,14.31-17.22,21.15-12.25,13.44-18.72,19.83a362.1,362.1,0,0,1-41.65,35.16,304.61,304.61,0,0,1-46.78,28,232.88,232.88,0,0,1-25.24,10.35,165.6,165.6,0,0,1-26.43,6.79,95,95,0,0,1-27.25.77,64.33,64.33,0,0,1-6.72-1.32,47.86,47.86,0,0,1-6.47-2.2,35,35,0,0,1-11.26-7.6l.18-.18A34.31,34.31,0,0,0,200.12,462a49.65,49.65,0,0,0,6.42,2,59.72,59.72,0,0,0,6.64,1.11A93.2,93.2,0,0,0,240,463.69a168.69,168.69,0,0,0,26-7.16,230.71,230.71,0,0,0,24.8-10.64,320.67,320.67,0,0,0,46-28.19,368.92,368.92,0,0,0,41.14-35l2.4-2.37,2.36-2.42c1.56-1.62,3.17-3.2,4.71-4.85l4.6-4.94c1.54-1.64,3-3.36,4.51-5,6-6.76,11.71-13.7,17.12-20.9s10.65-14.54,15.54-22.1,9.4-15.37,13.62-23.33c8.38-15.92,15.39-32.67,19.5-50.2a107.45,107.45,0,0,0,3.28-26.7c0-2.25-.22-4.48-.37-6.73a62.11,62.11,0,0,0-1.16-6.63A42,42,0,0,0,459.14,194Z"/><path class="cls-1" d="M102.5,368.9A73.48,73.48,0,0,1,86,343.32a108.5,108.5,0,0,1-6.86-29.86c-1.73-20.46,1.1-41.1,6.64-60.8a217.86,217.86,0,0,1,10.44-28.89,248.88,248.88,0,0,1,14.26-27.22,253,253,0,0,1,86.12-86.12,248.88,248.88,0,0,1,27.22-14.26,217.86,217.86,0,0,1,28.89-10.44c19.7-5.54,40.34-8.37,60.8-6.64A108.5,108.5,0,0,1,343.32,86,73.48,73.48,0,0,1,368.9,102.5l-.06.06L366,100c-.47-.42-.94-.86-1.43-1.27L363,97.6c-1-.76-2-1.55-3.06-2.29l-3.23-2c-.54-.34-1.06-.7-1.61-1l-1.69-.9-3.37-1.78-3.48-1.54-1.75-.77c-.59-.23-1.19-.44-1.79-.65a107.08,107.08,0,0,0-29.7-6.28c-20.28-1.47-40.7,1.54-60.16,7.25a232.09,232.09,0,0,0-28.55,10.55,244.38,244.38,0,0,0-26.92,14.23,258.32,258.32,0,0,0-85.35,85.35,244.38,244.38,0,0,0-14.23,26.92A232.09,232.09,0,0,0,87.6,253.2c-5.71,19.46-8.72,39.88-7.25,60.16a107.08,107.08,0,0,0,6.28,29.7c.21.6.42,1.2.65,1.79l.77,1.75,1.54,3.48,1.78,3.37.9,1.69c.31.55.67,1.07,1,1.61l2,3.23c.74,1,1.53,2,2.29,3.06l1.14,1.52c.41.49.85,1,1.27,1.43l2.55,2.85Z"/><path class="cls-1" d="M477.26,211.83a81.85,81.85,0,0,1,13.07,26.91,119.46,119.46,0,0,1,4.4,29.72c.44,20.11-3.13,40.16-9.24,59.27a219.54,219.54,0,0,1-11.14,28A236.43,236.43,0,0,1,459.71,382a254.79,254.79,0,0,1-38.12,46.5c-3.57,3.53-7.38,6.81-11.14,10.14l-5.81,4.8c-1.93,1.6-4,3.08-5.95,4.62a257.29,257.29,0,0,1-25,16.76,231.17,231.17,0,0,1-55.32,23.48,191.76,191.76,0,0,1-29.59,5.59,146.8,146.8,0,0,1-30.08.26,108.78,108.78,0,0,1-29.23-6.95,73.65,73.65,0,0,1-25-16.33l.12-.12,2.79,2.49,1.39,1.25,1.5,1.13,3,2.25,3.15,2,1.58,1c.54.31,1.09.59,1.64.89l3.3,1.75c1.11.56,2.27,1,3.4,1.54s2.26,1,3.45,1.43a108,108,0,0,0,29.05,6.39,147,147,0,0,0,29.8-.59,189.19,189.19,0,0,0,29.24-5.84,237.65,237.65,0,0,0,54.69-23.58,254.33,254.33,0,0,0,24.73-16.69c2-1.54,4-3,5.88-4.6l5.74-4.78c3.71-3.3,7.47-6.56,11-10.08,28.69-27.54,51.15-61.81,63.72-99.62,6.27-18.87,10-38.7,9.8-58.62A118.29,118.29,0,0,0,489.55,239l-.47-1.8c-.17-.6-.38-1.19-.56-1.78l-1.15-3.56c-.42-1.17-.91-2.32-1.36-3.48a35.73,35.73,0,0,0-1.47-3.43L483,221.52c-.57-1.11-1.21-2.18-1.82-3.27l-.91-1.63c-.32-.54-.69-1.05-1-1.57l-2.07-3.12Z"/><path class="cls-1" d="M420.25,153.91l-8.11,8.54L404,170.93l-16.33,17-16.42,16.88-16.47,16.82L321.68,255.1l-33.24,33.34q-33.35,33.24-66.9,66.27t-67.63,65.54l-.8-.8q32.52-34.06,65.54-67.63t66.27-66.9l33.34-33.24,33.51-33.08,16.82-16.47,16.88-16.42,17-16.33,8.48-8.16,8.54-8.11Z"/><path class="cls-1" d="M434,559.94a205.34,205.34,0,0,1-34.62-3.07c-49.94-8.57-99.33-34.23-135.5-70.39l-177-177C50.72,273.28,25.06,223.89,16.49,174c-9-52.55,2-97.46,31-126.47s73.92-40,126.47-31c49.94,8.57,99.33,34.23,135.5,70.39l177,177c36.16,36.17,61.82,85.56,70.39,135.5,9,52.55-2,97.46-31,126.47C503.48,548.27,471.59,559.94,434,559.94ZM139.33,14.42C102,14.42,70.4,26,48.19,48.19,19.42,77,8.52,121.56,17.47,173.78c8.54,49.75,34.1,98.94,70.12,135l177,177c36,36,85.21,61.58,135,70.12,52.22,9,96.82-1.95,125.59-30.72s39.67-73.37,30.72-125.59c-8.54-49.75-34.1-98.94-70.12-135l-177-177c-36-36-85.21-61.58-135-70.12A204.35,204.35,0,0,0,139.33,14.42Z"/><path class="cls-1" d="M491.18,537.94c-16.2,0-36.05-4.77-58.69-14.29-41.17-17.31-85.51-48-121.65-84.11l-177-177C97.68,226.38,67,182,49.71,140.87c-18.25-43.41-19-76.57-2.23-93.39s50-16,93.39,2.23C182,67,226.38,97.68,262.52,133.82l177,177c36.14,36.14,66.8,80.48,84.11,121.65,18.25,43.41,19,76.57,2.23,93.39C517.83,533.92,506,537.94,491.18,537.94Zm-179.63-99.1c36.05,36.05,80.28,66.63,121.33,83.89,43,18.08,75.78,18.95,92.29,2.44s15.64-49.29-2.44-92.29c-17.26-41.05-47.84-85.28-83.89-121.33l-177-177c-36.05-36.05-80.28-66.63-121.33-83.89-43-18.08-75.78-19-92.29-2.44s-15.64,49.29,2.44,92.29c17.26,41.06,47.84,85.28,83.89,121.33Z"/><rect class="cls-1" x="286.18" y="-51.09" width="1" height="675.55" transform="translate(-118.75 286.68) rotate(-45)"/></g></g></svg>